<svg width="32" height="32" viewBox="0 0 32 32" fill="none" xmlns="http://www.w3.org/2000/svg">
<g id="Frame" clip-path="url(#clip0_8966_9088)">
<g id="Group">
<path id="Vector" d="M29.5466 4.33736V1.41333H24.2515V4.33736C24.2515 5.81653 23.9077 7.27546 23.2473 8.59901C22.5866 9.92231 22.2424 11.381 22.242 12.8601V27.3086C22.242 27.7321 22.4102 28.1382 22.7096 28.4376C23.009 28.737 23.4151 28.9052 23.8385 28.9052H29.9585C30.382 28.9052 30.788 28.737 31.0874 28.4376C31.3868 28.1382 31.555 27.7321 31.555 27.3086V12.8601C31.555 11.381 31.2113 9.92202 30.5508 8.59848C29.8905 7.27507 29.5468 5.81634 29.5466 4.33736Z" fill="#EAEAF0"/>
<g id="Group_2">
<path id="Vector_2" d="M23.4522 1.41333H30.3449V3.80811H23.4522V1.41333ZM22.242 12.8064H31.555V19.4585H22.242V12.8064Z" fill="#3BA9FD"/>
</g>
<path id="Vector_3" d="M15.1975 0.700073H2.0113L0.954407 4.95746V28.9053H16.2544V4.95746L15.1975 0.700073Z" fill="#3BA9FD"/>
<path id="Vector_4" d="M15.1975 0.700073H2.0113L0.954407 4.95746H16.2544L15.1975 0.700073ZM0.954407 11.7416H16.2544V22.334H0.954407V11.7416Z" fill="#EAEAF0"/>
<path id="Vector_5" d="M2.55061 18.0733C2.42714 18.0733 2.30874 18.0242 2.22143 17.9369C2.13411 17.8496 2.08503 17.7312 2.08496 17.6077V15.7672C2.08496 15.6437 2.13402 15.5252 2.22135 15.4379C2.30867 15.3506 2.42711 15.3015 2.55061 15.3015C2.67411 15.3015 2.79255 15.3506 2.87988 15.4379C2.96721 15.5252 3.01627 15.6437 3.01627 15.7672V17.6077C3.01619 17.7312 2.96711 17.8496 2.8798 17.9369C2.79249 18.0242 2.67409 18.0733 2.55061 18.0733Z" fill="#D8D8D8"/>
<path id="Vector_6" d="M10.202 17.7084C10.202 18.1318 10.0338 18.5379 9.73441 18.8373C9.435 19.1367 9.02892 19.3049 8.60549 19.3049C8.18207 19.3049 7.77599 19.1367 7.47658 18.8373C7.17718 18.5379 7.00897 18.1318 7.00897 17.7084C7.00897 16.1837 8.60549 14.7708 8.60549 14.7708C8.60549 14.7708 10.202 16.1837 10.202 17.7084Z" fill="#3BA9FD"/>
<path id="Vector_7" d="M26.8476 23.5306C26.8471 23.7991 26.9371 24.06 27.1032 24.271C27.2693 24.482 27.5018 24.6308 27.7629 24.6934V28.9055H13.2612V20.295C13.2612 18.9432 15.5229 16.7081 18.4791 16.442L27.7629 20.295V22.3678C27.5018 22.4303 27.2693 22.5792 27.1032 22.7902C26.9371 23.0012 26.8471 23.262 26.8476 23.5306Z" fill="#FF9800"/>
<path id="Vector_8" d="M26.8476 23.5304C26.8471 23.799 26.9371 24.0598 27.1032 24.2708C27.2693 24.4818 27.5018 24.6306 27.7629 24.6932V28.9054H13.2612V20.2948H27.7629V22.3676C27.5018 22.4302 27.2693 22.579 27.1032 22.79C26.9371 23.001 26.8471 23.2619 26.8476 23.5304Z" fill="#FDD82E"/>
<path id="Vector_9" d="M18.233 21.0931C18.6739 21.0931 19.0313 20.7357 19.0313 20.2948C19.0313 19.854 18.6739 19.4966 18.233 19.4966C17.7921 19.4966 17.4348 19.854 17.4348 20.2948C17.4348 20.7357 17.7921 21.0931 18.233 21.0931Z" fill="#FDD82E"/>
<g id="Group_3">
<path id="Vector_10" d="M23.406 27.3242C23.8469 27.3242 24.2043 26.9668 24.2043 26.5259C24.2043 26.0851 23.8469 25.7277 23.406 25.7277C22.9652 25.7277 22.6078 26.0851 22.6078 26.5259C22.6078 26.9668 22.9652 27.3242 23.406 27.3242Z" fill="#FF9800"/>
<path id="Vector_11" d="M22.2067 22.7328C22.4272 22.7328 22.6059 22.5541 22.6059 22.3337C22.6059 22.1133 22.4272 21.9346 22.2067 21.9346C21.9863 21.9346 21.8076 22.1133 21.8076 22.3337C21.8076 22.5541 21.9863 22.7328 22.2067 22.7328Z" fill="#FF9800"/>
<path id="Vector_12" d="M24.6023 24.3641C24.8228 24.3641 25.0014 24.1854 25.0014 23.9649C25.0014 23.7445 24.8228 23.5658 24.6023 23.5658C24.3819 23.5658 24.2032 23.7445 24.2032 23.9649C24.2032 24.1854 24.3819 24.3641 24.6023 24.3641Z" fill="#FF9800"/>
</g>
<path id="Vector_13" d="M19.1928 18.5392C19.4132 18.5392 19.5919 18.3605 19.5919 18.1401C19.5919 17.9197 19.4132 17.741 19.1928 17.741C18.9723 17.741 18.7936 17.9197 18.7936 18.1401C18.7936 18.3605 18.9723 18.5392 19.1928 18.5392Z" fill="#FDD82E"/>
<path id="Vector_14" d="M16.2543 19.1268C16.4747 19.1268 16.6534 18.9481 16.6534 18.7276C16.6534 18.5072 16.4747 18.3285 16.2543 18.3285C16.0339 18.3285 15.8552 18.5072 15.8552 18.7276C15.8552 18.9481 16.0339 19.1268 16.2543 19.1268Z" fill="#FDD82E"/>
<path id="Vector_15" d="M17.8339 27.4751C18.0543 27.4751 18.233 27.2964 18.233 27.076C18.233 26.8556 18.0543 26.6769 17.8339 26.6769C17.6135 26.6769 17.4348 26.8556 17.4348 27.076C17.4348 27.2964 17.6135 27.4751 17.8339 27.4751Z" fill="#FF9800"/>
<path id="Vector_16" d="M20.2121 25.5129C20.4325 25.5129 20.6112 25.3342 20.6112 25.1137C20.6112 24.8933 20.4325 24.7146 20.2121 24.7146C19.9916 24.7146 19.8129 24.8933 19.8129 25.1137C19.8129 25.3342 19.9916 25.5129 20.2121 25.5129Z" fill="#FF9800"/>
<path id="Vector_17" d="M16.0558 24.9962C16.4966 24.9962 16.854 24.6388 16.854 24.1979C16.854 23.7571 16.4966 23.3997 16.0558 23.3997C15.6149 23.3997 15.2575 23.7571 15.2575 24.1979C15.2575 24.6388 15.6149 24.9962 16.0558 24.9962Z" fill="#FF9800"/>
</g>
</g>
<defs>
<clipPath id="clip0_8966_9088">
<rect width="30.6" height="30.6" fill="white" transform="translate(0.700012 0.699829)"/>
</clipPath>
</defs>
</svg>
