<svg width="31" height="32" viewBox="0 0 31 32" fill="none" xmlns="http://www.w3.org/2000/svg">
<g id="Frame" clip-path="url(#clip0_8966_9004)">
<g id="Group">
<path id="Vector" d="M28.0027 17.7363C28.0027 21.4183 25.6084 26.5068 22.7134 29.2865C21.4295 30.521 20.0466 31.2999 18.7302 31.2999C17.8981 31.2999 17.0682 31.1663 16.3543 30.9507C15.3772 30.6546 14.3344 30.6546 13.3574 30.9507C12.6435 31.1663 11.8137 31.2999 10.9816 31.2999C9.60241 31.2999 8.14939 30.4442 6.81375 29.1056C4.00225 26.2904 1.70905 21.3393 1.70905 17.7363C1.70905 12.4204 4.88899 9.20874 7.87913 8.43352C9.31147 8.06214 10.9734 8.30138 12.3156 8.65059C13.6988 9.01149 15.1431 9.07341 16.5521 8.83222C16.8358 8.78347 17.1173 8.72287 17.396 8.65059C18.7382 8.30138 20.3994 8.06214 21.8325 8.43352C24.8228 9.2088 28.0027 12.4205 28.0027 17.7363Z" fill="#F94848"/>
<path id="Vector_2" d="M22.7132 29.2862C19.1605 29.914 16.4241 29.7401 14.3622 29.2408C10.9953 28.4255 8.49065 25.5858 8.07325 22.1469C7.02777 13.534 12.6553 11.0265 12.6553 11.0265C14.3047 11.7759 16.1594 11.3757 16.1594 11.3757C14.9758 10.193 16.5521 8.83222 16.5521 8.83222C15.1431 9.07341 13.6989 9.01149 12.3157 8.65059C10.9734 8.30138 9.31153 8.06214 7.87919 8.43352C4.88893 9.2088 1.70905 12.4205 1.70905 17.7363C1.70905 23.0515 6.6993 31.2999 10.9815 31.2999C11.8136 31.2999 12.6435 31.1663 13.3574 30.9507C14.3344 30.6546 15.3772 30.6546 16.3543 30.9507C17.0682 31.1663 17.8981 31.2999 18.7302 31.2999C20.0466 31.2999 21.4294 30.521 22.7134 29.2865C22.7132 29.2863 22.7134 29.2865 22.7132 29.2862Z" fill="#E23D3D"/>
<path id="Vector_3" d="M29.2907 1.02885C29.2907 1.02885 28.5523 6.17563 24.6637 7.67372C20.9462 9.10606 17.6327 5.2336 16.2735 5.53853C16.213 5.55081 16.1551 5.57329 16.1022 5.60499C16.1 5.6057 16.0992 5.60648 16.0992 5.60648L16.1 5.60355C16.1457 5.46478 17.6364 1.02455 21.4646 0.733611C25.3532 0.43819 27.4692 2.21018 29.2907 1.02885Z" fill="#C7F492"/>
<path id="Vector_4" d="M29.2907 1.02885C29.2907 1.02885 26.9281 3.9083 23.6057 3.9083C20.6842 3.9083 17.0967 5.22105 16.2735 5.53853C16.1745 5.57618 16.1162 5.59979 16.1022 5.60499C16.1 5.6057 16.0992 5.60648 16.0992 5.60648L16.1 5.60355C16.1457 5.46478 17.6364 1.02455 21.4646 0.733611C25.3532 0.43819 27.4693 2.21018 29.2907 1.02885Z" fill="#A3E261"/>
<path id="Vector_5" d="M25.451 15.3193C25.3058 13.8589 24.4221 12.7511 23.4771 12.845C22.5321 12.9389 21.8836 14.199 22.0288 15.6594C22.174 17.1199 23.0577 18.2277 24.0027 18.1338C24.9477 18.0398 25.5961 16.7798 25.451 15.3193Z" fill="#FC8181"/>
<path id="Vector_6" d="M17.6097 10.6473C17.6097 11.252 16.6602 11.7556 15.3999 11.87C15.2242 11.8862 15.0426 11.8943 14.8565 11.8943C14.6623 11.8943 14.4734 11.8855 14.2909 11.8685C13.0424 11.7497 12.1041 11.2483 12.1041 10.6473H17.6097Z" fill="#E23D3D"/>
<path id="Vector_7" d="M16.959 5.54201L14.9397 8.60895C15.091 9.23063 15.2217 9.91578 15.3066 10.6474C15.3547 11.0535 15.3865 11.4614 15.4019 11.8701C15.2262 11.8863 15.0446 11.8944 14.8585 11.8944C14.6643 11.8944 14.4754 11.8856 14.2929 11.8686C14.2767 11.4492 14.2405 11.0417 14.191 10.6474C13.8293 7.78054 12.7233 5.66896 12.71 5.64535C12.5667 5.37515 12.6694 5.03992 12.9396 4.89672C13.2098 4.75275 13.545 4.85537 13.6882 5.12563C13.7208 5.18766 14.1275 5.96509 14.538 7.20547L16.0346 4.93294C16.2022 4.6775 16.5463 4.60734 16.801 4.7757C17.0565 4.94328 17.1273 5.28658 16.959 5.54201Z" fill="#B25719"/>
</g>
</g>
<defs>
<clipPath id="clip0_8966_9004">
<rect width="30.6" height="30.6" fill="white" transform="translate(0.200012 0.699829)"/>
</clipPath>
</defs>
</svg>
