<svg width="31" height="32" viewBox="0 0 31 32" fill="none" xmlns="http://www.w3.org/2000/svg">
<g id="Frame" clip-path="url(#clip0_8966_9046)">
<g id="Group">
<path id="Vector" d="M29.4327 25.2988L28.956 25.2511L28.4185 24.4138L28.3935 23.7576L28.2727 17.6086C28.2652 15.5341 28.5429 14.5579 27.8437 11.1736L26.5885 5.9461L25.7374 4.73059H13.241L12.2015 5.43517L11.6107 8.93953L12.0829 9.67195L11.32 10.6646C10.9684 12.7482 10.7917 14.8575 10.7917 16.9705L10.7542 23.9519L11.3674 24.4137L10.7493 24.8754V24.8756H10.612C10.0086 24.8756 9.51947 25.3647 9.51947 25.9681V26.6318L10.7337 27.7243H29.0523L29.9093 26.7287L29.957 26.1726C29.957 25.5693 30.036 25.2988 29.4327 25.2988Z" fill="#DE955E"/>
<path id="Vector_2" d="M14.4878 9.02623C14.5886 9.02928 14.6893 9.03657 14.7889 9.05199C15.735 9.19829 16.625 9.57571 17.4005 10.1646C17.9761 10.6018 18.4659 11.1467 18.8429 11.7601C18.8577 11.7841 18.8778 11.8045 18.9016 11.8196C18.9254 11.8347 18.9523 11.8442 18.9804 11.8474C20.4364 12.0214 21.5689 13.264 21.5689 14.7662C21.5689 15.6744 21.155 16.4877 20.5058 17.0274C20.4446 17.0782 20.4247 17.163 20.4545 17.2368C21.2694 19.2549 21.7284 21.4112 21.8006 23.594C21.8016 23.6199 21.808 23.6453 21.8194 23.6686C21.8308 23.6919 21.8469 23.7125 21.8668 23.7292C22.4229 24.2027 22.8011 24.8794 22.8855 25.6433C22.8898 25.6824 22.9062 25.7188 22.9326 25.7479C23.4091 26.2729 23.6912 26.9683 23.6912 27.7241H10.7928V13.7952L11.6116 8.93921L14.4878 9.02623Z" fill="#CB7D50"/>
<path id="Vector_3" d="M21.3176 22.4235L21.7343 22.5466H25.0214C25.0867 22.5466 25.1494 22.5206 25.1955 22.4745C25.2417 22.4283 25.2677 22.3656 25.2677 22.3003V19.9897C25.2677 19.9244 25.2417 19.8617 25.1955 19.8155C25.1494 19.7694 25.0867 19.7434 25.0214 19.7434H21.2639L20.7297 19.8665L21.3176 22.4235Z" fill="#FFE177"/>
<path id="Vector_4" d="M14.796 22.5466C14.7307 22.5466 14.6681 22.5206 14.6219 22.4745C14.5757 22.4283 14.5497 22.3656 14.5497 22.3003V19.9897C14.5497 19.9244 14.5757 19.8617 14.6219 19.8155C14.6681 19.7694 14.7307 19.7434 14.796 19.7434H21.2627C21.4907 20.6645 21.6479 21.6016 21.7331 22.5466H14.796Z" fill="#FFD15B"/>
<path id="Vector_5" d="M20.753 15.1217L21.3558 15.8588H23.4502C23.5155 15.8588 23.5782 15.8329 23.6244 15.7867C23.6705 15.7405 23.6965 15.6779 23.6965 15.6125V8.33626C23.6965 8.27094 23.6705 8.20829 23.6244 8.1621C23.5782 8.11591 23.5155 8.08997 23.4502 8.08997H16.335C16.2697 8.08997 16.207 8.11591 16.1608 8.1621C16.1146 8.20829 16.0887 8.27094 16.0887 8.33626V9.41413L16.7013 10.6461L20.753 15.1217Z" fill="#F5F8F9"/>
<path id="Vector_6" d="M16.335 15.1696C16.2697 15.1696 16.207 15.1437 16.1608 15.0975C16.1146 15.0513 16.0887 14.9886 16.0887 14.9233V9.41431C16.5563 9.60647 16.9969 9.85882 17.3992 10.165C17.9755 10.6026 18.4658 11.1484 18.843 11.7627C18.8574 11.786 18.8768 11.8057 18.8999 11.8204C18.923 11.835 18.9492 11.8442 18.9764 11.8473C20.4338 12.0201 21.5676 13.2633 21.5676 14.7664C21.5677 15.1408 21.4958 15.5117 21.3559 15.8589H18.6281L16.335 15.1696Z" fill="#E8EDF2"/>
<path id="Vector_7" d="M13.6461 10.854C13.6428 10.854 13.6309 10.8557 13.6276 10.8557C12.9166 10.182 11.0893 9.85168 11.0893 9.85168L10.2251 9.85204C9.57957 10.0063 8.9832 10.3205 8.49091 10.7657C8.44486 10.8074 8.385 10.8305 8.32291 10.8305C6.22789 10.8349 4.58672 12.4637 4.45273 14.5243C4.3078 16.7534 6.05857 18.697 8.29135 18.7626C9.39517 18.795 10.4011 18.3762 11.1388 17.6772L11.1487 17.6773L11.1587 17.6772C11.9101 18.3892 12.9397 18.8104 14.0676 18.7603C16.1021 18.6699 17.2667 17.029 17.3615 14.9948C17.4676 12.7176 15.8999 10.854 13.6461 10.854Z" fill="#FFE177"/>
<g id="Group_2">
<path id="Vector_8" d="M9.31094 17.6772L9.30095 17.6773L9.29097 17.6772C8.78619 18.156 8.16412 18.4934 7.48743 18.6553C7.78964 18.7276 8.09929 18.7642 8.41003 18.7643C9.06398 18.7643 9.68071 18.6057 10.2245 18.3254C9.89093 18.1535 9.58335 17.9353 9.31094 17.6772ZM13.9754 10.8305C13.9127 10.8308 13.8522 10.8076 13.8057 10.7656C13.1023 10.1304 12.1704 9.74353 11.148 9.74353C10.8299 9.74353 10.5208 9.7813 10.2244 9.85201C10.8711 10.0066 11.4685 10.3216 11.9614 10.768C12.0083 10.8106 12.0697 10.8339 12.1331 10.8331C14.3462 10.809 16.0058 12.5918 16.0058 14.7974C16.0058 16.6704 14.7072 18.2392 12.9615 18.6552C13.2644 18.7277 13.5746 18.7643 13.886 18.7643C16.0768 18.7643 17.8529 16.9882 17.8529 14.7974C17.8529 12.6022 16.1726 10.8235 13.9754 10.8305Z" fill="#FFD15B"/>
</g>
<path id="Vector_9" d="M23.1452 28.5161L23.6908 28.8167H29.9624C30.5658 28.8167 31.0549 28.3276 31.0549 27.7242C31.0549 27.1208 30.5658 26.6317 29.9624 26.6317H23.4829L23.1532 26.943L23.1452 28.5161Z" fill="#CB7D50"/>
<path id="Vector_10" d="M23.4814 26.6317C23.6193 26.9794 23.6898 27.3502 23.6893 27.7242V28.8167H20.5381L19.7991 26.6317H23.4814Z" fill="#C07149"/>
<path id="Vector_11" d="M20.6582 26.0136C20.6582 25.4103 20.4512 25.1318 19.8478 25.1318L19.3469 24.3268L19.3235 23.8924C19.2804 21.0443 18.4933 18.658 17.0725 16.1916L16.5826 15.4257H4.82077L4.56903 15.8482C3.14781 18.3156 2.37939 21.1047 2.33643 23.9518L2.95028 24.4136L2.33458 24.8755H2.3344C1.731 24.8755 1.24188 25.3646 1.24188 25.968C1.24187 26.1668 1.29799 26.3616 1.40379 26.5299C1.50958 26.6983 1.66075 26.8333 1.8399 26.9195L2.33452 27.1576H19.9624C20.3282 26.9816 20.6582 26.4194 20.6582 26.0136Z" fill="#F4B887"/>
<path id="Vector_12" d="M16.2595 22.5466H6.03536C5.97004 22.5466 5.90739 22.5206 5.8612 22.4745C5.81501 22.4283 5.78906 22.3656 5.78906 22.3003V19.9897C5.78906 19.9244 5.81501 19.8617 5.8612 19.8155C5.90739 19.7694 5.97004 19.7434 6.03536 19.7434H16.2595C16.3248 19.7434 16.3874 19.7694 16.4336 19.8155C16.4798 19.8617 16.5058 19.9244 16.5058 19.9897V22.3003C16.5058 22.3656 16.4798 22.4283 16.4336 22.4745C16.3874 22.5206 16.3248 22.5466 16.2595 22.5466Z" fill="#F5F8F9"/>
<g id="Group_3">
<path id="Vector_13" d="M18.386 26.6318H19.5018L20.042 26.7366L20.3925 27.533L20.5386 28.8168H1.54643C0.94304 28.8168 0.453918 28.3276 0.453918 27.7242C0.453918 27.1209 0.94304 26.6317 1.54643 26.6317H18.386V26.6318ZM16.2369 15.7357L15.8562 15.8589H3.66871C3.06532 15.8589 2.5762 15.3697 2.5762 14.7663C2.5762 14.1629 3.06532 13.6738 3.66871 13.6738H15.8562L16.1416 13.7969L16.2369 15.7357ZM5.25591 24.4137C5.25584 24.5361 5.20717 24.6535 5.12059 24.7401C5.03401 24.8267 4.9166 24.8753 4.79416 24.8754H2.33444V24.2037C2.33444 24.12 2.33504 24.0356 2.3363 23.9519H4.79416C4.92158 23.9519 5.03675 24.0036 5.12048 24.0873C5.1635 24.1301 5.19762 24.1809 5.22087 24.2369C5.24412 24.2929 5.25602 24.353 5.25591 24.4137ZM17.5341 23.9519C17.4116 23.952 17.2942 24.0006 17.2076 24.0872C17.1211 24.1738 17.0724 24.2912 17.0723 24.4137C17.0723 24.5411 17.124 24.6568 17.2078 24.74C17.2505 24.783 17.3014 24.817 17.3574 24.8403C17.4134 24.8635 17.4735 24.8755 17.5341 24.8754H19.5143V23.9518H17.5341V23.9519Z" fill="#EAA978"/>
</g>
<path id="Vector_14" d="M26.1476 24.4137C26.1476 24.5362 26.1963 24.6536 26.2829 24.7402C26.3695 24.8268 26.4869 24.8754 26.6093 24.8755H29.037L29.0321 23.9519H26.6093C26.5487 23.9518 26.4886 23.9638 26.4326 23.987C26.3766 24.0103 26.3258 24.0444 26.283 24.0873C26.24 24.1301 26.2059 24.1809 26.1826 24.237C26.1594 24.293 26.1475 24.3531 26.1476 24.4137Z" fill="#CB7D50"/>
<path id="Vector_15" d="M29.174 24.8757H29.0367V24.8755L29.0318 23.9519L28.9943 16.9706C28.9943 14.8576 28.8176 12.7482 28.466 10.6647L27.5845 5.43517L26.545 4.73059L25.7375 5.43517L26.619 10.6647C26.9705 12.7482 27.1472 14.8576 27.1472 16.9706L27.1848 23.9519L27.1897 24.8755V24.8757H27.327C27.9303 24.8757 28.4195 25.3648 28.4195 25.9682V26.6319L27.2053 27.7244H29.0523L30.2665 26.6319V25.9682C30.2665 25.3648 29.7774 24.8757 29.174 24.8757Z" fill="#CB7D50"/>
<path id="Vector_16" d="M29.0363 24.8756H27.1893L27.1843 23.9521H29.0314L29.0363 24.8756Z" fill="#C07149"/>
<path id="Vector_17" d="M21.0548 25.9682C21.0548 26.3739 20.8227 26.7434 20.457 26.9194L19.9626 27.1577H19.8118C19.6307 26.861 19.1831 27.1996 19.1831 27.1996V25.9682C19.1831 25.6665 19.0612 25.3931 18.863 25.1955C18.6685 25.0004 18.4074 24.8862 18.1322 24.8759L18.0891 23.9518C18.0462 21.1046 17.2779 18.3154 15.8566 15.848L15.6047 15.4257H17.4765L17.7283 15.848C19.1496 18.3154 19.918 21.1046 19.9608 23.9518C19.5753 24.1703 19.4406 24.7049 19.9626 24.8753C20.5659 24.8753 21.0548 25.3648 21.0548 25.9682Z" fill="#EAA978"/>
<path id="Vector_18" d="M19.9636 24.2038V24.8755H18.1331L18.09 23.9519H19.9618C19.963 24.0357 19.9636 24.12 19.9636 24.2038Z" fill="#DE955E"/>
<path id="Vector_19" d="M9.37111 12.459C9.62613 12.459 9.83286 12.2523 9.83286 11.9973C9.83286 11.7423 9.62613 11.5355 9.37111 11.5355C9.11609 11.5355 8.90936 11.7423 8.90936 11.9973C8.90936 12.2523 9.11609 12.459 9.37111 12.459Z" fill="#FFD15B"/>
<path id="Vector_20" d="M20.7499 26.6317H19.1816C19.785 26.6317 20.2713 27.1208 20.2713 27.7242V28.8167H20.7498C21.3532 28.8167 21.8423 28.3276 21.8423 27.7242C21.8424 27.1208 21.3533 26.6317 20.7499 26.6317Z" fill="#DE955E"/>
<path id="Vector_21" d="M29.9622 26.6318H28.4197C29.0231 26.6318 29.4837 27.121 29.4837 27.7244V28.8169H29.9622C30.5656 28.8169 31.0547 28.3277 31.0547 27.7244C31.0547 27.121 30.5656 26.6318 29.9622 26.6318Z" fill="#C07149"/>
<path id="Vector_22" d="M11.1483 11.5697C11.4033 11.5697 11.61 11.363 11.61 11.108C11.61 10.853 11.4033 10.6462 11.1483 10.6462C10.8933 10.6462 10.6865 10.853 10.6865 11.108C10.6865 11.363 10.8933 11.5697 11.1483 11.5697Z" fill="#FFD15B"/>
<path id="Vector_23" d="M12.9274 12.4588C13.1824 12.4588 13.3891 12.252 13.3891 11.997C13.3891 11.742 13.1824 11.5353 12.9274 11.5353C12.6724 11.5353 12.4656 11.742 12.4656 11.997C12.4656 12.252 12.6724 12.4588 12.9274 12.4588Z" fill="#FFD15B"/>
<path id="Vector_24" d="M18.6296 15.8589C19.233 15.8589 19.7221 15.3697 19.7221 14.7663C19.7221 14.1629 19.233 13.6738 18.6296 13.6738H15.8579V15.8589H18.6296Z" fill="#DE955E"/>
<path id="Vector_25" d="M25.9731 3.37324L25.7376 3.25012H12.0613C11.4579 3.25012 10.9688 3.73924 10.9688 4.34264C10.9688 4.94603 11.4579 5.43515 12.0613 5.43515H25.7376L25.9611 5.31204L25.9731 3.37324Z" fill="#CB7D50"/>
<path id="Vector_26" d="M28.8174 4.34264C28.8174 3.73924 28.3283 3.25012 27.7249 3.25012H25.7375V5.43515H27.7249C28.3283 5.43515 28.8174 4.94603 28.8174 4.34264Z" fill="#C07149"/>
</g>
</g>
<defs>
<clipPath id="clip0_8966_9046">
<rect width="30.6" height="30.6" fill="white" transform="translate(0.200012 0.699829)"/>
</clipPath>
</defs>
</svg>
