<svg width="32" height="32" viewBox="0 0 32 32" fill="none" xmlns="http://www.w3.org/2000/svg">
<g id="Frame" clip-path="url(#clip0_8966_9025)">
<g id="Group">
<path id="Vector" d="M30.5703 7.50531C31.5442 6.53141 31.5442 4.9524 30.5703 3.97849C30.0692 3.47738 29.4079 3.23486 28.7513 3.24939C28.7659 2.59275 28.5233 1.93143 28.0222 1.43038C27.0483 0.456475 25.4693 0.456475 24.4954 1.43038C23.546 2.37978 23.5226 3.90399 24.4242 4.88233L17.0749 12.2317L19.769 14.9258L27.1183 7.57642C28.0966 8.47817 29.6208 8.45477 30.5703 7.50531Z" fill="#F9EED7"/>
<path id="Vector_2" d="M21.5803 18.0589C21.4597 16.5832 21.987 15.1284 23.0339 14.0815L23.4734 13.642C23.6618 13.4536 23.9262 13.3664 24.1911 13.3962C24.4517 13.4254 24.7794 13.4141 24.9682 13.2252C25.3169 12.8766 25.3169 12.3113 24.9682 11.9626L20.7668 7.76126C20.4181 7.41259 19.8529 7.41259 19.5042 7.76126C19.3129 7.95261 19.2678 8.25043 19.2661 8.48026C19.2644 8.70949 19.1757 8.92923 19.0136 9.09128L18.4278 9.67711C17.4003 10.7046 15.9785 11.2356 14.5288 11.1367C10.8882 10.8884 6.66052 12.5211 4.21363 14.968C0.47249 18.7092 0.47249 24.7748 4.21363 28.5159C7.95477 32.2571 14.0204 32.2571 17.7616 28.5159C20.2405 26.0368 21.8807 21.733 21.5803 18.0589Z" fill="#AE6834"/>
<path id="Vector_3" d="M30.5687 3.97852C30.0676 3.4774 29.4063 3.23488 28.7497 3.24947C28.7643 2.59284 28.5217 1.93152 28.0206 1.43041C27.2942 0.703949 26.2312 0.519671 25.3337 0.876959C25.6484 1.00228 25.9342 1.19061 26.1735 1.43041C26.6747 1.93152 26.9172 2.59277 26.9027 3.24947C27.5593 3.23488 28.2206 3.47747 28.7217 3.97852C29.6956 4.95242 29.6956 6.53143 28.7217 7.50534C28.4825 7.74486 28.1969 7.93299 27.8825 8.05817C28.7798 8.41539 29.8424 8.23173 30.5687 7.50534C31.5426 6.53137 31.5426 4.95242 30.5687 3.97852Z" fill="#E9E0C3"/>
<path id="Vector_4" d="M24.26 11.941L20.0586 7.73965C19.71 7.39098 19.1447 7.39098 18.796 7.73965C18.6904 7.8453 18.6303 7.98346 18.5966 8.12464L21.7751 11.3031C22.1343 11.6622 22.1524 12.2387 21.8162 12.6195C21.445 13.0401 21.0196 13.519 20.9181 13.6205L20.4787 14.0599C19.4317 15.1069 18.9045 16.5617 19.0251 18.0374C19.3255 21.7114 17.6853 26.0152 15.2062 28.4943C13.5708 30.1297 11.4912 31.0502 9.35577 31.2558C12.1053 31.5205 14.9475 30.6001 17.0532 28.4943C19.5324 26.0152 21.1725 21.7114 20.8722 18.0374C20.7516 16.5617 21.2789 15.1069 22.3257 14.0599L22.7652 13.6205C22.9536 13.4321 23.2181 13.3449 23.4829 13.3746C23.7436 13.4039 24.0712 13.3925 24.26 13.2037C24.6087 12.855 24.6087 12.2897 24.26 11.941Z" fill="#9E5B29"/>
<g id="Group_2">
<path id="Vector_5" d="M10.8528 27.618C11.1078 27.618 11.3145 27.4113 11.3145 27.1562C11.3145 26.9012 11.1078 26.6945 10.8528 26.6945C10.5977 26.6945 10.391 26.9012 10.391 27.1562C10.391 27.4113 10.5977 27.618 10.8528 27.618Z" fill="#9E5B29"/>
<path id="Vector_6" d="M9.25486 25.659C9.50989 25.659 9.71663 25.4523 9.71663 25.1972C9.71663 24.9422 9.50989 24.7355 9.25486 24.7355C8.99983 24.7355 8.79309 24.9422 8.79309 25.1972C8.79309 25.4523 8.99983 25.659 9.25486 25.659Z" fill="#9E5B29"/>
<path id="Vector_7" d="M7.86698 27.618C8.12201 27.618 8.32875 27.4113 8.32875 27.1562C8.32875 26.9012 8.12201 26.6945 7.86698 26.6945C7.61195 26.6945 7.40521 26.9012 7.40521 27.1562C7.40521 27.4113 7.61195 27.618 7.86698 27.618Z" fill="#9E5B29"/>
</g>
</g>
</g>
<defs>
<clipPath id="clip0_8966_9025">
<rect width="30.6" height="30.6" fill="white" transform="translate(0.700012 0.699951)"/>
</clipPath>
</defs>
</svg>
