<svg width="32" height="32" viewBox="0 0 32 32" fill="none" xmlns="http://www.w3.org/2000/svg">
<g id="Frame" clip-path="url(#clip0_8966_8973)">
<g id="Group">
<path id="Vector" d="M21.4153 1.58394C22.3025 0.526689 23.8858 0.398253 24.9322 1.30651C25.9566 2.19564 26.0507 3.75588 25.1788 4.79497L19.4447 11.6286L18.3225 10.6869L20.4272 8.1786C20.724 7.82491 20.7009 7.30758 20.3822 6.97349L20.3677 6.95819C19.7208 6.26628 19.6384 5.19982 20.1722 4.41731C20.3692 4.12852 20.6234 3.90883 20.907 3.75869C20.728 3.02065 20.8898 2.21035 21.4153 1.58394Z" fill="#8DC637"/>
<path id="Vector_2" d="M25.1798 4.79482L19.4457 11.6284L18.5361 10.8652L23.8856 4.48977C24.7574 3.45081 24.6633 1.89069 23.6392 1.00119C23.5074 0.886823 23.3641 0.786511 23.2115 0.701889C23.8185 0.677146 24.4363 0.875149 24.9333 1.30624C25.9575 2.19573 26.0516 3.75585 25.1798 4.79482Z" fill="#82B732"/>
<path id="Vector_3" d="M27.8444 9.05042C28.7009 8.02962 28.5576 6.50255 27.5185 5.6598C26.5014 4.83485 25.0019 5.00698 24.1601 6.01026L17.8709 13.5054L18.9545 14.4146L21.7394 11.0957C22.026 10.7541 22.5218 10.6894 22.8929 10.9364L22.9099 10.9476C23.6762 11.4467 24.7042 11.3463 25.3587 10.7075C25.6003 10.4718 25.7666 10.1932 25.8618 9.89843C26.5935 9.94481 27.3369 9.65513 27.8444 9.05042Z" fill="#99D53B"/>
<path id="Vector_4" d="M27.8446 9.05098C27.3372 9.65557 26.5935 9.94561 25.8621 9.89881C25.7666 10.1938 25.6004 10.472 25.359 10.7079C24.7039 11.3469 23.6763 11.4473 22.9097 10.948L22.8931 10.9369C22.5219 10.69 22.0262 10.7547 21.7393 11.0964L18.9545 14.415L17.8709 13.5063L21.0953 9.66369C21.3299 9.60273 21.5885 9.64092 21.8046 9.78436L21.8212 9.79542C22.5878 10.2948 23.616 10.1938 24.2705 9.55528C24.4108 9.41861 24.5301 9.26201 24.6247 9.09054C24.7346 8.89098 24.9406 8.76177 25.1672 8.73882C25.7644 8.6784 26.3398 8.39445 26.756 7.89786C27.3619 7.17625 27.4672 6.20099 27.1094 5.3938C27.255 5.46787 27.3922 5.55725 27.5189 5.66041C28.5575 6.50329 28.701 8.03018 27.8446 9.05098Z" fill="#8DC637"/>
<path id="Vector_5" d="M17.8709 13.5056L18.9545 14.4148L23.7467 8.70364C23.9978 8.40439 23.9588 7.9583 23.6595 7.70723C23.3603 7.45615 22.9142 7.49518 22.6631 7.79443L17.8709 13.5056Z" fill="#BCEA73"/>
<path id="Vector_6" d="M25.5661 7.39152C25.47 7.39147 25.3763 7.36147 25.2981 7.30569C25.2198 7.24992 25.1609 7.17114 25.1295 7.08032C25.1097 7.023 25.1014 6.96234 25.1051 6.90181C25.1087 6.84128 25.1243 6.78206 25.1508 6.72754C25.1774 6.67301 25.2144 6.62425 25.2598 6.58404C25.3052 6.54383 25.3581 6.51296 25.4154 6.49318L25.605 6.42774C25.6623 6.40795 25.7229 6.39965 25.7835 6.40331C25.844 6.40696 25.9032 6.4225 25.9577 6.44904C26.0122 6.47558 26.061 6.5126 26.1012 6.55798C26.1414 6.60336 26.1723 6.65622 26.1921 6.71354C26.2119 6.77086 26.2202 6.83151 26.2165 6.89204C26.2129 6.95256 26.1973 7.01178 26.1708 7.0663C26.1443 7.12082 26.1072 7.16958 26.0619 7.20979C26.0165 7.25001 25.9636 7.28089 25.9063 7.30068L25.7167 7.36612C25.6683 7.3829 25.6173 7.39149 25.5661 7.39152Z" fill="#82B732"/>
<path id="Vector_7" d="M23.4613 6.84121C23.931 6.24284 23.8231 5.36512 23.1975 4.90241C22.6501 4.4975 21.8714 4.56587 21.4019 5.059L21.3926 5.0688C21.2375 5.23501 20.9934 5.28993 20.7913 5.1857C19.9129 4.73268 18.8078 4.92955 18.1459 5.71845C17.5055 6.48166 17.4829 7.55708 18.0239 8.3384C17.8177 8.86798 17.9585 9.492 18.4181 9.87754L18.4215 9.88041C18.5992 10.029 18.6227 10.2958 18.4738 10.4732L16.7313 12.55L17.8705 13.5059L23.4621 6.84193L23.4613 6.84121Z" fill="#A3E440"/>
<path id="Vector_8" d="M20.3419 8.22201L18.6106 10.2858C18.5902 10.3099 18.5687 10.3314 18.5447 10.3505C18.5752 10.2689 18.5797 10.1799 18.5576 10.0956C18.5354 10.0114 18.4877 9.93607 18.4209 9.88008L18.4172 9.87764C18.2825 9.76461 18.1709 9.62663 18.0884 9.47129L19.6345 7.62853C19.7527 7.48755 19.8093 7.30897 19.7933 7.12549C19.7773 6.94201 19.6905 6.7758 19.5495 6.65758C19.3543 6.49382 19.3291 6.20259 19.4929 6.00739C19.6566 5.8116 19.9479 5.78638 20.1437 5.95014C20.473 6.22721 20.6756 6.61569 20.7132 7.04486C20.7508 7.47398 20.619 7.89198 20.3419 8.22201Z" fill="#99D53B"/>
<path id="Vector_9" d="M16.7313 12.5496L17.8705 13.5055L21.3064 9.41071C21.5704 9.09616 21.5293 8.62712 21.2148 8.36319C20.9002 8.09921 20.4312 8.14027 20.1672 8.45482L16.7313 12.5496Z" fill="#DBF2B4"/>
<path id="Vector_10" d="M3.63056 30.4108C3.52845 29.4139 3.66526 28.407 4.02967 27.4734C5.69391 23.2074 10.8137 10.978 15.0514 10.3199C17.1299 9.99706 21.4536 13.6251 21.4967 15.7281C21.585 20.0459 9.31511 28.423 5.15452 31.138C4.5344 31.5426 3.70604 31.1475 3.63056 30.4108Z" fill="#FCA62F"/>
<path id="Vector_11" d="M5.1541 31.1382C4.53409 31.5428 3.70568 31.1473 3.63044 30.4108C3.60378 30.1538 3.59374 29.8961 3.59912 29.6393C3.66546 29.6139 3.7312 29.5812 3.79407 29.5399C7.95448 26.8253 20.2242 18.448 20.1357 14.1301C20.1262 13.6659 19.9083 13.1276 19.5519 12.5732C20.6511 13.6133 21.4777 14.8145 21.4966 15.7283C21.5846 20.0458 9.31492 28.4231 5.1541 31.1382Z" fill="#FB9927"/>
<path id="Vector_12" d="M16.4567 15.1182C16.4134 15.17 16.3592 15.2116 16.298 15.2401C16.2368 15.2686 16.1701 15.2833 16.1026 15.2832C15.9941 15.2834 15.889 15.2452 15.8059 15.1754L12.2305 12.1635C12.4509 11.927 12.6708 11.7091 12.8912 11.5127L16.4 14.468C16.5952 14.6317 16.6204 14.923 16.4567 15.1182Z" fill="#FCC16D"/>
<path id="Vector_13" d="M16.3693 17.955C16.2608 17.9551 16.1557 17.9168 16.0727 17.847L13.404 15.6077C13.3576 15.5687 13.3192 15.5209 13.2912 15.4671C13.2632 15.4134 13.2461 15.3546 13.2408 15.2942C13.2355 15.2338 13.2422 15.1729 13.2605 15.1151C13.2787 15.0572 13.3081 15.0036 13.3471 14.9571C13.3861 14.9106 13.4338 14.8723 13.4876 14.8443C13.5414 14.8163 13.6002 14.7992 13.6606 14.7939C13.721 14.7886 13.7819 14.7953 13.8397 14.8135C13.8976 14.8318 13.9512 14.8612 13.9977 14.9002L16.6663 17.1395C16.7128 17.1785 16.7511 17.2262 16.7791 17.28C16.8071 17.3338 16.8242 17.3926 16.8295 17.453C16.8348 17.5134 16.8281 17.5743 16.8099 17.6321C16.7917 17.6899 16.7622 17.7436 16.7232 17.7901C16.6799 17.8418 16.6258 17.8834 16.5646 17.9119C16.5034 17.9404 16.4368 17.9551 16.3693 17.955Z" fill="#FB9927"/>
<path id="Vector_14" d="M16.9847 22.2304C16.7561 22.4412 16.5254 22.6497 16.2927 22.856L12.6071 19.7769C12.5607 19.7379 12.5223 19.6901 12.4943 19.6363C12.4663 19.5825 12.4492 19.5237 12.4439 19.4632C12.4387 19.4028 12.4454 19.3419 12.4637 19.2841C12.4819 19.2262 12.5114 19.1726 12.5505 19.1261C12.7142 18.9309 13.0055 18.9057 13.2007 19.0695L16.9847 22.2304Z" fill="#F98824"/>
<path id="Vector_15" d="M10.9425 23.8649C10.8992 23.9167 10.845 23.9583 10.7838 23.9868C10.7226 24.0153 10.6559 24.03 10.5884 24.0299C10.4799 24.0301 10.3748 23.9919 10.2917 23.9221L6.80933 21.0143C6.94416 20.7298 7.0821 20.4435 7.22308 20.1566L10.8858 23.2148C11.081 23.3785 11.1062 23.6698 10.9425 23.8649Z" fill="#FB9927"/>
<path id="Vector_16" d="M9.31288 25.5512C9.20436 25.5513 9.09929 25.513 9.01626 25.4431L7.46385 24.1405C7.37141 24.0614 7.31394 23.9489 7.30393 23.8277C7.29393 23.7064 7.33219 23.5861 7.41041 23.4929C7.48863 23.3996 7.60048 23.3411 7.72165 23.3298C7.84282 23.3186 7.96352 23.3557 8.0575 23.433L9.60992 24.7356C9.65637 24.7746 9.69469 24.8223 9.72269 24.8761C9.75069 24.9299 9.76782 24.9887 9.7731 25.0491C9.77839 25.1095 9.77172 25.1704 9.75348 25.2282C9.73524 25.286 9.70579 25.3397 9.66681 25.3861C9.62351 25.4379 9.56936 25.4795 9.5082 25.508C9.44704 25.5365 9.38036 25.5513 9.31288 25.5512Z" fill="#FCB44D"/>
<g id="Group_2">
<path id="Vector_17" d="M13.2378 22.5281C13.1293 22.5282 13.0242 22.4899 12.9412 22.42L12.6595 22.1836C12.613 22.1446 12.5747 22.0969 12.5467 22.0431C12.5187 21.9893 12.5015 21.9305 12.4963 21.8701C12.491 21.8097 12.4976 21.7488 12.5159 21.691C12.5341 21.6332 12.5636 21.5795 12.6026 21.533C12.6415 21.4866 12.6893 21.4482 12.7431 21.4202C12.7969 21.3922 12.8556 21.3751 12.916 21.3698C12.9765 21.3645 13.0373 21.3712 13.0951 21.3894C13.153 21.4077 13.2067 21.4371 13.2531 21.4761L13.5348 21.7126C13.5813 21.7515 13.6196 21.7993 13.6476 21.8531C13.6756 21.9069 13.6927 21.9656 13.698 22.0261C13.7033 22.0865 13.6966 22.1473 13.6784 22.2052C13.6602 22.263 13.6307 22.3167 13.5917 22.3631C13.5484 22.4149 13.4943 22.4565 13.4331 22.485C13.372 22.5135 13.3053 22.5282 13.2378 22.5281ZM17.9893 16.8655C17.8808 16.8656 17.7758 16.8273 17.6927 16.7574L17.411 16.521C17.3645 16.482 17.3262 16.4342 17.2982 16.3804C17.2702 16.3267 17.2531 16.2679 17.2478 16.2075C17.2425 16.1471 17.2492 16.0862 17.2674 16.0284C17.2857 15.9705 17.3151 15.9169 17.3541 15.8704C17.3931 15.824 17.4408 15.7856 17.4946 15.7576C17.5484 15.7296 17.6072 15.7125 17.6676 15.7072C17.728 15.7019 17.7889 15.7086 17.8467 15.7268C17.9045 15.7451 17.9582 15.7745 18.0046 15.8135L18.2864 16.0499C18.359 16.1109 18.4111 16.1927 18.4356 16.2842C18.4602 16.3758 18.4559 16.4727 18.4235 16.5617C18.391 16.6508 18.332 16.7277 18.2543 16.7821C18.1766 16.8364 18.0841 16.8655 17.9893 16.8655Z" fill="#F98824"/>
</g>
</g>
</g>
<defs>
<clipPath id="clip0_8966_8973">
<rect width="30.6" height="30.6" fill="white" transform="translate(0.700012 0.699829)"/>
</clipPath>
</defs>
</svg>
