<svg width="32" height="32" viewBox="0 0 32 32" fill="none" xmlns="http://www.w3.org/2000/svg">
<g id="Frame" clip-path="url(#clip0_8974_1137)">
<g id="Group">
<path id="Vector" d="M26.6104 24.9767C26.5268 25.1439 26.4433 25.311 26.3597 25.4642C25.5147 27.0728 24.2807 28.4444 22.77 29.454C21.2592 30.4636 19.5199 31.0791 17.7104 31.2444C16.9508 31.3186 16.1858 31.3186 15.4262 31.2444C13.524 31.0699 11.7008 30.3992 10.139 29.2993C8.57722 28.1995 7.33144 26.7089 6.52619 24.9767C5.65048 23.1449 5.26338 21.1178 5.40248 19.0922C5.54159 17.0666 6.20218 15.1114 7.32009 13.4165L10.05 9.33557L15.4123 1.28516C15.5456 1.10379 15.7196 0.956318 15.9205 0.854676C16.1213 0.753035 16.3432 0.700073 16.5683 0.700073C16.7934 0.700073 17.0153 0.753035 17.2161 0.854676C17.417 0.956318 17.591 1.10379 17.7243 1.28516L25.8165 13.4165C26.9344 15.1114 27.595 17.0666 27.7341 19.0922C27.8732 21.1178 27.4861 23.1449 26.6104 24.9767Z" fill="#4294FF"/>
<path id="Vector_2" d="M26.3597 25.464C25.5147 27.0726 24.2807 28.4442 22.77 29.4538C21.2592 30.4633 19.5199 31.0788 17.7104 31.2441C16.9508 31.3184 16.1858 31.3184 15.4262 31.2441C13.524 31.0696 11.7008 30.399 10.139 29.2991C8.57722 28.1992 7.33144 26.7087 6.52619 24.9765C5.65048 23.1447 5.26338 21.1175 5.40248 19.0919C5.54159 17.0663 6.20218 15.1111 7.32009 13.4162L10.05 9.33533C12.7381 16.3551 17.6129 22.9987 26.3597 25.464Z" fill="#2965ED"/>
</g>
</g>
<defs>
<clipPath id="clip0_8974_1137">
<rect width="30.6" height="30.6" fill="white" transform="translate(0.700012 0.699829)"/>
</clipPath>
</defs>
</svg>
