<svg width="24" height="24" viewBox="0 0 24 24" fill="none" xmlns="http://www.w3.org/2000/svg">
<g id="Frame" clip-path="url(#clip0_8966_12214)">
<g id="Group">
<g id="Group_2">
<path id="Vector" d="M18.2069 3.3103V20.6896C18.2069 22.5186 14.131 24 9.10345 24C4.07586 24 0 22.5186 0 20.6896V3.3103H18.2069Z" fill="#F0C419"/>
<path id="Vector_2" d="M9.10345 6.62069C14.1311 6.62069 18.2069 5.1386 18.2069 3.31034C18.2069 1.48209 14.1311 0 9.10345 0C4.07575 0 0 1.48209 0 3.31034C0 5.1386 4.07575 6.62069 9.10345 6.62069Z" fill="#95A5A5"/>
<path id="Vector_3" d="M4.34462 4.13803C5.88721 4.13803 7.13772 3.58225 7.13772 2.89665C7.13772 2.21106 5.88721 1.65527 4.34462 1.65527C2.80203 1.65527 1.55151 2.21106 1.55151 2.89665C1.55151 3.58225 2.80203 4.13803 4.34462 4.13803Z" fill="#547580"/>
<path id="Vector_4" d="M8.68976 3.31001H6.20701C6.09726 3.31001 5.99201 3.26641 5.91441 3.18881C5.83681 3.11121 5.79321 3.00596 5.79321 2.89621C5.79321 2.78647 5.83681 2.68122 5.91441 2.60362C5.99201 2.52602 6.09726 2.48242 6.20701 2.48242H8.68976C8.79951 2.48242 8.90476 2.52602 8.98236 2.60362C9.05996 2.68122 9.10356 2.78647 9.10356 2.89621C9.10356 3.00596 9.05996 3.11121 8.98236 3.18881C8.90476 3.26641 8.79951 3.31001 8.68976 3.31001Z" fill="#547580"/>
<path id="Vector_5" d="M0 7.44824C0 8.86341 2.43724 10.0676 5.86345 10.5393C6.21549 9.99365 6.69367 9.54075 7.25759 9.21882C7.82151 8.89688 8.45462 8.71538 9.10345 8.68962C9.75228 8.71538 10.3854 8.89688 10.9493 9.21882C11.5132 9.54075 11.9914 9.99365 12.3434 10.5393C15.7697 10.0676 18.2069 8.86341 18.2069 7.44824V15.7241C18.2069 17.0938 15.9186 18.2689 12.6579 18.7738C11.8221 20.1931 10.5434 21.1034 9.10345 21.1034C7.66345 21.1034 6.38483 20.1931 5.54897 18.7738C2.28828 18.2689 0 17.0938 0 15.7241V7.44824Z" fill="#F29C1F"/>
<path id="Vector_6" d="M21.1032 12.4142L22.8411 8.19346C22.8713 8.12145 22.8806 8.04233 22.8678 7.96527C22.855 7.88821 22.8206 7.81635 22.7687 7.758C22.7167 7.69965 22.6493 7.6572 22.5743 7.63555C22.4992 7.6139 22.4196 7.61394 22.3445 7.63567L20.2756 8.27622V5.37967C20.2756 5.29198 20.2477 5.20655 20.196 5.13571C20.1444 5.06487 20.0715 5.01229 19.988 4.98554C19.9045 4.95879 19.8146 4.95927 19.7314 4.98689C19.6482 5.01452 19.5759 5.06788 19.5249 5.13926L18.2066 7.03484L16.8883 5.14008C16.8374 5.06876 16.7651 5.01543 16.682 4.98779C16.5988 4.96014 16.5091 4.9596 16.4256 4.98624C16.3421 5.01288 16.2693 5.06533 16.2175 5.13604C16.1658 5.20674 16.1378 5.29205 16.1376 5.37967V8.27622L14.0687 7.63567C13.9936 7.61394 13.914 7.6139 13.8389 7.63555C13.7639 7.6572 13.6965 7.69965 13.6445 7.758C13.5926 7.81635 13.5582 7.88821 13.5454 7.96527C13.5326 8.04233 13.5418 8.12145 13.5721 8.19346L15.31 12.4142L18.2066 13.6555L21.1032 12.4142Z" fill="#24AE5F"/>
<path id="Vector_7" d="M23.9957 19.163C24.0044 19.4902 23.9947 19.8176 23.9667 20.1437C23.9444 20.4168 23.9088 20.6891 23.8591 20.9589L23.8467 21.0085C23.6644 21.9417 23.1275 22.7678 22.3488 23.3134C22.0705 23.5126 21.7654 23.6714 21.4426 23.7851C21.0412 23.9283 20.6191 24.0007 20.1929 24.0003H16.1916C15.3329 24.0008 14.5005 23.7045 13.8354 23.1615C13.1702 22.6186 12.7133 21.8623 12.5419 21.021L12.5295 20.9589C12.48 20.6933 12.4441 20.4254 12.4219 20.1561C12.3918 19.8205 12.3821 19.4833 12.3929 19.1465C12.4012 18.8477 12.4248 18.5494 12.4633 18.2527C12.4798 18.1244 12.5005 17.9961 12.5212 17.8679C12.5883 17.4872 12.6797 17.1114 12.7943 16.7423C12.9143 16.3447 13.0596 15.9549 13.2288 15.5754C13.7 14.504 14.3336 13.5116 15.1074 12.6334C15.2316 12.4885 15.3102 12.4141 15.3102 12.4141H21.0785C21.0785 12.4141 21.1571 12.4927 21.2895 12.6416C22.0603 13.5213 22.6924 14.5134 23.164 15.5837C23.3283 15.9538 23.4693 16.3339 23.586 16.7216C23.7019 17.0908 23.7946 17.4665 23.8633 17.8472C23.8881 17.9837 23.9088 18.1244 23.9254 18.2651C23.9638 18.563 23.9874 18.8626 23.9957 19.163Z" fill="#D25627"/>
<path id="Vector_8" d="M23.9963 19.163C23.9881 18.8627 23.9646 18.563 23.926 18.2651L22.1177 19.192L19.1177 17.6568L21.497 16.4361L23.8639 17.8472C23.7952 17.4665 23.7025 17.0908 23.5867 16.7216L22.366 15.9934L23.1646 15.5837C23.0487 15.323 22.9287 15.0706 22.8046 14.8389L21.526 15.4927L19.0184 13.9989L21.2901 12.6416C21.1577 12.4927 21.0791 12.4141 21.0791 12.4141H20.057L18.2073 13.5148L16.3577 12.4141H15.3108C15.3108 12.4141 15.2322 12.4885 15.108 12.6334L17.4005 13.9989L14.8887 15.4927L13.5894 14.8306C13.4653 15.0623 13.3453 15.3148 13.2294 15.5754L14.0529 15.9934L12.7949 16.7423C12.6802 17.1114 12.589 17.4873 12.5218 17.8679L14.9218 16.4403L17.3011 17.6568L14.3011 19.192L12.4639 18.2527C12.4254 18.5494 12.4018 18.8477 12.3936 19.1465L13.3949 19.6554L12.4225 20.1561C12.4449 20.4251 12.4805 20.6932 12.5301 20.9589L12.5425 21.021L14.3053 20.1189L17.3053 21.6582L14.0529 23.3258C14.3334 23.5215 14.6396 23.6775 14.9632 23.7892L18.2115 22.1258L21.4432 23.7851C21.766 23.6714 22.0711 23.5126 22.3494 23.3134L19.1177 21.6582L22.1177 20.123L23.8473 21.0085L23.8598 20.9589C23.9094 20.6891 23.945 20.4168 23.9673 20.1437L23.0239 19.6596L23.9963 19.163ZM15.7577 15.9396L18.2073 14.4789L20.657 15.9396L18.2073 17.1934L15.7577 15.9396ZM18.2115 21.1948L15.2115 19.6554L18.2073 18.1203L21.2115 19.6596L18.2115 21.1948Z" fill="#E57E25"/>
</g>
</g>
</g>
<defs>
<clipPath id="clip0_8966_12214">
<rect width="24" height="24" fill="white"/>
</clipPath>
</defs>
</svg>
