<svg width="24" height="24" viewBox="0 0 24 24" fill="none" xmlns="http://www.w3.org/2000/svg">
<g id="Frame" clip-path="url(#clip0_8966_12276)">
<g id="Group">
<path id="Vector" d="M15.5512 4.48727H12.7985C12.751 4.48725 12.7039 4.47787 12.66 4.45967C12.616 4.44146 12.5761 4.41477 12.5425 4.38114C12.5089 4.34751 12.4822 4.30758 12.4641 4.26364C12.4459 4.2197 12.4365 4.17262 12.4365 4.12506V2.18837C12.4365 2.14082 12.4458 2.09372 12.464 2.04978C12.4822 2.00584 12.5089 1.96591 12.5425 1.93227C12.5761 1.89863 12.616 1.87195 12.66 1.85375C12.7039 1.83554 12.751 1.82617 12.7985 1.82617H15.5512C16.1371 1.82617 16.6136 2.30261 16.6136 2.88855V3.42489C16.6136 4.01064 16.1371 4.48727 15.5512 4.48727ZM13.1607 3.76291H15.5512C15.6408 3.76279 15.7267 3.72714 15.7901 3.66378C15.8534 3.60041 15.889 3.5145 15.8891 3.42489V2.88855C15.889 2.79895 15.8534 2.71305 15.79 2.64969C15.7267 2.58633 15.6408 2.55069 15.5512 2.55058H13.1607V3.76291Z" fill="#5E5E5E"/>
<path id="Vector_2" d="M14.6882 6.31204L13.3359 6.25691C13.0669 6.24979 12.7899 6.24412 12.5158 6.24121C12.3699 6.27468 12.2226 6.29446 12.0666 6.29446L7.04113 6.49752C2.8881 6.95348 0 7.96438 0 9.13846C0 10.7397 5.37247 12.0379 12 12.0379C18.6273 12.0379 24 10.7397 24 9.13846C24 7.76043 20.0213 6.60702 14.6882 6.31204Z" fill="#7D7D7D"/>
<path id="Vector_3" d="M7.9979 11.8731C8.32817 11.9013 8.65876 11.9256 8.98959 11.9462V6.41895L7.04081 6.49784C6.59473 6.54644 6.14965 6.60377 5.70581 6.66977V9.36968C5.70595 10.6719 6.7004 11.7621 7.9979 11.8731Z" fill="#5E5E5E"/>
<path id="Vector_4" d="M10.4211 0H10.743C12.5997 0 14.105 1.5053 14.105 3.36202V4.17389C14.105 5.35491 13.1475 6.31238 11.9663 6.31238L9.94101 6.399C8.17294 6.49509 7.35923 7.46189 7.05933 9.01538V3.36202C7.05933 1.5053 8.56443 0 10.4211 0Z" fill="#E8E8E8"/>
<path id="Vector_5" d="M10.7428 0H10.4209C10.2334 0 10.0494 0.015375 9.87012 0.0448594C11.465 0.307828 12.6814 1.6928 12.6814 3.36202V4.17389C12.6814 5.35472 11.7263 6.37444 10.5453 6.37467L11.9661 6.31238C13.1472 6.31238 14.1046 5.35491 14.1046 4.17389V3.36202C14.1048 1.5053 12.5995 0 10.7428 0Z" fill="#CCCCCC"/>
<path id="Vector_6" d="M24.0001 9.13846C24.0001 7.76043 20.0214 6.60702 14.6883 6.31204L13.3361 6.25691C13.0671 6.24979 12.7901 6.24412 12.5159 6.24121C12.37 6.27468 12.2228 6.29446 12.0668 6.29446L9.74905 6.38802C8.28931 6.44699 7.09123 7.60879 7.04272 9.06909C7.04168 9.10142 7.0412 9.13377 7.04127 9.16612C7.04127 10.5247 7.98462 11.6631 9.25227 11.9614C10.1346 12.0114 11.0546 12.038 12.0001 12.038C18.6276 12.0378 24.0001 10.7397 24.0001 9.13846Z" fill="#BDBDBD"/>
<path id="Vector_7" d="M14.6883 6.31204L13.336 6.25691C13.067 6.24979 12.79 6.24412 12.5159 6.24121C12.37 6.27468 12.2227 6.29446 12.0667 6.29446L11.8066 6.30491L11.9839 6.31223C17.3171 6.60707 21.2958 7.76043 21.2958 9.13846C21.2958 10.6293 16.6389 11.8574 10.6482 12.0196C11.0919 12.0317 11.543 12.0379 12.0001 12.0379C18.6274 12.0379 24.0001 10.7397 24.0001 9.13846C24.0001 7.76043 20.0214 6.60702 14.6883 6.31204Z" fill="#A6A6A6"/>
<path id="Vector_8" d="M12 12.038C5.37247 12.038 0 10.7399 0 9.13867V19.7685C0 20.2575 0.860764 20.7095 2.31721 21.0756C4.50093 21.7953 8.02423 22.2624 12 22.2624C15.9756 22.2624 19.499 21.7953 21.6827 21.0756C23.1391 20.7095 24 20.2575 24 19.7685V9.13867C24 10.7399 18.6275 12.038 12 12.038Z" fill="#74C26C"/>
<path id="Vector_9" d="M21.2955 10.9723V19.7685C21.2955 20.2576 20.4347 20.7095 18.9783 21.0757C17.0458 21.7125 14.0637 22.1516 10.6477 22.2443C11.0916 22.2564 11.5427 22.2624 11.9998 22.2624C15.9755 22.2624 19.499 21.7953 21.6825 21.0757C23.139 20.7095 23.9998 20.2576 23.9998 19.7685V9.13867C23.9998 9.8343 22.9857 10.4726 21.2955 10.9723Z" fill="#5D9C57"/>
<path id="Vector_10" d="M15.6763 17.103C15.6763 19.1331 14.0305 20.779 12.0002 20.779C9.97 20.779 8.32422 19.1331 8.32422 17.103C8.32422 15.0727 9.97 13.4268 12.0002 13.4268C14.0305 13.4268 15.6763 15.0727 15.6763 17.103Z" fill="#F7E29C"/>
<path id="Vector_11" d="M11.5664 19.17C11.1702 19.17 10.7907 18.9457 10.611 18.5634C10.3634 18.0362 10.5901 17.408 11.1172 17.1604C11.4099 17.0229 11.3938 16.7138 11.374 16.5897C11.1953 16.2553 11.2035 15.8356 11.4309 15.5C11.7578 15.0179 12.4137 14.8921 12.8958 15.2189C13.5288 15.6479 13.5031 16.6351 13.4801 16.9273C13.4048 17.8866 12.8705 18.6673 12.0141 19.0697C11.8741 19.1357 11.7212 19.1699 11.5664 19.17Z" fill="#74C26C"/>
</g>
</g>
<defs>
<clipPath id="clip0_8966_12276">
<rect width="24" height="24" fill="white"/>
</clipPath>
</defs>
</svg>
