<svg width="24" height="24" viewBox="0 0 24 24" fill="none" xmlns="http://www.w3.org/2000/svg">
<g id="Frame" clip-path="url(#clip0_8966_12358)">
<g id="Group">
<path id="Vector" d="M14.049 0H3.70758C3.33042 0 3.02466 0.305766 3.02466 0.682922V2.439H14.732V0.682922C14.732 0.305766 14.4263 0 14.049 0Z" fill="#DFF6FD"/>
<path id="Vector_2" d="M14.0485 0H12.4875C12.8647 0 13.1705 0.305766 13.1705 0.682922V2.439L14.7315 2.69123V0.682922C14.7315 0.305766 14.4257 0 14.0485 0Z" fill="#C8EFFE"/>
<path id="Vector_3" d="M3.02426 2.43945L1.23049 5.13012C1.18193 5.20318 1.14387 5.28269 1.11743 5.36633L6.85381 6.4048L12.7803 5.36633L13.1705 2.4395L3.02426 2.43945Z" fill="#528FD8"/>
<path id="Vector_4" d="M13.1707 2.43945L11.2195 5.36628H12.88L15.1217 3.0245L14.8708 2.64819C14.828 2.58398 14.77 2.53134 14.702 2.49492C14.6339 2.45851 14.558 2.43946 14.4808 2.43945H13.1707Z" fill="#0573CE"/>
<path id="Vector_5" d="M1.11788 5.36621C1.08859 5.45798 1.07362 5.55371 1.07349 5.65004V19.1223H12.7808V5.36621H1.11788Z" fill="#DFF6FD"/>
<path id="Vector_6" d="M11.2196 5.36621V10.6345H10.3416C9.58724 10.6345 8.97571 11.246 8.97571 12.0003V17.3917C8.83799 17.0307 8.68284 16.6756 8.51268 16.3376C7.53426 14.3936 6.27745 13.3662 4.87813 13.3662C3.47882 13.3662 2.22201 14.3937 1.24359 16.3376C1.18462 16.4555 1.12783 16.5744 1.07324 16.6944V20.8522L7.44665 24.0003H10.6024L12.7806 19.1223L12.9131 5.36621H11.2196Z" fill="#C8EFFE"/>
<path id="Vector_7" d="M16.6042 5.24777L14.8637 2.63707C14.8009 2.54285 14.6625 2.54285 14.5997 2.63707L12.8592 5.24777C12.8079 5.32478 12.7805 5.41525 12.7805 5.50779V12.669L16.6829 12V5.50779C16.6829 5.41526 16.6555 5.32479 16.6042 5.24777Z" fill="#99E6FC"/>
<path id="Vector_8" d="M2.53613 10.0489V7.31717C2.53613 7.04778 2.75452 6.82935 3.02396 6.82935H10.8288C11.0982 6.82935 11.3167 7.04774 11.3167 7.31717V10.0489C11.3167 10.3183 11.0983 10.5367 10.8288 10.5367H3.02391C2.75452 10.5366 2.53613 10.3183 2.53613 10.0489Z" fill="#A2E62E"/>
<path id="Vector_9" d="M23.4369 24H15.7386L10.3408 19.8537V12.5625C10.3408 12.2519 10.5927 12 10.9033 12H23.4369C23.7475 12 23.9994 12.2519 23.9994 12.5625V23.4375C23.9994 23.7481 23.7475 24 23.4369 24Z" fill="#FFE177"/>
<path id="Vector_10" d="M17.6579 17.7564H17.3998C17.2321 17.2707 17.0318 16.789 16.8046 16.3376C15.8262 14.3937 14.5694 13.3662 13.1701 13.3662C12.1296 13.3662 11.1679 13.9348 10.3408 15.0255V19.1223L15.7386 24.0003H17.8653C17.9601 23.796 18.0246 23.5789 18.0565 23.3559L18.2731 21.8401C18.9388 21.5902 19.414 20.9474 19.414 20.1954V19.5125C19.414 18.5442 18.6263 17.7564 17.6579 17.7564Z" fill="#FFD15B"/>
<path id="Vector_11" d="M16.5852 20.5851C16.5852 18.6993 15.0564 14.7314 13.1705 14.7314C11.2846 14.7314 9.75586 18.6993 9.75586 20.5851H16.5852Z" fill="#FEF1DA"/>
<path id="Vector_12" d="M9.75586 20.5854H16.5851C16.5851 19.8659 16.3624 18.8434 15.9824 17.8538H10.3586C9.97861 18.8434 9.75586 19.866 9.75586 20.5854Z" fill="#FAE2C0"/>
<path id="Vector_13" d="M8.29289 20.5851C8.29289 18.6993 6.76411 14.7314 4.87823 14.7314C2.99236 14.7314 1.46362 18.6993 1.46362 20.5851H8.29289Z" fill="#FEF1DA"/>
<path id="Vector_14" d="M1.46362 20.5854H8.29289C8.29289 19.8659 8.07014 18.8434 7.69017 17.8538H2.06634C1.68633 18.8434 1.46362 19.866 1.46362 20.5854Z" fill="#FAE2C0"/>
<path id="Vector_15" d="M0.975586 20.585L1.34374 23.162C1.41237 23.6426 1.82402 23.9996 2.30955 23.9996H7.44654C7.93207 23.9996 8.34368 23.6426 8.41235 23.162L8.78051 20.585H0.975586ZM17.0732 20.585L16.705 23.162C16.6363 23.6426 16.2247 23.9996 15.7392 23.9996H10.6022C10.1167 23.9996 9.70507 23.6426 9.6364 23.162L9.26824 20.585H17.0732Z" fill="#F6A96C"/>
<path id="Vector_16" d="M16.8641 22.0485L17.0732 20.585L13.0482 20.0068L9.26829 20.585L9.47735 22.0485H16.8641ZM1.18465 22.0485L0.975586 20.585L4.87802 20.1163L8.78046 20.585L8.5714 22.0485H1.18465Z" fill="#EA9B58"/>
<path id="Vector_17" d="M17.6585 20.5855H0.390234C0.286738 20.5855 0.18748 20.5443 0.114297 20.4712C0.0411139 20.398 0 20.2987 0 20.1952L0 19.5123C0 19.4088 0.0411139 19.3095 0.114297 19.2364C0.18748 19.1632 0.286738 19.1221 0.390234 19.1221H17.6585C17.762 19.1221 17.8613 19.1632 17.9345 19.2364C18.0076 19.3095 18.0487 19.4088 18.0487 19.5123V20.1952C18.0488 20.2465 18.0387 20.2972 18.0191 20.3446C17.9994 20.3919 17.9707 20.4349 17.9345 20.4712C17.8982 20.5074 17.8552 20.5362 17.8079 20.5558C17.7605 20.5754 17.7098 20.5855 17.6585 20.5855Z" fill="#F6A96C"/>
<path id="Vector_18" d="M21.5608 15.4151C22.0996 15.4151 22.5364 14.9783 22.5364 14.4395C22.5364 13.9007 22.0996 13.4639 21.5608 13.4639C21.022 13.4639 20.5852 13.9007 20.5852 14.4395C20.5852 14.9783 21.022 15.4151 21.5608 15.4151Z" fill="#FEB237"/>
<path id="Vector_19" d="M16.7639 14.9273C17.1681 14.9273 17.4957 14.5997 17.4957 14.1956C17.4957 13.7915 17.1681 13.4639 16.7639 13.4639C16.3598 13.4639 16.0322 13.7915 16.0322 14.1956C16.0322 14.5997 16.3598 14.9273 16.7639 14.9273Z" fill="#FEB237"/>
<path id="Vector_20" d="M18.0481 17.8541C18.4522 17.8541 18.7798 17.5265 18.7798 17.1223C18.7798 16.7182 18.4522 16.3906 18.0481 16.3906C17.644 16.3906 17.3164 16.7182 17.3164 17.1223C17.3164 17.5265 17.644 17.8541 18.0481 17.8541Z" fill="#FEB237"/>
<path id="Vector_21" d="M21.0731 22.4386C21.8813 22.4386 22.5365 21.7834 22.5365 20.9752C22.5365 20.1669 21.8813 19.5117 21.0731 19.5117C20.2648 19.5117 19.6096 20.1669 19.6096 20.9752C19.6096 21.7834 20.2648 22.4386 21.0731 22.4386Z" fill="#FEB237"/>
<path id="Vector_22" d="M4.48735 12.3516H2.53613C2.44289 12.3516 2.35347 12.3145 2.28754 12.2486C2.22161 12.1827 2.18457 12.0932 2.18457 12C2.18457 11.9068 2.22161 11.8173 2.28754 11.7514C2.35347 11.6855 2.44289 11.6484 2.53613 11.6484H4.48735C4.58059 11.6484 4.67001 11.6855 4.73594 11.7514C4.80188 11.8173 4.83891 11.9068 4.83891 12C4.83891 12.0932 4.80188 12.1827 4.73594 12.2486C4.67001 12.3145 4.58059 12.3516 4.48735 12.3516ZM3.51174 13.6199H2.53613C2.44289 13.6199 2.35347 13.5828 2.28754 13.5169C2.22161 13.451 2.18457 13.3615 2.18457 13.2683C2.18457 13.1751 2.22161 13.0856 2.28754 13.0197C2.35347 12.9538 2.44289 12.9167 2.53613 12.9167H3.51174C3.60498 12.9167 3.6944 12.9538 3.76033 13.0197C3.82627 13.0856 3.8633 13.1751 3.8633 13.2683C3.8633 13.3615 3.82627 13.451 3.76033 13.5169C3.6944 13.5828 3.60498 13.6199 3.51174 13.6199Z" fill="#528FD8"/>
<path id="Vector_23" d="M13.1707 13.7178C13.3648 13.7178 13.5222 13.5604 13.5222 13.3662C13.5222 13.172 13.3648 13.0146 13.1707 13.0146C12.9765 13.0146 12.8191 13.172 12.8191 13.3662C12.8191 13.5604 12.9765 13.7178 13.1707 13.7178Z" fill="#FEB237"/>
<path id="Vector_24" d="M22.1289 17.8154C22.3231 17.8154 22.4805 17.658 22.4805 17.4639C22.4805 17.2697 22.3231 17.1123 22.1289 17.1123C21.9347 17.1123 21.7773 17.2697 21.7773 17.4639C21.7773 17.658 21.9347 17.8154 22.1289 17.8154Z" fill="#FEB237"/>
<path id="Vector_25" d="M18.416 22.9092C18.6102 22.9092 18.7676 22.7518 18.7676 22.5576C18.7676 22.3635 18.6102 22.2061 18.416 22.2061C18.2219 22.2061 18.0645 22.3635 18.0645 22.5576C18.0645 22.7518 18.2219 22.9092 18.416 22.9092Z" fill="#FEB237"/>
</g>
</g>
<defs>
<clipPath id="clip0_8966_12358">
<rect width="24" height="24" fill="white"/>
</clipPath>
</defs>
</svg>
