<svg width="24" height="24" viewBox="0 0 24 24" fill="none" xmlns="http://www.w3.org/2000/svg">
<g id="Frame" clip-path="url(#clip0_8966_12181)">
<g id="Group">
<path id="Vector" d="M22.3072 3.92653C22.1845 3.54145 21.9655 3.24005 21.693 3.024C21.5248 2.89031 21.4294 2.68509 21.4294 2.47008V0.714469C21.4294 0.619774 21.3918 0.528958 21.3248 0.461998C21.2578 0.395039 21.167 0.357422 21.0723 0.357422H20.3582C20.2635 0.357459 20.1727 0.395094 20.1058 0.462051C20.0389 0.529008 20.0013 0.619803 20.0013 0.714469V2.2035C20.0013 2.46717 19.8569 2.71125 19.623 2.83322C19.2867 3.009 18.9955 3.29316 18.8062 3.68939C18.0082 5.36095 16.5919 8.82164 13.6828 11.7252C10.7792 14.6343 7.31835 16.0507 5.64698 16.8488C4.11604 17.5798 4.25113 19.8294 5.88388 20.3496C6.83751 20.6534 7.89698 20.7991 9.00604 20.779C12.2417 20.7206 15.6451 18.9059 18.2543 16.2968C20.8634 13.6877 22.6782 10.2843 22.7365 7.04845C22.7567 5.93939 22.611 4.88011 22.3072 3.92653Z" fill="#FFCF5D"/>
<path id="Vector_2" d="M20.8058 4.14277C20.8704 4.19405 20.9164 4.26487 20.9466 4.35994C21.2044 5.16909 21.3264 6.06478 21.3089 7.02281C21.2606 9.70111 19.7412 12.7905 17.2448 15.2871C14.7481 17.7836 11.6588 19.3028 8.98028 19.3513C8.22353 19.365 7.61523 19.9651 7.58008 20.7105C8.04278 20.7649 8.51978 20.788 9.0063 20.7792C12.2419 20.7206 15.6453 18.9058 18.2546 16.2968C20.8637 13.6877 22.6784 10.2843 22.7368 7.04845C22.7569 5.93958 22.6112 4.88011 22.3074 3.92653C22.1847 3.54145 21.9657 3.24005 21.6933 3.024C21.525 2.89031 21.4296 2.68509 21.4296 2.47008V0.714469C21.4296 0.619774 21.392 0.528958 21.325 0.461998C21.2581 0.395039 21.1673 0.357422 21.0726 0.357422H20.3584C20.2638 0.357459 20.173 0.395094 20.1061 0.462051C20.0392 0.529008 20.0016 0.619803 20.0016 0.714469V2.47008C20.0016 3.12764 20.2948 3.73739 20.8058 4.14277Z" fill="#FFB545"/>
<path id="Vector_3" d="M4.19411 10.8188L2.99327 10.0584C2.69139 9.86725 2.31161 10.1518 2.41614 10.4914L2.76864 11.6358C3.03119 12.4892 3.57484 13.2307 4.3127 13.7427L5.49269 14.519C5.49269 13.1287 5.43883 11.6071 4.19411 10.8188Z" fill="#28D05B"/>
<path id="Vector_4" d="M9.59461 10.6524L9.40415 10.462C9.35727 10.4151 9.29826 10.3822 9.23375 10.367C9.16923 10.3517 9.10175 10.3548 9.03886 10.3757C7.17961 10.9955 5.80612 12.4082 5.06714 14.4611L5.73895 14.703C6.38254 12.9148 7.49878 11.7125 9.05845 11.1263L9.08958 11.1574C9.15655 11.2244 9.24738 11.262 9.34209 11.262C9.4368 11.262 9.52764 11.2244 9.59461 11.1574C9.66158 11.0904 9.6992 10.9996 9.6992 10.9049C9.6992 10.8102 9.66158 10.7193 9.59461 10.6524Z" fill="#B66652"/>
<path id="Vector_5" d="M7.46761 14.0004C6.77526 13.9751 6.10439 14.1555 5.49262 14.4968C4.88086 14.1555 4.20993 13.975 3.51764 14.0004C2.07018 14.0621 1.02904 14.8385 0.473854 15.8381C-0.0834895 16.8539 -0.154739 18.0932 0.289636 19.4606C0.969323 21.546 2.77293 23.4139 4.48645 23.5118C4.65473 23.5232 4.81935 23.5199 4.97939 23.5028C5.31829 23.4672 5.66695 23.4672 6.00567 23.5028C6.1657 23.5199 6.33032 23.5232 6.4986 23.5118C8.21207 23.4139 10.0159 21.546 10.6956 19.4606C11.1399 18.0932 11.0685 16.8539 10.5113 15.8381C9.95615 14.8385 8.91506 14.0621 7.46761 14.0004Z" fill="#FF5368"/>
<path id="Vector_6" d="M10.5114 15.8382C10.2397 15.3489 9.85131 14.9135 9.35603 14.5889C9.40779 14.667 9.45653 14.7471 9.50214 14.829C10.0593 15.8448 10.1307 17.0841 9.68636 18.4517C9.22984 19.8517 8.2667 21.1539 7.16444 21.888C6.55577 22.2936 5.83727 22.5027 5.10578 22.5027H2.29492C2.97555 23.0897 3.73961 23.4693 4.4867 23.5119C4.65498 23.5235 4.81956 23.5201 4.97959 23.503C5.32094 23.4669 5.66514 23.4671 6.0063 23.5032C6.16633 23.5201 6.33077 23.5233 6.49886 23.512C8.21214 23.4142 10.0161 21.5461 10.6956 19.461C11.14 18.0933 11.0686 16.8542 10.5114 15.8382Z" fill="#D9435B"/>
<path id="Vector_7" d="M20.2863 14.6858C20.1361 14.0578 19.5716 13.5908 18.8976 13.5908C18.2238 13.5908 17.6593 14.0578 17.5092 14.6858C15.5574 15.28 14.1375 17.094 14.1375 19.24C14.1375 21.869 16.2685 24.0002 18.8976 24.0002C21.5267 24.0002 23.6578 21.869 23.6578 19.2401C23.6578 17.094 22.2378 15.28 20.2863 14.6858Z" fill="#FF983B"/>
<path id="Vector_8" d="M21.7215 15.4072C22.3043 16.1971 22.6492 17.1736 22.6492 18.2307C22.6492 20.8597 20.5178 22.9909 17.889 22.9909C16.8319 22.9909 15.8556 22.6461 15.0657 22.0633C15.9324 23.2381 17.3262 24.0002 18.8982 24.0002C21.5273 24.0002 23.6584 21.869 23.6584 19.24C23.6584 17.668 22.8963 16.2742 21.7215 15.4072Z" fill="#FF7E40"/>
<path id="Vector_9" d="M18.541 11.6843V15.0036C18.541 15.1989 18.6917 15.3694 18.8871 15.3753C19.0892 15.3815 19.2551 15.2193 19.2551 15.0184V11.2992C18.9486 11.0978 18.541 11.3175 18.541 11.6843Z" fill="#B66652"/>
<path id="Vector_10" d="M21.6176 14.857L21.2653 13.7126C21.0025 12.8594 20.4589 12.1176 19.7211 11.6058L19.2551 11.2993C18.9486 11.0977 18.541 11.3174 18.541 11.6842V12.1914C18.541 13.1461 18.9977 13.9966 19.8396 14.5297L21.0406 15.2902C21.3424 15.4812 21.7221 15.1965 21.6176 14.857Z" fill="#28D05B"/>
<path id="Vector_11" d="M17.0508 16.8756C17.0508 17.0728 16.8912 17.2326 16.694 17.2326C16.5993 17.2326 16.5085 17.195 16.4415 17.1281C16.3746 17.0611 16.3369 16.9703 16.3369 16.8756C16.3369 16.7809 16.3746 16.6901 16.4415 16.6231C16.5085 16.5562 16.5993 16.5186 16.694 16.5186C16.7409 16.5186 16.7873 16.5278 16.8306 16.5458C16.8739 16.5637 16.9132 16.59 16.9464 16.6232C16.9795 16.6563 17.0058 16.6957 17.0237 16.739C17.0416 16.7823 17.0509 16.8287 17.0508 16.8756ZM18.003 18.2086C18.003 18.4058 17.8434 18.5657 17.6461 18.5657C17.4489 18.5657 17.2891 18.4058 17.2891 18.2086C17.2891 18.0114 17.4489 17.8515 17.6462 17.8515C17.8434 17.8515 18.003 18.0114 18.003 18.2086H18.003ZM16.0989 19.256C16.0989 19.4532 15.9391 19.6128 15.7418 19.6128C15.5446 19.6128 15.3848 19.4532 15.3848 19.256C15.3848 19.1613 15.4224 19.0704 15.4893 19.0035C15.5563 18.9365 15.6471 18.8989 15.7418 18.8989C15.8365 18.8989 15.9274 18.9365 15.9943 19.0035C16.0613 19.0704 16.0989 19.1613 16.0989 19.256Z" fill="#FF7E40"/>
<path id="Vector_12" d="M13.6943 1.31734C13.6581 1.22986 13.5886 1.16035 13.5011 1.12412C13.4136 1.08788 13.3153 1.08789 13.2278 1.12412L13.0139 1.21258L13.1776 1.04889C13.2108 1.01576 13.2371 0.976412 13.2551 0.933099C13.273 0.889786 13.2823 0.843357 13.2823 0.796468C13.2823 0.749579 13.273 0.703151 13.2551 0.659838C13.2371 0.616525 13.2108 0.577177 13.1776 0.544046C13.1107 0.477128 13.0199 0.439537 12.9252 0.439537C12.8305 0.439537 12.7397 0.477128 12.6728 0.544046L12.5091 0.707781L12.5977 0.49389C12.6339 0.406391 12.6339 0.308093 12.5976 0.220606C12.5614 0.13312 12.4919 0.0636047 12.4044 0.0273432C12.2224 -0.0482662 12.0135 0.0383119 11.938 0.220703L11.7441 0.688703L13.0332 1.97758L13.5012 1.7837C13.5887 1.74745 13.6581 1.67796 13.6944 1.59049C13.7306 1.50303 13.7306 1.40476 13.6944 1.3173L13.6943 1.31734Z" fill="#28D05B"/>
<path id="Vector_13" d="M9.96584 1.06347C10.7094 0.319841 11.8141 0.420903 12.5577 1.16453C13.3013 1.90815 13.4022 3.01281 12.6586 3.75639C11.915 4.49997 9.93524 5.27415 9.1917 4.53053C8.44808 3.78695 9.22222 1.80728 9.96584 1.06347Z" fill="#FF5368"/>
<path id="Vector_14" d="M12.5564 1.16452C12.3779 0.985977 12.1785 0.844977 11.9683 0.743164C12.29 1.40841 12.2131 2.18185 11.648 2.74693C11.083 3.31215 9.80436 3.89405 8.89648 3.81498C8.92161 4.10171 9.01189 4.35202 9.19039 4.53052C9.93397 5.27415 11.9137 4.49996 12.6573 3.75638C13.4011 3.01276 13.3 1.9081 12.5564 1.16452Z" fill="#D9435B"/>
<g id="Group_2">
<path id="Vector_15" d="M11.3976 2.68121C11.3961 2.77487 11.3578 2.86419 11.291 2.9299C11.2243 2.9956 11.1343 3.03242 11.0407 3.03242C10.947 3.03242 10.857 2.9956 10.7903 2.9299C10.7235 2.86419 10.6852 2.77487 10.6837 2.68121C10.6829 2.63384 10.6916 2.5868 10.7092 2.54282C10.7268 2.49884 10.753 2.4588 10.7862 2.42504C10.8194 2.39127 10.859 2.36446 10.9027 2.34615C10.9464 2.32785 10.9933 2.31842 11.0407 2.31842C11.088 2.31842 11.1349 2.32785 11.1786 2.34615C11.2223 2.36446 11.2619 2.39127 11.2951 2.42504C11.3284 2.4588 11.3545 2.49884 11.3721 2.54282C11.3897 2.5868 11.3984 2.63384 11.3976 2.68121ZM10.3878 3.69085C10.3885 3.73821 10.3799 3.78525 10.3623 3.82923C10.3447 3.87321 10.3185 3.91325 10.2853 3.94702C10.2521 3.98078 10.2125 4.0076 10.1688 4.0259C10.1251 4.04421 10.0782 4.05363 10.0308 4.05363C9.98346 4.05363 9.93656 4.04421 9.89288 4.0259C9.84919 4.0076 9.80958 3.98078 9.77635 3.94702C9.74313 3.91325 9.71696 3.87321 9.69937 3.82923C9.68177 3.78525 9.67311 3.73821 9.67388 3.69085C9.67539 3.59718 9.71367 3.50786 9.78045 3.44216C9.84722 3.37646 9.93715 3.33963 10.0308 3.33963C10.1245 3.33963 10.2144 3.37646 10.2812 3.44216C10.348 3.50786 10.3863 3.59718 10.3878 3.69085ZM10.3878 2.68121C10.3878 2.72809 10.3785 2.7745 10.3606 2.81781C10.3426 2.86111 10.3163 2.90046 10.2832 2.9336C10.25 2.96674 10.2106 2.99302 10.1673 3.01095C10.124 3.02888 10.0776 3.0381 10.0307 3.03809C9.98383 3.03808 9.93742 3.02883 9.89411 3.01088C9.8508 2.99293 9.81146 2.96662 9.77832 2.93347C9.74518 2.90031 9.71889 2.86095 9.70097 2.81764C9.68304 2.77432 9.67382 2.7279 9.67383 2.68102C9.67385 2.58635 9.71148 2.49557 9.77844 2.42864C9.8454 2.36172 9.93621 2.32414 10.0309 2.32416C10.1255 2.32418 10.2163 2.36182 10.2833 2.42878C10.3502 2.49573 10.3878 2.58654 10.3877 2.68121H10.3878ZM11.3976 3.69085C11.3976 3.76146 11.3767 3.83049 11.3375 3.88922C11.2983 3.94795 11.2426 3.99372 11.1773 4.02077C11.1121 4.04781 11.0403 4.0549 10.9711 4.04115C10.9018 4.02739 10.8382 3.99341 10.7882 3.94349C10.7383 3.89357 10.7043 3.82997 10.6905 3.76072C10.6767 3.69146 10.6837 3.61968 10.7108 3.55444C10.7378 3.48919 10.7835 3.43343 10.8422 3.39419C10.9009 3.35495 10.97 3.334 11.0406 3.33399C11.1352 3.33398 11.226 3.37156 11.293 3.43848C11.3599 3.50541 11.3976 3.59618 11.3976 3.69085ZM12.4074 2.68121C12.4074 2.77588 12.3698 2.86666 12.3028 2.93359C12.2358 3.00051 12.145 3.03809 12.0503 3.03807C12.003 3.03883 11.9559 3.03017 11.912 3.01257C11.868 2.99498 11.8279 2.96881 11.7942 2.93559C11.7604 2.90236 11.7336 2.86276 11.7153 2.81907C11.697 2.77538 11.6876 2.72848 11.6876 2.68111C11.6876 2.63374 11.697 2.58685 11.7153 2.54316C11.7336 2.49947 11.7604 2.45986 11.7942 2.42664C11.8279 2.39342 11.868 2.36725 11.912 2.34965C11.9559 2.33206 12.003 2.32339 12.0503 2.32416C12.0972 2.32415 12.1437 2.33338 12.187 2.35133C12.2303 2.36927 12.2697 2.39556 12.3028 2.42872C12.336 2.46188 12.3623 2.50124 12.3803 2.54456C12.3982 2.58788 12.4074 2.63431 12.4074 2.68121ZM11.3976 1.67138C11.3961 1.76505 11.3578 1.85436 11.291 1.92007C11.2243 1.98577 11.1343 2.02259 11.0407 2.02259C10.947 2.02259 10.857 1.98577 10.7903 1.92007C10.7235 1.85436 10.6852 1.76505 10.6837 1.67138C10.6829 1.62402 10.6916 1.57697 10.7092 1.53299C10.7268 1.48901 10.753 1.44898 10.7862 1.41521C10.8194 1.38145 10.859 1.35463 10.9027 1.33632C10.9464 1.31802 10.9933 1.30859 11.0407 1.30859C11.088 1.30859 11.1349 1.31802 11.1786 1.33632C11.2223 1.35463 11.2619 1.38145 11.2951 1.41521C11.3284 1.44898 11.3545 1.48901 11.3721 1.53299C11.3897 1.57697 11.3984 1.62402 11.3976 1.67138Z" fill="#FFCF5D"/>
</g>
<path id="Vector_16" d="M8.78169 7.31967C8.78169 8.63414 7.71603 9.69966 6.40152 9.69966C5.087 9.69966 4.02148 8.63419 4.02148 7.31967C4.02148 6.00516 5.087 4.93945 6.40152 4.93945C7.71603 4.93945 8.78169 6.00516 8.78169 7.31967Z" fill="#5C87BD"/>
<path id="Vector_17" d="M7.50391 5.20898C7.68169 5.54866 7.77437 5.92641 7.774 6.3098C7.774 7.62417 6.70834 8.68983 5.39383 8.68983C5.01044 8.69027 4.63267 8.59765 4.29297 8.41992C4.69033 9.18 5.48594 9.69909 6.40309 9.69909C7.71761 9.69909 8.78327 8.63363 8.78327 7.31911C8.78327 6.40177 8.26417 5.6063 7.50391 5.20898Z" fill="#456EA2"/>
<path id="Vector_18" d="M6.79924 6.48634L6.90377 6.38181C6.97069 6.31485 7.00828 6.22406 7.00828 6.12939C7.00828 6.03472 6.97069 5.94393 6.90377 5.87697C6.83678 5.81005 6.74596 5.77247 6.65128 5.77247C6.55659 5.77247 6.46578 5.81005 6.39879 5.87697L6.29425 5.9815L6.18968 5.87697C6.12272 5.81005 6.03192 5.77246 5.93725 5.77246C5.84259 5.77246 5.75179 5.81005 5.68483 5.87697C5.65165 5.9101 5.62533 5.94945 5.60737 5.99276C5.58941 6.03607 5.58017 6.0825 5.58017 6.12939C5.58017 6.17628 5.58941 6.22271 5.60737 6.26602C5.62533 6.30933 5.65165 6.34868 5.68483 6.38181L5.78936 6.48634L5.68483 6.59088C5.63484 6.64079 5.60077 6.70442 5.58696 6.77371C5.57315 6.843 5.58022 6.91483 5.60725 6.9801C5.63429 7.04537 5.68009 7.10115 5.73886 7.14037C5.79762 7.1796 5.8667 7.2005 5.93735 7.20044C6.02875 7.20044 6.12007 7.16547 6.18986 7.09591L6.29421 6.99138L6.39874 7.09591C6.43189 7.12908 6.47126 7.15538 6.51459 7.17332C6.55792 7.19126 6.60436 7.20047 6.65125 7.20044C6.7219 7.2005 6.79099 7.1796 6.84975 7.14037C6.90851 7.10115 6.95431 7.04537 6.98135 6.9801C7.00839 6.91483 7.01545 6.843 7.00164 6.77371C6.98783 6.70442 6.95377 6.64079 6.90377 6.59088L6.79924 6.48634Z" fill="#315588"/>
<path id="Vector_19" d="M15.6382 6.01323C15.558 5.83487 15.3429 5.7609 15.1623 5.83581L14.9622 5.91859L15.1155 5.7655C15.2535 5.62722 15.2676 5.4002 15.1337 5.25793C15.101 5.22311 15.0615 5.19521 15.0178 5.17591C14.9741 5.1566 14.9269 5.14627 14.8791 5.14554C14.8313 5.1448 14.7838 5.15368 14.7395 5.17163C14.6951 5.18959 14.6549 5.21626 14.6211 5.25006L14.4574 5.41356L14.546 5.1999C14.5822 5.11242 14.5823 5.01411 14.546 4.92661C14.5098 4.83911 14.4403 4.76958 14.3528 4.73331C14.3095 4.71533 14.2631 4.70607 14.2162 4.70605C14.1693 4.70604 14.1228 4.71526 14.0795 4.73321C14.0362 4.75115 13.9968 4.77746 13.9636 4.81064C13.9305 4.84381 13.9042 4.88319 13.8863 4.92653L13.6923 5.39453C13.6705 5.44707 13.6615 5.5041 13.6663 5.56081C13.671 5.61753 13.6893 5.67228 13.7196 5.72045C13.8156 5.87406 13.7989 6.0722 13.6707 6.20036L13.6676 6.20331C13.5254 6.34558 13.5175 6.58637 13.6632 6.72517C13.7307 6.78943 13.8206 6.82476 13.9138 6.82362C14.0069 6.82248 14.096 6.78496 14.1618 6.71908C14.3109 6.57006 14.505 6.56476 14.6589 6.65851C14.7069 6.6879 14.7611 6.7055 14.8172 6.70986C14.8732 6.71422 14.9295 6.70522 14.9814 6.68359L15.4494 6.48967C15.4936 6.47137 15.5336 6.44438 15.5671 6.41032C15.6007 6.37626 15.627 6.33582 15.6446 6.29139C15.6622 6.24695 15.6707 6.19944 15.6696 6.15166C15.6685 6.10388 15.6578 6.05681 15.6382 6.01323Z" fill="#28D05B"/>
<path id="Vector_20" d="M14.6474 6.23331C14.3867 6.16333 14.1155 6.2463 13.9371 6.43984L12.7658 6.07422L11.899 6.98406L11.5311 8.35642C11.5269 8.3553 11.5227 8.35384 11.5185 8.35258C11.1376 8.25039 10.7462 8.47614 10.6438 8.857C10.5414 9.23786 10.7674 9.6295 11.1482 9.73187C11.5291 9.83406 11.9207 9.60831 12.0229 9.22745C12.0524 9.11777 12.057 9.00498 12.0332 8.89436C12.1062 9.11481 12.2868 9.29777 12.5279 9.36241C12.909 9.46436 13.3004 9.23842 13.4026 8.85756C13.4339 8.74075 13.4352 8.61789 13.4061 8.50052C13.4394 8.61654 13.5018 8.72212 13.5874 8.80722C13.8663 9.08608 14.3184 9.08608 14.597 8.80722C14.8759 8.52831 14.8759 8.07625 14.597 7.79739C14.5106 7.71108 14.4036 7.64831 14.2861 7.61505C14.6644 7.71189 15.051 7.48614 15.1522 7.10781C15.2544 6.72695 15.0285 6.33531 14.6474 6.23331Z" fill="#D9435B"/>
<path id="Vector_21" d="M13.6383 5.22417C13.1072 5.08214 12.6223 5.56968 12.7639 6.09853C12.6813 5.78906 12.3997 5.56973 12.0741 5.56973C11.9804 5.56957 11.8875 5.58795 11.8008 5.62383C11.7142 5.65971 11.6355 5.71238 11.5693 5.77879C11.2904 6.0577 11.2904 6.50976 11.5693 6.78862C11.6618 6.88159 11.7782 6.94708 11.9057 6.97781C11.5168 6.8639 11.1174 7.09481 11.0147 7.47876C10.9127 7.85962 11.139 8.25112 11.5199 8.35308C11.9009 8.45489 12.2924 8.22876 12.3942 7.84776C12.4266 7.7269 12.4266 7.59963 12.3942 7.47876C12.475 7.77468 12.7439 8.00756 13.084 8.00756C13.0851 8.00756 13.0862 8.00737 13.0873 8.00737C13.7151 8.00465 14.0389 7.23853 13.589 6.78862C13.5014 6.70041 13.392 6.63686 13.272 6.6044C13.6522 6.70443 14.0418 6.47845 14.1434 6.09853C14.2454 5.71743 14.0191 5.32617 13.6382 5.22417H13.6383Z" fill="#FF5368"/>
</g>
</g>
<defs>
<clipPath id="clip0_8966_12181">
<rect width="24" height="24" fill="white"/>
</clipPath>
</defs>
</svg>
