<svg width="24" height="24" viewBox="0 0 24 24" fill="none" xmlns="http://www.w3.org/2000/svg">
<g id="Frame">
<g id="Group">
<path id="Vector" d="M18.938 15.3039L17.7256 16.4867V19.5429L18.938 20.7255C19.4592 21.2338 20.4226 20.9713 20.5208 20.2942L21.0023 20.643C21.6548 21.1159 22.6278 20.6222 22.4817 19.893L22.393 19.4503L23.1297 18.9658C23.2949 18.8682 23.4318 18.7292 23.5269 18.5626C23.622 18.3959 23.6721 18.2073 23.6721 18.0155C23.6721 17.8236 23.622 17.635 23.5269 17.4684C23.4318 17.3017 23.2949 17.1627 23.1297 17.0651L22.393 16.5806L22.4817 16.1379C22.6278 15.4082 21.6548 14.9145 21.0023 15.3879L20.5208 15.7367C20.4228 15.0581 19.4594 14.7956 18.938 15.3039Z" fill="#A9DB1F"/>
<path id="Vector_2" d="M20.905 18.3428H17.7256C17.6386 18.3428 17.5551 18.3082 17.4936 18.2467C17.432 18.1851 17.3975 18.1017 17.3975 18.0146C17.3975 17.9276 17.432 17.8442 17.4936 17.7826C17.5551 17.7211 17.6386 17.6865 17.7256 17.6865H20.905C20.992 17.6865 21.0755 17.7211 21.137 17.7826C21.1986 17.8442 21.2331 17.9276 21.2331 18.0146C21.2331 18.1017 21.1986 18.1851 21.137 18.2467C21.0755 18.3082 20.992 18.3428 20.905 18.3428Z" fill="#00A400"/>
<path id="Vector_3" d="M17.7244 16.4646V19.564C17.7243 19.7763 17.6802 19.9864 17.595 20.1809C17.5098 20.3754 17.3853 20.5502 17.2292 20.6942C17.0732 20.8383 16.8891 20.9485 16.6884 21.0179C16.4877 21.0874 16.2748 21.1145 16.0631 21.0977L13.7719 20.9177L13.695 20.9121L13.1644 20.8708L13.1156 20.8671L12.1088 20.7883C12.1088 20.7883 10.5712 20.6608 8.60625 20.4115C8.39437 20.3852 8.17688 20.3571 7.95563 20.3271C4.56563 19.8696 0.328125 19.0877 0.328125 18.0152C0.328125 16.5958 7.76063 15.6808 10.8188 15.3658C11.0681 15.3396 11.2875 15.3171 11.4713 15.3002C11.8744 15.2608 12.1088 15.2421 12.1088 15.2421L15.345 14.989L15.9975 14.9383H15.9994L16.0631 14.9327C16.2747 14.9156 16.4876 14.9426 16.6882 15.0118C16.8889 15.081 17.0731 15.191 17.2291 15.3349C17.3852 15.4788 17.5098 15.6535 17.595 15.8479C17.6802 16.0424 17.7243 16.2523 17.7244 16.4646Z" fill="#FF9000"/>
<g id="Group_2">
<path id="Vector_4" d="M16.0009 14.9629V17.4941C16.0009 17.5811 15.9664 17.6646 15.9048 17.7261C15.8433 17.7877 15.7598 17.8222 15.6728 17.8222C15.5858 17.8222 15.5023 17.7877 15.4408 17.7261C15.3793 17.6646 15.3447 17.5811 15.3447 17.4941V14.9891L15.9972 14.9385H15.9991C16.0007 14.9465 16.0013 14.9547 16.0009 14.9629ZM13.7716 17.796V20.9179L13.6947 20.9122L13.1641 20.871L13.1153 20.8672V17.796C13.1153 17.709 13.1499 17.6255 13.2114 17.564C13.273 17.5024 13.3564 17.4679 13.4434 17.4679C13.5305 17.4679 13.6139 17.5024 13.6755 17.564C13.737 17.6255 13.7716 17.709 13.7716 17.796ZM11.4747 15.3322V17.4941C11.4747 17.5811 11.4401 17.6646 11.3786 17.7261C11.3171 17.7877 11.2336 17.8222 11.1466 17.8222C11.0595 17.8222 10.9761 17.7877 10.9146 17.7261C10.853 17.6646 10.8184 17.5811 10.8184 17.4941V15.366C11.0678 15.3397 11.2872 15.3172 11.4709 15.3004C11.4741 15.3107 11.4754 15.3215 11.4747 15.3322ZM8.61157 18.3997V20.3685C8.61167 20.383 8.60978 20.3976 8.60595 20.4116C8.39407 20.3854 8.17657 20.3572 7.95532 20.3272V18.3997C7.95532 18.3127 7.98989 18.2292 8.05143 18.1677C8.11296 18.1062 8.19642 18.0716 8.28345 18.0716C8.37047 18.0716 8.45393 18.1062 8.51547 18.1677C8.577 18.2292 8.61157 18.3127 8.61157 18.3997Z" fill="#FF641A"/>
</g>
<path id="Vector_5" d="M6.51102 7.47155C6.84182 6.92759 7.30849 6.47908 7.86514 6.17012L7.96902 6.10993L7.02964 4.4873L6.92595 4.5473C5.84764 5.17093 5.35939 6.23705 5.2197 7.43855C3.53352 7.6178 2.07289 8.65262 1.19727 10.009L2.9292 9.88693L4.21245 10.8533L5.73683 9.90418L7.26158 10.8533L8.54464 9.88693L10.2766 10.009C9.85963 9.34765 9.30945 8.78046 8.66111 8.34357C8.01278 7.90669 7.28051 7.6097 6.51102 7.47155Z" fill="#A9DB1F"/>
<path id="Vector_6" d="M3.05625 16.5813C5.21681 16.0392 8.18381 15.6541 10.1237 15.4398C10.7935 14.728 11.1605 13.7838 11.1469 12.8065C11.1302 11.8105 10.8284 10.8402 10.2772 10.0105L8.54531 9.88844L7.26225 10.8548L5.7375 9.90495L4.21294 10.8541L2.92969 9.8877L1.19775 10.0098C0.646445 10.8397 0.344646 11.8103 0.328125 12.8065C0.328125 14.6029 1.4265 15.9149 3.05625 16.5813Z" fill="#FF641A"/>
<path id="Vector_7" d="M16.0632 14.9316C16.2749 14.9148 16.4878 14.9419 16.6885 15.0113C16.8892 15.0807 17.0734 15.1909 17.2295 15.3348C17.3856 15.4788 17.5102 15.6535 17.5955 15.848C17.6809 16.0425 17.7251 16.2525 17.7254 16.4648V16.4866L18.0674 16.1528C18.234 14.1091 18.985 12.127 19.5752 10.843C18.8814 11.3685 18.0559 11.6922 17.1899 11.7783C16.9649 12.5238 16.773 12.8363 16.6559 13.5983C16.6482 13.6466 16.6235 13.6905 16.5863 13.7222C16.5491 13.7539 16.5019 13.7713 16.453 13.7712C16.4041 13.7713 16.3568 13.7539 16.3196 13.7222C16.2825 13.6905 16.2578 13.6466 16.2501 13.5983C16.1329 12.8363 15.9409 12.5238 15.7161 11.7783C14.8502 11.6921 14.025 11.3684 13.3313 10.843C13.9568 12.18 14.414 13.5895 14.6924 15.0391L16.0632 14.9316Z" fill="#A9DB1F"/>
<path id="Vector_8" d="M22.1407 7.38908C22.2692 6.95628 22.2758 6.49645 22.16 6.06011C22.0442 5.62376 21.8103 5.22779 21.4841 4.91567C21.1579 4.60355 20.752 4.38737 20.311 4.29087C19.87 4.19436 19.4109 4.22128 18.9842 4.36864C18.7295 3.92209 18.3611 3.55086 17.9166 3.29265C17.472 3.03444 16.967 2.89844 16.4529 2.89844C15.9388 2.89844 15.4339 3.03444 14.9893 3.29265C14.5448 3.55086 14.1764 3.92209 13.9217 4.36864C13.495 4.22185 13.0361 4.19536 12.5954 4.29208C12.1546 4.3888 11.749 4.60499 11.423 4.91695C11.097 5.22892 10.8631 5.62462 10.7471 6.06068C10.631 6.49674 10.6373 6.95634 10.7651 7.38908C10.4313 7.55998 10.1512 7.81969 9.95553 8.1396C9.75988 8.45951 9.65632 8.82721 9.65625 9.20221V9.21027C9.8854 9.45857 10.093 9.72591 10.2769 10.0094C10.4855 10.332 10.6609 10.6748 10.8006 11.0326C11.1783 11.2185 11.6045 11.2824 12.0201 11.2154C12.4358 11.1484 12.8203 10.9539 13.1205 10.6587C13.8463 11.3639 15.0675 11.8272 16.4526 11.8272C17.8376 11.8272 19.0588 11.3639 19.7846 10.6587C19.9943 10.8642 20.2459 11.0219 20.5221 11.1212C20.7984 11.2204 21.0929 11.2588 21.3854 11.2337C21.6779 11.2087 21.9615 11.1207 22.2168 10.9758C22.4722 10.831 22.6932 10.6327 22.8648 10.3945C23.0364 10.1563 23.1545 9.88388 23.2111 9.59581C23.2677 9.30775 23.2614 9.01087 23.1926 8.72548C23.1238 8.44009 22.9941 8.17293 22.8125 7.94227C22.6309 7.71162 22.4017 7.52292 22.1404 7.38908H22.1407Z" fill="#00A400"/>
</g>
</g>
</svg>
