<svg width="24" height="24" viewBox="0 0 24 24" fill="none" xmlns="http://www.w3.org/2000/svg">
<g id="Frame" clip-path="url(#clip0_8966_12298)">
<g id="Group">
<path id="Vector" d="M22.6275 19.2931L22.2536 19.2557L21.832 18.5989L21.8124 18.0843L21.7177 13.2615C21.7118 11.6344 21.9296 10.8688 21.3812 8.21445L20.3968 4.11448L19.7292 3.16113H9.92814L9.11279 3.71374L8.64948 6.46226L9.01984 7.03671L8.42143 7.81526C8.1457 9.44944 8.00711 11.1038 8.00711 12.7611L7.97767 18.2367L8.45865 18.5989L7.97382 18.961V18.9612H7.86615C7.3929 18.9612 7.00928 19.3448 7.00928 19.818V20.3386L7.96159 21.1954H22.3292L23.0013 20.4146L23.0387 19.9784C23.0387 19.5052 23.1007 19.2931 22.6275 19.2931Z" fill="#DE955E"/>
<path id="Vector_2" d="M10.9059 6.53041C10.9849 6.5328 11.0639 6.53852 11.142 6.55061C11.8841 6.66536 12.5821 6.96138 13.1904 7.42328C13.6418 7.76613 14.026 8.19353 14.3216 8.67466C14.3332 8.69348 14.349 8.70942 14.3677 8.72128C14.3863 8.73313 14.4075 8.74059 14.4295 8.7431C15.5715 8.8796 16.4597 9.85417 16.4597 11.0324C16.4597 11.7447 16.135 12.3826 15.6258 12.8058C15.5779 12.8457 15.5623 12.9122 15.5856 12.97C16.2248 14.5529 16.5848 16.2441 16.6414 17.9561C16.6422 17.9764 16.6472 17.9963 16.6561 18.0146C16.6651 18.0329 16.6777 18.0491 16.6933 18.0621C17.1295 18.4335 17.4261 18.9643 17.4923 19.5634C17.4956 19.594 17.5085 19.6226 17.5293 19.6455C17.9029 20.0572 18.1242 20.6027 18.1242 21.1954H8.00781V10.2708L8.65 6.46216L10.9059 6.53041Z" fill="#CB7D50"/>
<path id="Vector_3" d="M16.2624 17.0376L16.5892 17.1341H19.1673C19.2185 17.1341 19.2677 17.1138 19.3039 17.0775C19.3401 17.0413 19.3605 16.9922 19.3605 16.941V15.1287C19.3605 15.0775 19.3401 15.0284 19.3039 14.9921C19.2677 14.9559 19.2185 14.9355 19.1673 14.9355H16.2203L15.8013 15.0321L16.2624 17.0376Z" fill="#FFE177"/>
<path id="Vector_4" d="M11.148 17.1341C11.0968 17.1341 11.0476 17.1138 11.0114 17.0775C10.9752 17.0413 10.9548 16.9922 10.9548 16.941V15.1287C10.9548 15.0775 10.9752 15.0284 11.0114 14.9921C11.0476 14.9559 11.0968 14.9355 11.148 14.9355H16.2199C16.3987 15.6579 16.522 16.3929 16.5888 17.1341H11.148Z" fill="#FFD15B"/>
<path id="Vector_5" d="M15.8202 11.311L16.293 11.8891H17.9356C17.9868 11.8891 18.036 11.8688 18.0722 11.8326C18.1084 11.7963 18.1288 11.7472 18.1288 11.696V5.98907C18.1288 5.93784 18.1084 5.8887 18.0722 5.85248C18.036 5.81625 17.9868 5.7959 17.9356 5.7959H12.355C12.3038 5.7959 12.2547 5.81625 12.2184 5.85248C12.1822 5.8887 12.1619 5.93784 12.1619 5.98907V6.83446L12.6424 7.80074L15.8202 11.311Z" fill="#F5F8F9"/>
<path id="Vector_6" d="M12.355 11.3489C12.3038 11.3489 12.2547 11.3286 12.2184 11.2924C12.1822 11.2561 12.1619 11.207 12.1619 11.1558V6.83496C12.5286 6.98568 12.8742 7.1836 13.1897 7.42371C13.6417 7.76698 14.0263 8.19504 14.3221 8.67687C14.3334 8.69513 14.3486 8.71059 14.3668 8.72208C14.3849 8.73357 14.4054 8.74079 14.4267 8.7432C15.5698 8.87876 16.4591 9.8538 16.4591 11.0327C16.4591 11.3263 16.4027 11.6172 16.293 11.8895H14.1535L12.355 11.3489Z" fill="#E8EDF2"/>
<path id="Vector_7" d="M10.2452 7.96387C10.2425 7.96387 10.2332 7.96523 10.2306 7.96523C9.673 7.43681 8.23985 7.17773 8.23985 7.17773L7.56203 7.17802C7.05571 7.29903 6.58797 7.54546 6.20186 7.89464C6.16574 7.9273 6.11879 7.94541 6.0701 7.94545C4.42694 7.94892 3.13975 9.22636 3.03466 10.8426C2.92099 12.5909 4.29414 14.1152 6.04535 14.1667C6.91108 14.1921 7.70008 13.8637 8.27861 13.3154L8.28644 13.3155L8.29427 13.3154C8.88358 13.8738 9.69114 14.2042 10.5758 14.1649C12.1714 14.094 13.0848 12.807 13.1592 11.2116C13.2424 9.42553 12.0128 7.96387 10.2452 7.96387Z" fill="#FFE177"/>
<g id="Group_2">
<path id="Vector_8" d="M6.84524 13.3152L6.83741 13.3153L6.82959 13.3152C6.43368 13.6908 5.94578 13.9554 5.41504 14.0824C5.65207 14.1391 5.89493 14.1678 6.13865 14.1679C6.65155 14.1679 7.13526 14.0435 7.56177 13.8236C7.30014 13.6888 7.0589 13.5177 6.84524 13.3152ZM10.5036 7.94534C10.4545 7.94554 10.407 7.92736 10.3706 7.89438C9.8189 7.3962 9.08793 7.09277 8.28609 7.09277C8.03662 7.09277 7.79413 7.1224 7.56168 7.17785C8.06892 7.29911 8.53745 7.5462 8.92401 7.8963C8.96086 7.92972 9.00899 7.94795 9.05873 7.94735C10.7945 7.92841 12.0961 9.3267 12.0961 11.0566C12.0961 12.5256 11.0776 13.7561 9.70846 14.0824C9.94596 14.1392 10.1893 14.1679 10.4335 14.1679C12.1518 14.1679 13.5448 12.7749 13.5448 11.0566C13.5449 9.3349 12.227 7.9398 10.5036 7.94534Z" fill="#FFD15B"/>
</g>
<path id="Vector_9" d="M17.6963 21.8168L18.1242 22.0526H23.0431C23.5163 22.0526 23.9 21.669 23.9 21.1957C23.9 20.7225 23.5163 20.3389 23.0431 20.3389H17.9611L17.7025 20.583L17.6963 21.8168Z" fill="#CB7D50"/>
<path id="Vector_10" d="M17.9594 20.3389C18.0675 20.6116 18.1228 20.9024 18.1224 21.1957V22.0526H15.6509L15.0713 20.3389H17.9594Z" fill="#C07149"/>
<path id="Vector_11" d="M15.7456 19.8541C15.7456 19.3809 15.5832 19.1625 15.11 19.1624L14.7171 18.5311L14.6987 18.1904C14.6649 15.9566 14.0477 14.0849 12.9332 12.1505L12.5491 11.5498H3.32406L3.12662 11.8812C2.01193 13.8164 1.40925 16.004 1.37556 18.237L1.85701 18.5991L1.37411 18.9614H1.37396C0.900715 18.9614 0.51709 19.3451 0.51709 19.8183C0.517083 19.9743 0.561099 20.127 0.644074 20.259C0.727049 20.3911 0.845612 20.497 0.986121 20.5646L1.37406 20.7513H15.1999C15.4867 20.6133 15.7456 20.1723 15.7456 19.8541Z" fill="#F4B887"/>
<path id="Vector_12" d="M12.2948 17.1341H4.27594C4.2247 17.1341 4.17557 17.1138 4.13934 17.0775C4.10312 17.0413 4.08276 16.9922 4.08276 16.941V15.1287C4.08276 15.0775 4.10312 15.0284 4.13934 14.9921C4.17557 14.9559 4.2247 14.9355 4.27594 14.9355H12.2948C12.3461 14.9355 12.3952 14.9559 12.4314 14.9921C12.4677 15.0284 12.488 15.0775 12.488 15.1287V16.941C12.488 16.9922 12.4677 17.0413 12.4314 17.0775C12.3952 17.1138 12.3461 17.1341 12.2948 17.1341Z" fill="#F5F8F9"/>
<g id="Group_3">
<path id="Vector_13" d="M13.9633 20.3389H14.8384L15.2621 20.4211L15.537 21.0457L15.6516 22.0526H0.755801C0.282551 22.0526 -0.101074 21.669 -0.101074 21.1957C-0.101074 20.7225 0.282551 20.3388 0.755801 20.3388H13.9633V20.3389ZM12.2778 11.793L11.9792 11.8895H2.42033C1.94708 11.8895 1.56346 11.5059 1.56346 11.0327C1.56346 10.5594 1.94708 10.1758 2.42033 10.1758H11.9792L12.203 10.2723L12.2778 11.793ZM3.66519 18.5992C3.66514 18.6952 3.62697 18.7873 3.55906 18.8552C3.49116 18.9231 3.39907 18.9613 3.30304 18.9613H1.37385V18.4345C1.37385 18.3688 1.37432 18.3027 1.3753 18.237H3.30304C3.40297 18.237 3.4933 18.2776 3.55897 18.3432C3.59272 18.3768 3.61948 18.4166 3.63771 18.4606C3.65594 18.5045 3.66528 18.5516 3.66519 18.5992ZM13.2951 18.237C13.1991 18.2371 13.107 18.2752 13.0391 18.3431C12.9712 18.411 12.933 18.5031 12.933 18.5992C12.933 18.6991 12.9735 18.7899 13.0392 18.8551C13.0728 18.8888 13.1126 18.9156 13.1566 18.9338C13.2005 18.952 13.2476 18.9614 13.2951 18.9613H14.8483V18.237H13.2951V18.237Z" fill="#EAA978"/>
</g>
<path id="Vector_14" d="M20.0505 18.5985C20.0506 18.6946 20.0887 18.7867 20.1567 18.8546C20.2246 18.9225 20.3167 18.9607 20.4127 18.9607H22.3168L22.3129 18.2363H20.4127C20.3651 18.2363 20.318 18.2456 20.2741 18.2639C20.2302 18.2821 20.1903 18.3088 20.1568 18.3425C20.123 18.3761 20.0963 18.416 20.078 18.4599C20.0598 18.5038 20.0505 18.551 20.0505 18.5985Z" fill="#CB7D50"/>
<path id="Vector_15" d="M22.4246 18.9612H22.3169V18.9611L22.313 18.2367L22.2836 12.7611C22.2836 11.1039 22.145 9.44948 21.8693 7.81531L21.1779 3.71374L20.3626 3.16113L19.7292 3.71374L20.4206 7.81531C20.6963 9.44948 20.8349 11.1039 20.8349 12.7611L20.8644 18.2367L20.8682 18.9611V18.9612H20.9759C21.4491 18.9612 21.8328 19.3448 21.8328 19.8181V20.3386L20.8805 21.1955H22.3291L23.2814 20.3386V19.8181C23.2814 19.3448 22.8978 18.9612 22.4246 18.9612Z" fill="#CB7D50"/>
<path id="Vector_16" d="M22.3163 18.9616H20.8677L20.8638 18.2373H22.3124L22.3163 18.9616Z" fill="#C07149"/>
<path id="Vector_17" d="M16.0563 19.8185C16.0563 20.1367 15.8743 20.4264 15.5874 20.5645L15.1997 20.7514H15.0814C14.9394 20.5187 14.5883 20.7843 14.5883 20.7843V19.8185C14.5883 19.5818 14.4927 19.3674 14.3372 19.2124C14.1847 19.0594 13.9799 18.9698 13.764 18.9618L13.7302 18.2369C13.6966 16.0039 13.094 13.8163 11.9793 11.8811L11.7817 11.5498H13.2498L13.4473 11.8811C14.562 13.8163 15.1647 16.0039 15.1982 18.2369C14.8959 18.4083 14.7903 18.8276 15.1997 18.9613C15.6729 18.9613 16.0563 19.3452 16.0563 19.8185Z" fill="#EAA978"/>
<path id="Vector_18" d="M15.2006 18.4339V18.9607H13.765L13.7312 18.2363H15.1992C15.2002 18.302 15.2006 18.3682 15.2006 18.4339Z" fill="#DE955E"/>
<path id="Vector_19" d="M6.89316 9.22236C7.09318 9.22236 7.25532 9.06022 7.25532 8.8602C7.25532 8.66019 7.09318 8.49805 6.89316 8.49805C6.69315 8.49805 6.53101 8.66019 6.53101 8.8602C6.53101 9.06022 6.69315 9.22236 6.89316 9.22236Z" fill="#FFD15B"/>
<path id="Vector_20" d="M15.8177 20.3389H14.5876C15.0609 20.3389 15.4424 20.7225 15.4424 21.1957V22.0526H15.8176C16.2909 22.0526 16.6745 21.669 16.6745 21.1957C16.6746 20.7225 16.2909 20.3389 15.8177 20.3389Z" fill="#DE955E"/>
<path id="Vector_21" d="M23.0428 20.3389H21.833C22.3063 20.3389 22.6675 20.7225 22.6675 21.1957V22.0526H23.0428C23.516 22.0526 23.8996 21.669 23.8996 21.1957C23.8996 20.7225 23.516 20.3389 23.0428 20.3389Z" fill="#C07149"/>
<path id="Vector_22" d="M8.28672 8.52509C8.48673 8.52509 8.64887 8.36295 8.64887 8.16294C8.64887 7.96292 8.48673 7.80078 8.28672 7.80078C8.0867 7.80078 7.92456 7.96292 7.92456 8.16294C7.92456 8.36295 8.0867 8.52509 8.28672 8.52509Z" fill="#FFD15B"/>
<path id="Vector_23" d="M9.68222 9.22236C9.88224 9.22236 10.0444 9.06022 10.0444 8.8602C10.0444 8.66019 9.88224 8.49805 9.68222 8.49805C9.48221 8.49805 9.32007 8.66019 9.32007 8.8602C9.32007 9.06022 9.48221 9.22236 9.68222 9.22236Z" fill="#FFD15B"/>
<path id="Vector_24" d="M14.1548 11.8895C14.6281 11.8895 15.0117 11.5059 15.0117 11.0327C15.0117 10.5594 14.6281 10.1758 14.1548 10.1758H11.981V11.8895H14.1548Z" fill="#DE955E"/>
<path id="Vector_25" d="M19.9141 2.09656L19.7294 2H9.00287C8.52962 2 8.146 2.38363 8.146 2.85688C8.146 3.33013 8.52962 3.71375 9.00287 3.71375H19.7294L19.9047 3.61719L19.9141 2.09656Z" fill="#CB7D50"/>
<path id="Vector_26" d="M22.1449 2.85688C22.1449 2.38363 21.7613 2 21.288 2H19.7292V3.71375H21.288C21.7613 3.71375 22.1449 3.33013 22.1449 2.85688Z" fill="#C07149"/>
</g>
</g>
<defs>
<clipPath id="clip0_8966_12298">
<rect width="24" height="24" fill="white"/>
</clipPath>
</defs>
</svg>
