<svg width="24" height="24" viewBox="0 0 24 24" fill="none" xmlns="http://www.w3.org/2000/svg">
<g id="Frame">
<g id="Group">
<path id="Vector" d="M1.67993 4.45215H5.73678V7.62005H1.67993V4.45215Z" fill="#DDEAFB"/>
<path id="Vector_2" d="M4.24927 4.45215H5.73642V7.62005H4.24927V4.45215Z" fill="#CBE2FF"/>
<path id="Vector_3" d="M6.01748 5.49848H1.39917C1.14028 5.49848 0.93042 5.28862 0.93042 5.02973V3.87305C0.93042 3.61416 1.14028 3.4043 1.39917 3.4043H6.01748C6.27637 3.4043 6.48623 3.61416 6.48623 3.87305V5.02973C6.48623 5.28862 6.27637 5.49848 6.01748 5.49848Z" fill="#A298A5"/>
<path id="Vector_4" d="M6.01748 3.4043H5.50186V4.04536C5.50186 4.30425 5.292 4.51411 5.03311 4.51411H0.93042V5.02973C0.93042 5.28862 1.14028 5.49848 1.39917 5.49848H6.01748C6.27637 5.49848 6.48623 5.28862 6.48623 5.02973V3.87305C6.48623 3.61416 6.27637 3.4043 6.01748 3.4043Z" fill="#8B818E"/>
<path id="Vector_5" d="M7.06491 9.37128C7.06491 9.37128 7.34822 9.25395 7.36598 9.19287C7.39946 9.07779 7.41646 8.95854 7.41647 8.83869V7.92931C7.41647 7.53406 7.09603 7.21362 6.70078 7.21362H0.715688C0.320437 7.21362 0 7.53406 0 7.92931V8.83869C0 8.95958 0.0172969 9.07873 0.0504844 9.19287C0.06825 9.25395 0.351562 9.37128 0.351562 9.37128H7.06491Z" fill="#CBE2FF"/>
<path id="Vector_6" d="M5.42492 7.92931V8.83869C5.42492 9.02426 5.38413 9.20572 5.30773 9.37128H7.06521C7.06521 9.37128 7.34853 9.25395 7.36629 9.19287C7.39977 9.07779 7.41677 8.95854 7.41677 8.83869V7.92931C7.41677 7.53406 7.09634 7.21362 6.70109 7.21362H4.70923C5.10448 7.21362 5.42492 7.53406 5.42492 7.92931Z" fill="#BED8FB"/>
<path id="Vector_7" d="M14.6508 7.45216H9.95313L9.8125 6.53781V3.96484H14.7915V6.53781L14.6508 7.45216Z" fill="#DDEAFB"/>
<path id="Vector_8" d="M14.7913 7.51162V6.53784H9.81232V7.51162C9.81232 7.9244 9.66204 8.32303 9.38951 8.63306L9.2629 8.77706C8.99038 9.08708 8.84008 9.48573 8.84009 9.8985V10.9892L9.20965 13.9402L8.84009 16.9094V18.4C8.84009 18.7952 9.16052 19.1157 9.55577 19.1157H15.0478C15.4431 19.1157 15.7635 18.7952 15.7635 18.4V16.9094L15.3268 13.9402L15.7635 10.9892V9.8985C15.7635 9.48572 15.6132 9.08709 15.3407 8.77706L15.2141 8.63306C14.9416 8.32303 14.7913 7.92438 14.7913 7.51162Z" fill="#CCF49F"/>
<path id="Vector_9" d="M13.3167 3.96484V7.45216H14.6507L14.7913 6.53781V3.96484H13.3167Z" fill="#CBE2FF"/>
<path id="Vector_10" d="M15.3407 8.77706L15.2141 8.63306C14.9416 8.32304 14.7913 7.92439 14.7913 7.51162V6.53784H13.3167V7.51162C13.3167 7.92439 13.467 8.32303 13.7395 8.63306L13.8661 8.77706C14.1386 9.08708 14.2889 9.48573 14.2889 9.8985V18.4C14.2889 18.7953 13.9684 19.1157 13.5732 19.1157H15.0478C15.4431 19.1157 15.7635 18.7952 15.7635 18.4V16.9094L15.3268 13.9402L15.7635 10.9892V9.8985C15.7635 9.48576 15.6132 9.08709 15.3407 8.77706Z" fill="#B3E59F"/>
<path id="Vector_11" d="M14.9881 1.64198L14.9467 1.60964C14.846 1.531 14.7219 1.48828 14.5942 1.48828H10.0095C9.88179 1.48828 9.75771 1.53098 9.65702 1.60964L9.61558 1.64198C9.37404 1.83069 9.17867 2.07195 9.0443 2.34744C8.90992 2.62293 8.84009 2.92542 8.84009 3.23194C8.84009 3.53845 8.90992 3.84094 9.0443 4.11644C9.17867 4.39193 9.37404 4.63319 9.61558 4.82189L9.65702 4.85423C9.75769 4.93288 9.88177 4.9756 10.0095 4.97559H14.5942C14.7219 4.97559 14.846 4.93289 14.9467 4.85423L14.9881 4.82189C15.2297 4.63319 15.425 4.39193 15.5594 4.11644C15.6938 3.84094 15.7636 3.53845 15.7636 3.23194C15.7636 2.92542 15.6938 2.62293 15.5594 2.34744C15.425 2.07195 15.2297 1.83069 14.9881 1.64198Z" fill="#A298A5"/>
<path id="Vector_12" d="M14.9877 1.64198L14.9462 1.60964C14.8456 1.531 14.7215 1.48828 14.5937 1.48828H12.9834C13.1111 1.48828 13.2352 1.53103 13.3359 1.60964L13.3773 1.64198C13.6189 1.83069 13.8143 2.07195 13.9486 2.34744C14.083 2.62293 14.1528 2.92542 14.1528 3.23194C14.1528 3.53845 14.083 3.84094 13.9486 4.11644C13.8143 4.39193 13.6189 4.63319 13.3773 4.82189L13.3359 4.85423C13.2352 4.93288 13.1111 4.9756 12.9834 4.97559H14.5937C14.7215 4.97559 14.8456 4.93284 14.9462 4.85423L14.9877 4.82189C15.2292 4.63319 15.4246 4.39193 15.559 4.11644C15.6933 3.84094 15.7632 3.53845 15.7632 3.23194C15.7632 2.92542 15.6933 2.62293 15.559 2.34744C15.4246 2.07195 15.2292 1.83069 14.9877 1.64198Z" fill="#8B818E"/>
<path id="Vector_13" d="M18.0486 7.21362H23.0276V11.1722H18.0486V7.21362Z" fill="#DDEAFB"/>
<path id="Vector_14" d="M21.4707 7.21362H23.0272V11.1722H21.4707V7.21362Z" fill="#CBE2FF"/>
<path id="Vector_15" d="M23.7652 7.7931H17.3105C17.2484 7.7931 17.1888 7.76841 17.1448 7.72445C17.1009 7.6805 17.0762 7.62089 17.0762 7.55873V6.25293C17.0762 5.60573 17.6008 5.08105 18.248 5.08105H22.8277C23.4749 5.08105 23.9996 5.60573 23.9996 6.25293V7.55873C23.9996 7.62089 23.9749 7.6805 23.931 7.72445C23.887 7.76841 23.8274 7.7931 23.7652 7.7931Z" fill="#AA8080"/>
<path id="Vector_16" d="M22.9594 5.08862C22.9642 5.13184 22.9669 5.17572 22.9669 5.22025V6.52605C22.9669 6.58821 22.9422 6.64782 22.8983 6.69177C22.8543 6.73573 22.7947 6.76042 22.7325 6.76042H17.0762V7.55875C17.0762 7.62091 17.1009 7.68052 17.1448 7.72448C17.1888 7.76843 17.2484 7.79312 17.3105 7.79312H23.7652C23.8274 7.79312 23.887 7.76843 23.931 7.72448C23.9749 7.68052 23.9996 7.62091 23.9996 7.55875V6.25295C23.9996 5.65023 23.5445 5.15406 22.9594 5.08862Z" fill="#9D6B6B"/>
<path id="Vector_17" d="M15.7635 10.9897H14.1057C14.0549 10.9897 14.0055 10.9735 13.9646 10.9435C13.9237 10.9134 13.8935 10.871 13.8784 10.8226C13.67 10.1499 13.043 9.66113 12.3018 9.66113C11.5606 9.66113 10.9336 10.1498 10.7252 10.8226C10.7101 10.871 10.6799 10.9134 10.639 10.9435C10.5981 10.9735 10.5487 10.9897 10.4979 10.9897H8.84009V16.9099H15.7635V10.9897Z" fill="#A298A5"/>
<path id="Vector_18" d="M23.0247 15.0969C23.0247 15.0969 23.5849 13.7607 23.7012 13.2846C23.7206 13.2053 23.7414 13.1271 23.7636 13.0504C23.9145 12.5293 23.9996 11.9914 23.9996 11.449C23.9996 10.7776 23.4554 10.2334 22.784 10.2334H18.2917C17.6204 10.2334 17.0762 10.7776 17.0762 11.449C17.0762 11.9914 17.1613 12.5293 17.3122 13.0504C17.4677 13.5874 17.555 14.1912 17.555 14.8295C17.555 15.4678 17.4677 16.0716 17.3122 16.6087C17.1613 17.1297 17.0762 17.6676 17.0762 18.2101V18.214C17.0762 18.6859 17.4587 19.0684 17.9306 19.0684H23.1452C23.6171 19.0684 23.9996 18.6858 23.9996 18.214V18.2101C23.9996 17.7712 23.9439 17.3353 23.8427 16.909C23.8188 16.8083 23.0247 15.0969 23.0247 15.0969Z" fill="#CCF49F"/>
<path id="Vector_19" d="M23.9995 11.449C23.9995 10.7776 23.4552 10.2334 22.7839 10.2334H21.4707C22.142 10.2334 22.6863 10.7776 22.6863 11.449C22.6863 11.9914 22.6011 12.5293 22.4503 13.0504C22.2947 13.5874 22.2074 14.1912 22.2074 14.8295C22.2074 15.4678 22.2947 16.0716 22.4503 16.6087C22.6011 17.1297 22.6863 17.6676 22.6863 18.2101V18.214C22.6863 18.6859 22.3037 19.0684 21.8319 19.0684H23.1451C23.617 19.0684 23.9995 18.6858 23.9995 18.214V18.2101C23.9995 17.7712 23.9437 17.3353 23.8426 16.909C23.8187 16.8083 23.0246 15.097 23.0246 15.097C23.0246 15.097 23.5847 13.7607 23.701 13.2847C23.7204 13.2053 23.7412 13.1272 23.7635 13.0504C23.9143 12.5293 23.9995 11.9914 23.9995 11.449Z" fill="#B3E59F"/>
<path id="Vector_20" d="M23.3194 9.37096H17.7563C17.6614 9.37096 17.5704 9.33326 17.5032 9.26615C17.4361 9.19904 17.3984 9.10802 17.3984 9.01312C17.3984 8.91821 17.4361 8.82719 17.5032 8.76008C17.5704 8.69297 17.6614 8.65527 17.7563 8.65527H23.3194C23.5171 8.65527 23.6772 8.81549 23.6772 9.01312C23.6772 9.21074 23.5171 9.37096 23.3194 9.37096Z" fill="#BED8FB"/>
<path id="Vector_21" d="M14.2891 10.9893H15.7637V16.9095H14.2891V10.9893Z" fill="#8B818E"/>
<path id="Vector_22" d="M7.07152 9.70969C7.20915 9.56329 7.3101 9.38634 7.36608 9.19336H0.0503906C0.10638 9.38633 0.207329 9.56328 0.344953 9.70969L1.04423 10.4535C1.69181 11.1423 1.69261 12.2158 1.04606 12.9055L0.343641 13.6549C0.122864 13.8904 1.25297e-06 14.2011 0 14.524V18.4005C0 18.7958 0.320437 19.1162 0.715688 19.1162H6.70078C7.09608 19.1162 7.41647 18.7957 7.41647 18.4005V14.524C7.41647 14.2011 7.29361 13.8904 7.07283 13.6548L6.37045 12.9055C5.72391 12.2157 5.7247 11.1422 6.37228 10.4535L7.07152 9.70969Z" fill="#F4DDB1"/>
<path id="Vector_23" d="M4.70929 19.1162H6.70115C7.09645 19.1162 7.41684 18.7958 7.41684 18.4005V14.524C7.41684 14.2012 7.29398 13.8904 7.0732 13.6549L6.37082 12.9055C5.72427 12.2158 5.72507 11.1423 6.37265 10.4535L7.07188 9.70969C7.20952 9.56329 7.31047 9.38634 7.36645 9.19336H5.37459C5.3186 9.38633 5.21765 9.56328 5.08002 9.70969L4.38074 10.4535C3.73316 11.1423 3.73237 12.2158 4.37891 12.9055L5.08129 13.6549C5.30207 13.8904 5.42494 14.2012 5.42493 14.524V18.4005C5.42502 18.7958 5.10459 19.1162 4.70929 19.1162Z" fill="#EFCB84"/>
<path id="Vector_24" d="M3.70858 15.863C4.52815 15.863 5.19255 15.3271 5.19255 14.6659C5.19255 14.0047 4.52815 13.4688 3.70858 13.4688C2.889 13.4688 2.22461 14.0047 2.22461 14.6659C2.22461 15.3271 2.889 15.863 3.70858 15.863Z" fill="#AA8080"/>
<path id="Vector_25" d="M5.63862 17.6825H1.77752C1.57985 17.6825 1.41968 17.5223 1.41968 17.3246C1.41968 17.127 1.57985 16.9668 1.77752 16.9668H5.63862C5.83629 16.9668 5.99646 17.127 5.99646 17.3246C5.99646 17.5223 5.83629 17.6825 5.63862 17.6825Z" fill="#AA8080"/>
<path id="Vector_26" d="M5.63873 17.6825C5.8364 17.6825 5.99658 17.5223 5.99658 17.3246C5.99658 17.127 5.8364 16.9668 5.63873 16.9668H5.42456V17.6825H5.63873Z" fill="#9D6B6B"/>
<path id="Vector_27" d="M13.9126 13.5262H10.6909C10.4932 13.5262 10.333 13.366 10.333 13.1684C10.333 12.9708 10.4932 12.8105 10.6909 12.8105H13.9126C14.1102 12.8105 14.2704 12.9708 14.2704 13.1684C14.2704 13.366 14.1102 13.5262 13.9126 13.5262ZM13.9126 15.0091H10.6909C10.4932 15.0091 10.333 14.8489 10.333 14.6513C10.333 14.4537 10.4932 14.2934 10.6909 14.2934H13.9126C14.1102 14.2934 14.2704 14.4537 14.2704 14.6513C14.2704 14.8489 14.1102 15.0091 13.9126 15.0091Z" fill="#756E78"/>
<path id="Vector_28" d="M18.9915 13.2852C18.9282 13.2852 18.8675 13.3104 18.8228 13.3551C18.7781 13.3998 18.7529 13.4605 18.7529 13.5237V16.671C18.7529 16.7342 18.7781 16.7949 18.8228 16.8396C18.8675 16.8844 18.9282 16.9095 18.9915 16.9095H23.8423C23.8186 16.8088 23.7925 16.7086 23.764 16.6091C23.6084 16.072 23.5211 15.4683 23.5211 14.8299C23.5211 14.2827 23.5857 13.7613 23.702 13.2852H18.9915V13.2852Z" fill="#F9EFDA"/>
<path id="Vector_29" d="M23.7641 16.6091C23.6085 16.072 23.5212 15.4683 23.5212 14.8299C23.5212 14.2827 23.5858 13.7613 23.7021 13.2852H22.3889C22.2726 13.7613 22.208 14.2827 22.208 14.8299C22.208 15.4682 22.2953 16.072 22.4509 16.6091C22.4794 16.7086 22.5055 16.8088 22.5292 16.9095H23.8424C23.8187 16.8088 23.7926 16.7086 23.7641 16.6091Z" fill="#EFCB84"/>
<path id="Vector_30" d="M20.3516 17.9361C20.2855 17.9362 20.2207 17.9179 20.1644 17.8834C20.1081 17.8489 20.0624 17.7995 20.0324 17.7406C20.0111 17.6988 19.9982 17.6531 19.9945 17.6063C19.9908 17.5594 19.9964 17.5123 20.0109 17.4676C20.0254 17.4229 20.0486 17.3815 20.0791 17.3458C20.1097 17.31 20.1469 17.2807 20.1888 17.2593C20.684 17.007 21.0514 16.5769 21.2231 16.0484C21.3949 15.5198 21.3505 14.9559 21.0982 14.4607C21.0768 14.4189 21.064 14.3732 21.0603 14.3264C21.0566 14.2795 21.0622 14.2324 21.0767 14.1877C21.0912 14.143 21.1144 14.1016 21.1449 14.0659C21.1754 14.0301 21.2127 14.0008 21.2546 13.9794C21.2964 13.9581 21.3421 13.9452 21.3889 13.9415C21.4358 13.9378 21.4829 13.9434 21.5276 13.9579C21.5723 13.9725 21.6137 13.9956 21.6494 14.0262C21.6852 14.0567 21.7145 14.0939 21.7359 14.1358C22.075 14.8013 22.1346 15.5591 21.9038 16.2695C21.673 16.98 21.1793 17.5579 20.5138 17.897C20.4636 17.9227 20.408 17.9361 20.3516 17.9361Z" fill="#95D6A4"/>
<path id="Vector_31" d="M19.283 16.5788L19.2812 16.5789C18.828 16.5963 18.4053 16.8074 18.1148 17.1557C16.7675 18.7709 14.5448 19.5244 12.4264 18.9225C11.8072 18.7466 11.2451 18.472 10.7511 18.1213C10.4226 17.888 9.99304 18.2265 10.1431 18.6004C10.8053 20.2502 12.1661 21.6058 13.988 22.1998C16.8702 23.1396 19.9297 21.8893 21.3514 19.3156C21.5895 18.8844 21.6092 18.3657 21.412 17.9143C21.2326 17.5035 20.9334 17.1562 20.5536 16.918C20.1738 16.6797 19.731 16.5615 19.283 16.5788Z" fill="#DD636E"/>
<path id="Vector_32" d="M21.412 17.9146C21.1779 17.3787 20.7426 16.9562 20.1999 16.7383C20.3032 17.129 20.2568 17.5482 20.0587 17.9068C18.6372 20.4805 15.5776 21.7308 12.6954 20.791C11.966 20.5532 11.3107 20.193 10.7444 19.741C11.4921 20.8623 12.6075 21.7499 13.988 22.2001C16.8702 23.1399 19.9297 21.8896 21.3513 19.3159C21.5894 18.8848 21.6091 18.366 21.412 17.9146Z" fill="#DA4A54"/>
</g>
</g>
</svg>
