<svg width="24" height="24" viewBox="0 0 24 24" fill="none" xmlns="http://www.w3.org/2000/svg">
<g id="Frame" clip-path="url(#clip0_8966_11743)">
<g id="Group">
<path id="Vector" d="M5.34653 9.84621C5.25048 9.84621 5.15837 9.80806 5.09045 9.74014C5.02253 9.67222 4.98438 9.5801 4.98438 9.48405V7.45493C4.98438 7.35888 5.02253 7.26676 5.09045 7.19885C5.15837 7.13093 5.25048 7.09277 5.34653 7.09277C5.44258 7.09277 5.5347 7.13093 5.60261 7.19885C5.67053 7.26676 5.70869 7.35888 5.70869 7.45493V9.48405C5.70869 9.53162 5.69933 9.57871 5.68113 9.62265C5.66293 9.6666 5.63626 9.70652 5.60263 9.74015C5.569 9.77378 5.52907 9.80046 5.48513 9.81866C5.44119 9.83685 5.39409 9.84622 5.34653 9.84621Z" fill="#78C2A4"/>
<path id="Vector_2" d="M8.66069 14.8036C8.99212 14.2264 9.16618 13.5723 9.16544 12.9067C9.16544 10.9742 7.73041 9.37688 5.86788 9.12221C5.69711 9.09887 5.52273 9.18418 5.34555 9.18418C3.23584 9.18418 2.57031 10.7971 2.57031 12.9067C2.57031 13.5973 2.64231 14.2445 2.81228 14.8036H8.66069Z" fill="#E5646E"/>
<path id="Vector_3" d="M3.21209 14.8035C2.88074 14.2263 2.70675 13.5722 2.70753 12.9066C2.70753 11.9203 3.08131 11.0214 3.695 10.3437L3.19588 10.0947L3.14806 10.205L2.44644 10.4189C1.87236 11.0873 1.52539 11.9565 1.52539 12.9066C1.52539 13.5972 1.70961 14.2444 2.03014 14.8035H3.21209Z" fill="#DB4655"/>
<path id="Vector_4" d="M5.24801 9.17802C4.18535 9.6337 4.0023 9.3412 3.30176 10.1568L3.66902 10.3449L3.91315 10.3301C4.1435 10.3161 4.37278 10.3711 4.57163 10.4883C4.77048 10.6054 4.92984 10.7792 5.02929 10.9874L5.2151 11.3765C5.2676 11.4864 5.42407 11.4864 5.47657 11.3765L5.66238 10.9874C5.76183 10.7792 5.92119 10.6054 6.12004 10.4883C6.31889 10.3711 6.54817 10.3161 6.77852 10.3301L8.24398 10.4191C7.65049 9.7282 6.8148 9.25134 5.86821 9.12173C5.69735 9.09834 5.41085 9.10818 5.24801 9.17802Z" fill="#B3E59F"/>
<path id="Vector_5" d="M5.9236 9.12967C5.73255 9.1006 5.53958 9.08598 5.34634 9.08594C4.18684 9.08594 3.14879 9.60325 2.44824 10.4188L3.66957 10.3446C4.24599 9.70717 5.03434 9.26509 5.9236 9.12967Z" fill="#95D6A4"/>
<path id="Vector_6" d="M12.2796 0.775056C12.2461 0.767048 12.2164 0.747745 12.1955 0.7204C11.9367 0.380791 11.5619 0.134416 11.13 0.0409C11.005 0.0138531 10.8773 0.0771813 10.7442 0.0771813C10.1512 0.0771813 9.76375 0.417634 9.43004 0.855541C9.40917 0.882908 9.37948 0.902218 9.346 0.910197C8.66546 1.07529 8.47801 1.58684 8.55535 2.33393C8.62135 2.97157 8.68426 3.35042 9.31614 3.45851C9.48301 3.48706 9.6767 3.58938 9.83082 3.56398C9.919 3.54945 10.3497 4.08209 10.3497 4.17148L10.725 6.06963H11.5346V3.74857C11.5346 3.72759 11.5392 3.70685 11.548 3.68781C11.5568 3.66877 11.5697 3.65187 11.5857 3.6383C11.6017 3.62474 11.6205 3.61482 11.6407 3.60925C11.6609 3.60367 11.6821 3.60257 11.7028 3.60602C11.8628 3.6323 12.0261 3.63161 12.1859 3.60401C12.8177 3.49606 13.3088 2.97185 13.3749 2.33426C13.4525 1.58703 12.9602 0.940197 12.2796 0.775056Z" fill="#B3E59F"/>
<path id="Vector_7" d="M10.5571 3.60642C10.403 3.63183 10.2407 3.63291 10.0739 3.60441C9.44198 3.49636 8.95096 2.97202 8.88496 2.33437C8.80766 1.58728 9.2999 0.940594 9.98043 0.7755C10.0139 0.767503 10.0436 0.748197 10.0645 0.720844C10.3232 0.381281 10.6983 0.135609 11.1302 0.0420938C11.0028 0.0142796 10.8728 0.000168054 10.7425 0C10.1495 0 9.62277 0.282891 9.28907 0.720797C9.2682 0.748164 9.2385 0.767474 9.20502 0.775453C8.52449 0.940547 8.03226 1.58723 8.10955 2.33433C8.17555 2.97197 8.66657 3.49631 9.29844 3.60436C9.46532 3.63291 9.6276 3.63183 9.78173 3.60637C9.80242 3.60293 9.82362 3.60404 9.84385 3.60961C9.86408 3.61519 9.88285 3.62511 9.89885 3.63867C9.91486 3.65224 9.92772 3.66913 9.93654 3.68817C9.94535 3.70721 9.94992 3.72794 9.94991 3.74892V6.06998H10.7253V3.74897C10.7253 3.72799 10.7208 3.70726 10.7119 3.68822C10.7031 3.66918 10.6903 3.65229 10.6743 3.63872C10.6583 3.62515 10.6395 3.61524 10.6193 3.60966C10.599 3.60408 10.5778 3.60298 10.5571 3.60642Z" fill="#95D6A4"/>
<path id="Vector_8" d="M11.744 14.6476C11.755 14.734 11.7712 14.8196 11.7925 14.9041H19.8539C19.8748 14.8203 19.8914 14.7349 19.9024 14.6476C20.995 14.5293 21.8456 13.6042 21.8456 12.4802C21.8456 11.276 20.8694 10.2998 19.6652 10.2998C19.2983 10.2993 18.9372 10.3918 18.6157 10.5688C18.6157 10.5661 18.616 10.5634 18.616 10.5607C18.616 9.20693 17.6527 8.07813 16.3742 7.82229C16.1961 7.78666 16.0119 7.88407 15.8232 7.88407C14.2809 7.88407 13.2396 9.13657 13.2396 10.6789C13.2396 10.6817 13.0307 10.566 13.0307 10.5687C12.7092 10.3918 12.3482 10.2992 11.9812 10.2997C10.777 10.2997 9.80078 11.2759 9.80078 12.4802C9.80073 13.6042 10.6514 14.5293 11.744 14.6476Z" fill="#B3E59F"/>
<path id="Vector_9" d="M12.903 14.6481C11.8104 14.5299 10.9598 13.6048 10.9598 12.4808C10.9598 11.4774 11.6377 10.6329 12.5602 10.3789C12.3716 10.3268 12.1769 10.3004 11.9812 10.3003C10.777 10.3003 9.80078 11.2765 9.80078 12.4808C9.80078 13.6048 10.6514 14.5299 11.744 14.6481C11.8788 15.723 12.7953 16.5547 13.9067 16.5547H15.0656C13.9543 16.5547 13.0378 15.723 12.903 14.6481ZM13.1402 10.3003C13.5071 10.2998 13.8682 10.3924 14.1897 10.5693C14.1897 10.5666 14.1895 10.5639 14.1895 10.5612C14.1895 9.2176 15.1385 8.09593 16.4027 7.82912C16.2122 7.78885 16.018 7.76856 15.8232 7.76855C14.368 7.76855 13.1734 8.8817 13.0429 10.3028C13.0752 10.3014 13.1076 10.3003 13.1402 10.3003Z" fill="#95D6A4"/>
<path id="Vector_10" d="M9.96811 14.8035H12.5465L13.0895 12.1751L12.0653 11.7435L13.2391 11.4508L13.5397 9.99635L13.0424 9.6342L13.6878 9.27945L13.8541 8.47474C13.8989 8.25761 13.9211 8.03641 13.9203 7.81469C13.9199 7.69455 13.2604 7.52023 13.2466 7.40098C13.2326 7.2813 13.8642 7.21666 13.8368 7.09901C13.8017 6.94837 13.7558 6.80047 13.6993 6.65646L13.4051 5.90576C13.3107 5.66499 13.146 5.45826 12.9323 5.31254C12.7187 5.16681 12.4661 5.08887 12.2075 5.08887H10.119C9.58979 5.08887 9.1111 5.43752 8.91797 5.93023L8.62374 6.68093C8.3971 7.25923 8.42958 7.8664 8.55525 8.4747L9.96811 14.8035Z" fill="#FFC269"/>
<path id="Vector_11" d="M7.796 9.2794L8.62812 9.63415L7.94412 9.9963L8.24464 11.4508L9.00626 11.8129L8.39426 12.1751L8.93726 14.8034H10.0962L8.78872 8.4747C8.66305 7.86643 8.71681 7.23475 8.94345 6.65646L9.23769 5.90576C9.33205 5.66499 9.49679 5.45826 9.71043 5.31254C9.92406 5.16681 10.1766 5.08887 10.4352 5.08887H9.27631C9.01771 5.08887 8.76512 5.16681 8.55149 5.31254C8.33786 5.45826 8.17311 5.66499 8.07875 5.90576L7.78451 6.65646C7.72882 6.79858 7.68334 6.9445 7.64843 7.0931C7.62064 7.21146 8.19987 7.33484 8.18567 7.4553C8.17151 7.57577 7.56392 7.69334 7.5635 7.81469C7.56269 8.03641 7.58491 8.25761 7.62978 8.47474L7.796 9.2794Z" fill="#FFA95F"/>
<path id="Vector_12" d="M23.18 4.25118L23.192 4.24719C23.279 4.2185 23.279 4.09546 23.192 4.06677L23.1799 4.06279C22.9241 3.97835 22.6919 3.8347 22.5021 3.64352C22.3123 3.45234 22.1704 3.21904 22.0879 2.96263C22.0592 2.87568 21.9362 2.87577 21.9075 2.96272L21.9036 2.97486C21.8198 3.22859 21.6778 3.45916 21.4889 3.64809C21.2999 3.83702 21.0694 3.97905 20.8156 4.06279L20.8035 4.06677C20.7165 4.09546 20.7165 4.2185 20.8035 4.24719L20.8156 4.25118C21.0714 4.33561 21.3037 4.47926 21.4934 4.67044C21.6832 4.86162 21.8251 5.09492 21.9076 5.35133C21.9363 5.43829 22.0593 5.43819 22.088 5.35124L22.0919 5.33919C22.1757 5.08544 22.3177 4.85484 22.5067 4.66589C22.6956 4.47695 22.9262 4.33491 23.18 4.25118Z" fill="#FFC269"/>
<path id="Vector_13" d="M22.5601 23.9997H2.57105L1.74418 23.831C1.48529 23.831 1.44043 23.7899 1.44043 23.531L1.82771 16.7435L3.16168 15.6895H16.7469L23.0288 16.5542V23.531C23.0289 23.7899 22.819 23.9997 22.5601 23.9997Z" fill="#F4DBB3"/>
<path id="Vector_14" d="M2.20018 23.5168V15.6895H0.97168V23.5168C0.97168 23.7835 1.18787 23.9997 1.45459 23.9997H2.68309C2.41637 23.9997 2.20018 23.7835 2.20018 23.5168Z" fill="#EAC89F"/>
<path id="Vector_15" d="M23.5311 16.554H1.73512C1.47623 16.554 0.604492 16.42 0.604492 16.1611L0.874492 14.8027C0.874492 14.5438 1.50998 14.0371 1.76887 14.0371H23.5311C23.7899 14.0371 23.9998 14.247 23.9998 14.5059V16.0852C23.9998 16.3441 23.7899 16.554 23.5311 16.554Z" fill="#D2AF8C"/>
<path id="Vector_16" d="M1.4603 16.0711V14.52C1.4603 14.2533 1.67648 14.0371 1.9432 14.0371H0.482906C0.216188 14.0372 0 14.2533 0 14.5201V16.0712C0 16.3379 0.216188 16.5541 0.482906 16.5541H1.9432C1.67648 16.554 1.4603 16.3378 1.4603 16.0711Z" fill="#C69B75"/>
<path id="Vector_17" d="M13.4709 20.5321H10.5295C9.97063 20.5321 9.51758 20.0791 9.51758 19.5202V19.4592C9.51758 18.9003 9.97063 18.4473 10.5295 18.4473H13.4709C14.0297 18.4473 14.4828 18.9003 14.4828 19.4592V19.5202C14.4828 20.0791 14.0297 20.5321 13.4709 20.5321Z" fill="#D2AF8C"/>
<path id="Vector_18" d="M5.17606 2.48816L5.18811 2.48418C5.27506 2.45549 5.27506 2.33244 5.18811 2.30375L5.17597 2.29977C4.92018 2.21535 4.68795 2.07169 4.4982 1.88051C4.30846 1.68933 4.16655 1.45603 4.08406 1.19961C4.05537 1.11266 3.93237 1.11275 3.90368 1.19971L3.8997 1.21185C3.81596 1.46558 3.67392 1.69615 3.48498 1.88508C3.29605 2.07401 3.06546 2.21604 2.81173 2.29977L2.79959 2.30375C2.71264 2.33244 2.71264 2.45549 2.79959 2.48418L2.81173 2.48816C3.06752 2.57259 3.29975 2.71625 3.4895 2.90743C3.67926 3.09861 3.82117 3.3319 3.90368 3.58832C3.93237 3.67527 4.05537 3.67518 4.08406 3.58822L4.08804 3.57618C4.17179 3.32243 4.31383 3.09184 4.50277 2.90289C4.69172 2.71395 4.92231 2.57191 5.17606 2.48816ZM19.3647 1.96335L19.3822 1.95758C19.5083 1.91596 19.5083 1.73755 19.3822 1.69593L19.3646 1.69011C18.9966 1.56863 18.6622 1.36261 18.3882 1.08857C18.1141 0.814524 17.9081 0.480084 17.7867 0.112066L17.7809 0.0945352C17.7393 -0.0316054 17.5609 -0.0314648 17.5193 0.0946758L17.5135 0.112254C17.392 0.480246 17.186 0.814659 16.912 1.08867C16.638 1.36269 16.3036 1.56867 15.9356 1.69011L15.918 1.69593C15.7919 1.73755 15.7919 1.91596 15.918 1.95758L15.9356 1.96339C16.3036 2.08487 16.638 2.2909 16.9121 2.56494C17.1861 2.83898 17.3921 3.17342 17.5135 3.54144L17.5193 3.55897C17.5609 3.68511 17.7393 3.68497 17.7809 3.55883L17.7867 3.54135C17.9081 3.17332 18.1142 2.83888 18.3882 2.56484C18.6622 2.2908 18.9967 2.0848 19.3647 1.96335Z" fill="#FFC269"/>
<path id="Vector_19" d="M16.5485 10.6793C16.5009 10.6793 16.4538 10.6699 16.4099 10.6517C16.3659 10.6335 16.326 10.6069 16.2924 10.5732C16.2587 10.5396 16.2321 10.4997 16.2139 10.4557C16.1957 10.4118 16.1863 10.3647 16.1863 10.3171C16.1862 10.255 16.1615 10.1954 16.1176 10.1515C16.0737 10.1075 16.0141 10.0828 15.9519 10.0827C15.8898 10.0828 15.8302 10.1075 15.7863 10.1514C15.7423 10.1954 15.7176 10.255 15.7175 10.3171C15.7175 10.4132 15.6794 10.5053 15.6114 10.5732C15.5435 10.6411 15.4514 10.6793 15.3554 10.6793C15.2593 10.6793 15.1672 10.6411 15.0993 10.5732C15.0314 10.5053 14.9932 10.4132 14.9932 10.3171C14.9932 9.78848 15.4233 9.3584 15.952 9.3584C16.4806 9.3584 16.9107 9.78848 16.9107 10.3171C16.9107 10.4132 16.8725 10.5053 16.8046 10.5732C16.7367 10.6411 16.6445 10.6793 16.5485 10.6793ZM19.8384 12.9588C19.7909 12.9588 19.7438 12.9494 19.6998 12.9312C19.6559 12.913 19.616 12.8863 19.5823 12.8527C19.5487 12.8191 19.522 12.7792 19.5038 12.7352C19.4856 12.6913 19.4763 12.6442 19.4763 12.5966C19.4763 12.4674 19.3711 12.3622 19.2419 12.3622C19.1126 12.3622 19.0074 12.4673 19.0074 12.5966C19.0074 12.6927 18.9693 12.7848 18.9014 12.8527C18.8335 12.9206 18.7413 12.9588 18.6453 12.9588C18.5492 12.9588 18.4571 12.9206 18.3892 12.8527C18.3213 12.7848 18.2831 12.6927 18.2831 12.5966C18.2831 12.068 18.7132 11.6379 19.2419 11.6379C19.7706 11.6379 20.2007 12.068 20.2007 12.5966C20.2007 12.6927 20.1625 12.7848 20.0946 12.8527C20.0266 12.9206 19.9345 12.9588 19.8384 12.9588ZM15.6754 12.9588C15.6278 12.9588 15.5807 12.9494 15.5368 12.9312C15.4928 12.913 15.4529 12.8863 15.4193 12.8527C15.3857 12.8191 15.359 12.7792 15.3408 12.7352C15.3226 12.6913 15.3132 12.6442 15.3132 12.5966C15.3132 12.5345 15.2884 12.4749 15.2445 12.4309C15.2005 12.387 15.141 12.3623 15.0788 12.3622C14.9496 12.3622 14.8444 12.4673 14.8444 12.5966C14.8444 12.6927 14.8063 12.7848 14.7384 12.8527C14.6704 12.9206 14.5783 12.9588 14.4823 12.9588C14.3862 12.9588 14.2941 12.9206 14.2262 12.8527C14.1583 12.7848 14.1201 12.6927 14.1201 12.5966C14.1201 12.068 14.5502 11.6379 15.0789 11.6379C15.6076 11.6379 16.0376 12.068 16.0376 12.5966C16.0376 12.6927 15.9994 12.7848 15.9315 12.8527C15.8636 12.9206 15.7714 12.9588 15.6754 12.9588Z" fill="#78C2A4"/>
<g id="Group_2">
<path id="Vector_20" d="M9.6161 7.09277H8.80835C8.80835 7.09277 7.70182 7.33788 7.70093 7.5806C7.71508 7.58229 8.72374 7.81713 8.72374 7.81713H9.6161C9.71144 7.81605 9.80251 7.77741 9.86955 7.70961C9.93659 7.6418 9.97418 7.5503 9.97418 7.45495C9.97418 7.3596 9.93659 7.2681 9.86955 7.2003C9.80251 7.13249 9.71144 7.09386 9.6161 7.09277ZM9.6161 9.27162H8.95432L8.24557 9.47032C8.22044 9.47032 8.21027 9.51077 8.1866 9.51565L8.6906 9.75284L9.10399 9.99598H9.6161C9.71215 9.99598 9.80426 9.95782 9.87218 9.8899C9.9401 9.82199 9.97826 9.72987 9.97826 9.63382C9.97826 9.58626 9.9689 9.53916 9.9507 9.49521C9.9325 9.45127 9.90583 9.41134 9.8722 9.37771C9.83857 9.34407 9.79864 9.31739 9.7547 9.29919C9.71076 9.28099 9.66366 9.27162 9.6161 9.27162ZM9.9783 11.8126C9.9783 11.7166 9.94015 11.6245 9.87223 11.5565C9.80431 11.4886 9.7122 11.4505 9.61615 11.4505H9.40455L8.98352 11.7319L8.69069 12L9.55422 12.1748H9.61619C9.71223 12.1748 9.80434 12.1366 9.87225 12.0687C9.94015 12.0008 9.9783 11.9087 9.9783 11.8126Z" fill="#F49751"/>
</g>
<path id="Vector_21" d="M8.808 7.09277H7.64906C7.5936 7.3293 7.56521 7.57137 7.56445 7.81432C7.57861 7.81601 7.59291 7.81713 7.60753 7.81713H8.72339C8.72394 7.57325 8.75233 7.33022 8.808 7.09277ZM7.86984 9.27162C7.84472 9.27162 7.82025 9.27419 7.79658 9.27907L7.9447 9.99598H9.10364L8.95397 9.27162H7.86984ZM8.24517 11.4505L8.39484 12.1748H9.55378L9.40411 11.4505H8.24517Z" fill="#F27144"/>
<path id="Vector_22" d="M11.8688 7.09282C11.7727 7.09282 11.6806 7.13098 11.6127 7.19889C11.5448 7.26681 11.5066 7.35893 11.5066 7.45498C11.5066 7.55103 11.5448 7.64314 11.6127 7.71106C11.6806 7.77898 11.7727 7.81713 11.8688 7.81713H13.877C13.8916 7.81713 13.9059 7.81601 13.9201 7.81432C13.9193 7.57138 13.8909 7.32931 13.8355 7.09277H11.8688V7.09282ZM13.6879 9.27907C13.6638 9.27411 13.6392 9.27161 13.6146 9.27162H11.8687C11.7727 9.27162 11.6806 9.30977 11.6127 9.37769C11.5447 9.44561 11.5066 9.53772 11.5066 9.63377C11.5066 9.72982 11.5447 9.82194 11.6127 9.88986C11.6806 9.95777 11.7727 9.99593 11.8687 9.99593H13.5398L13.6879 9.27907ZM13.2393 11.4505H11.8688C11.7727 11.4505 11.6806 11.4887 11.6127 11.5566C11.5448 11.6245 11.5066 11.7166 11.5066 11.8127C11.5066 11.9087 11.5448 12.0008 11.6127 12.0687C11.6806 12.1367 11.7727 12.1748 11.8688 12.1748H13.0897L13.2393 11.4505Z" fill="#F49751"/>
</g>
</g>
<defs>
<clipPath id="clip0_8966_11743">
<rect width="24" height="24" fill="white"/>
</clipPath>
</defs>
</svg>
