<svg width="24" height="24" viewBox="0 0 24 24" fill="none" xmlns="http://www.w3.org/2000/svg">
<g id="Frame" clip-path="url(#clip0_8966_11888)">
<g id="Group">
<path id="Vector" d="M13.79 1.364V3.87969H0.766602V1.36452C0.766602 1.2456 0.922695 1.18082 1.02512 1.25727L1.5287 1.63316C1.76584 1.81016 2.11159 1.81016 2.34877 1.63321L2.8637 1.24897C3.10088 1.07197 3.44668 1.07202 3.68382 1.24907L4.19813 1.63302C4.43532 1.81011 4.78116 1.81011 5.01835 1.63302L5.53266 1.24907C5.7698 1.07202 6.1156 1.07197 6.35279 1.24897L6.86776 1.63325C7.1049 1.81021 7.4506 1.81021 7.68774 1.63325L8.20271 1.24897C8.4399 1.07197 8.7857 1.07202 9.02284 1.24907L9.53724 1.63311C9.77438 1.81016 10.1202 1.81021 10.3574 1.63321L10.8723 1.24893C11.1094 1.07197 11.4551 1.07197 11.6923 1.24893L12.2073 1.63321C12.4445 1.81021 12.7902 1.81016 13.0274 1.63316L13.5316 1.2568C13.6339 1.1803 13.79 1.24508 13.79 1.364ZM13.79 22.1479V19.6322H0.766602V22.1473C0.766602 22.2663 0.922695 22.3311 1.02512 22.2546L1.5287 21.8787C1.76584 21.7017 2.11159 21.7017 2.34877 21.8787L2.8637 22.2629C3.10088 22.4399 3.44668 22.4398 3.68382 22.2628L4.19813 21.8788C4.43532 21.7018 4.78116 21.7018 5.01835 21.8788L5.53266 22.2628C5.7698 22.4398 6.1156 22.4399 6.35279 22.2629L6.86776 21.8786C7.1049 21.7017 7.4506 21.7017 7.68774 21.8786L8.20271 22.2629C8.4399 22.4399 8.7857 22.4398 9.02284 22.2628L9.53724 21.8788C9.77438 21.7017 10.1202 21.7017 10.3574 21.8787L10.8723 22.2629C11.1094 22.4399 11.4551 22.4399 11.6923 22.2629L12.2073 21.8787C12.4445 21.7017 12.7902 21.7017 13.0274 21.8787L13.5316 22.2551C13.6339 22.3316 13.79 22.2668 13.79 22.1479Z" fill="#E3E0E4"/>
<path id="Vector_2" d="M13.5315 1.25666L13.0273 1.63302C12.7901 1.81002 12.4444 1.81007 12.2072 1.63307L11.9502 1.4413V3.8796H13.7899V1.36391C13.7899 1.24499 13.6339 1.18021 13.5315 1.25666ZM11.9502 19.6321V22.0704L12.2072 21.8786C12.4444 21.7016 12.7901 21.7017 13.0273 21.8787L13.5315 22.255C13.6339 22.3315 13.7899 22.2667 13.7899 22.1478V19.6321H11.9502Z" fill="#C5BEC6"/>
<path id="Vector_3" d="M13.79 19.6327H0.766758C-0.255586 14.4211 -0.255586 9.09145 0.766758 3.87988H13.79C14.8124 9.09145 14.8124 14.4211 13.79 19.6327Z" fill="#80B6FC"/>
<path id="Vector_4" d="M9.76508 12.2306L9.16096 12.4229L8.00075 11.753L9.16096 11.0832L9.76508 11.2754C9.80164 11.2871 9.83858 11.2926 9.875 11.2926C9.96137 11.2925 10.0448 11.2615 10.1104 11.2052C10.1759 11.149 10.2192 11.0712 10.2324 10.9858C10.2457 10.9005 10.228 10.8132 10.1826 10.7398C10.1372 10.6663 10.067 10.6115 9.98474 10.5852L9.54275 10.4446L9.64194 9.99153C9.6525 9.94493 9.65373 9.8967 9.64557 9.84963C9.6374 9.80255 9.62 9.75755 9.59437 9.71723C9.56874 9.67691 9.53538 9.64206 9.49622 9.61468C9.45706 9.58731 9.41287 9.56796 9.3662 9.55774C9.31953 9.54752 9.27129 9.54663 9.22427 9.55514C9.17726 9.56364 9.13239 9.58137 9.09225 9.60729C9.05212 9.63321 9.01751 9.66682 8.99042 9.70617C8.96333 9.74553 8.94429 9.78986 8.93441 9.83661L8.79885 10.4559L7.6386 11.1258V9.79118L8.10716 9.36415C8.17677 9.2991 8.21795 9.20924 8.22178 9.11405C8.2256 9.01885 8.19176 8.92597 8.12759 8.85555C8.06342 8.78513 7.97408 8.74283 7.87894 8.73781C7.7838 8.73279 7.69051 8.76546 7.61929 8.82875L7.27644 9.14117L6.93365 8.82875C6.86237 8.76584 6.76922 8.73347 6.6743 8.73864C6.57937 8.7438 6.49028 8.78607 6.42625 8.85634C6.36222 8.9266 6.32838 9.01922 6.33203 9.11422C6.33568 9.20921 6.37653 9.29896 6.44577 9.3641L6.91429 9.79114V11.1258L5.75849 10.4584L5.62297 9.83918C5.61283 9.79271 5.59363 9.74869 5.56646 9.70965C5.5393 9.6706 5.5047 9.63729 5.46465 9.61162C5.42461 9.58596 5.37989 9.56843 5.33307 9.56006C5.28625 9.55168 5.23823 9.55262 5.19177 9.56281C5.14531 9.57298 5.10131 9.5922 5.06227 9.61938C5.02324 9.64656 4.98995 9.68115 4.96429 9.7212C4.93863 9.76125 4.92111 9.80595 4.91273 9.85277C4.90434 9.89959 4.90527 9.9476 4.91544 9.99406L5.01458 10.4471L4.57265 10.5878C4.52732 10.6022 4.48528 10.6254 4.44893 10.6561C4.41258 10.6868 4.38262 10.7243 4.36078 10.7665C4.33893 10.8088 4.32562 10.8549 4.3216 10.9023C4.31759 10.9497 4.32295 10.9974 4.33738 11.0427C4.36069 11.116 4.40667 11.1799 4.46869 11.2253C4.5307 11.2706 4.60554 11.2951 4.68238 11.2952C4.7188 11.2952 4.75579 11.2896 4.7923 11.278L5.39638 11.0857L6.55218 11.753L5.39638 12.4203L4.7923 12.228C4.74698 12.2136 4.69926 12.2083 4.65187 12.2123C4.60448 12.2163 4.55835 12.2296 4.5161 12.2515C4.47386 12.2733 4.43633 12.3033 4.40567 12.3396C4.375 12.376 4.3518 12.418 4.33738 12.4633C4.32295 12.5087 4.31759 12.5564 4.3216 12.6038C4.32562 12.6512 4.33893 12.6973 4.36078 12.7396C4.38262 12.7818 4.41258 12.8193 4.44893 12.85C4.48528 12.8807 4.52732 12.9039 4.57265 12.9183L5.01458 13.0589L4.91544 13.512C4.89686 13.6051 4.91554 13.7017 4.96749 13.7812C5.01943 13.8606 5.10047 13.9165 5.19318 13.9368C5.28589 13.9571 5.38287 13.9402 5.46325 13.8897C5.54362 13.8392 5.60098 13.7592 5.62297 13.6669L5.75849 13.0476L6.91429 12.3803V13.72L6.44577 14.147C6.37653 14.2122 6.33568 14.3019 6.33203 14.3969C6.32838 14.4919 6.36222 14.5845 6.42625 14.6548C6.49028 14.7251 6.57937 14.7673 6.6743 14.7725C6.76922 14.7777 6.86237 14.7453 6.93365 14.6824L7.27644 14.37L7.61929 14.6824C7.68589 14.7433 7.77289 14.777 7.86313 14.7769C7.93619 14.7769 8.00754 14.7548 8.06782 14.7135C8.12809 14.6722 8.17447 14.6137 8.20087 14.5456C8.22726 14.4774 8.23244 14.4029 8.21572 14.3318C8.19899 14.2607 8.16115 14.1963 8.10716 14.147L7.6386 13.72V12.3803L8.79885 13.0502L8.93441 13.6694C8.95497 13.7632 9.01195 13.845 9.09281 13.8969C9.17367 13.9487 9.27179 13.9663 9.36561 13.9458C9.41208 13.9356 9.45608 13.9164 9.49512 13.8892C9.53415 13.862 9.56745 13.8274 9.59311 13.7874C9.61877 13.7473 9.63629 13.7026 9.64467 13.6558C9.65305 13.609 9.65212 13.561 9.64194 13.5145L9.54275 13.0615L9.98474 12.9208C10.0763 12.8917 10.1525 12.8274 10.1966 12.7421C10.2407 12.6568 10.2492 12.5574 10.22 12.4659C10.1909 12.3744 10.1266 12.2982 10.0413 12.254C9.95597 12.2099 9.85661 12.2015 9.76508 12.2306Z" fill="#EFEDEF"/>
<path id="Vector_5" d="M13.7899 3.87964H11.9502C12.9726 9.09115 12.9726 14.4206 11.9502 19.6321H13.7899C14.8123 14.4206 14.8123 9.09115 13.7899 3.87964Z" fill="#5392F9"/>
<path id="Vector_6" d="M16.2965 20.7952C17.7498 20.7952 18.928 19.617 18.928 18.1637C18.928 16.7104 17.7498 15.5322 16.2965 15.5322C14.8432 15.5322 13.665 16.7104 13.665 18.1637C13.665 19.617 14.8432 20.7952 16.2965 20.7952Z" fill="#E38523"/>
<path id="Vector_7" d="M12.1957 19.8896C13.649 19.8896 14.8271 18.7115 14.8271 17.2582C14.8271 15.8049 13.649 14.6267 12.1957 14.6267C10.7424 14.6267 9.56421 15.8049 9.56421 17.2582C9.56421 18.7115 10.7424 19.8896 12.1957 19.8896Z" fill="#EEC06B"/>
<path id="Vector_8" d="M10.4683 22.0108L9.70703 19.5557H22.4937L21.7324 22.0108C21.654 22.2637 21.4967 22.4849 21.2836 22.6419C21.0705 22.799 20.8127 22.8837 20.5479 22.8837H11.6528C11.388 22.8837 11.1302 22.799 10.9171 22.6419C10.7039 22.4849 10.5467 22.2637 10.4683 22.0108Z" fill="#655E67"/>
<path id="Vector_9" d="M21.0574 19.5557H9.70703L10.0293 20.5951H20.1212C20.426 20.5951 20.6436 20.8904 20.5533 21.1815L20.2962 22.0108C20.2178 22.2637 20.0605 22.4849 19.8474 22.6419C19.6342 22.799 19.3764 22.8837 19.1117 22.8837H20.5479C20.8126 22.8837 21.0704 22.799 21.2836 22.6419C21.4967 22.4848 21.654 22.2637 21.7324 22.0108L22.4936 19.5557H21.0574Z" fill="#544F56"/>
<path id="Vector_10" d="M20.0186 12.652L19.5022 12.4794C19.1188 12.3512 18.7041 12.5582 18.5759 12.9415L16.745 18.4196C16.6168 18.803 16.8238 19.2177 17.2072 19.3459L17.7236 19.5185C18.107 19.6466 18.5217 19.4397 18.6499 19.0563L20.4808 13.5782C20.609 13.1948 20.402 12.7801 20.0186 12.652Z" fill="#68B76A"/>
<path id="Vector_11" d="M22.9035 15.8921L22.6613 15.4044C22.4815 15.0423 22.0422 14.8946 21.6801 15.0743L16.5069 17.6433C16.1449 17.8231 15.9971 18.2623 16.1769 18.6244L16.4191 19.1121C16.5989 19.4742 17.0381 19.622 17.4002 19.4422L22.5734 16.8733C22.9355 16.6934 23.0833 16.2542 22.9035 15.8921Z" fill="#94D4A2"/>
<path id="Vector_12" d="M8.20117 18.3865V18.798C8.20117 19.2164 8.54036 19.5557 8.95881 19.5557H23.2429C23.6613 19.5557 24.0006 19.2165 24.0006 18.798V18.3865C24.0006 17.9681 23.6614 17.6289 23.2429 17.6289H8.95877C8.54036 17.629 8.20117 17.9681 8.20117 18.3865Z" fill="#655E67"/>
</g>
</g>
<defs>
<clipPath id="clip0_8966_11888">
<rect width="24" height="24" fill="white"/>
</clipPath>
</defs>
</svg>
