<svg width="24" height="24" viewBox="0 0 24 24" fill="none" xmlns="http://www.w3.org/2000/svg">
<g id="Frame" clip-path="url(#clip0_8966_11971)">
<g id="Group">
<g id="18-Picnic">
<path id="Vector" d="M3.20152 1.44C3.31537 1.55376 3.38057 1.7073 3.38337 1.86822C3.38617 2.02914 3.32634 2.18485 3.21652 2.3025L2.30152 3.2175C2.18387 3.32732 2.02816 3.38714 1.86724 3.38434C1.70632 3.38155 1.55279 3.31635 1.43902 3.2025L1.21777 2.98125L2.98027 1.21875L3.20152 1.44Z" fill="#B0AFB5"/>
<path id="Vector_2" d="M2.98059 1.21875L1.21809 2.98125L0.55809 2.32125C0.500061 2.26348 0.454014 2.19482 0.422594 2.1192C0.391174 2.04359 0.375 1.96251 0.375 1.88063C0.375 1.79875 0.391174 1.71767 0.422594 1.64205C0.454014 1.56644 0.500061 1.49777 0.55809 1.44L1.43934 0.558754C1.49716 0.500814 1.56584 0.454847 1.64145 0.423484C1.71706 0.39212 1.79811 0.375977 1.87996 0.375977C1.96182 0.375977 2.04287 0.39212 2.11848 0.423484C2.19409 0.454847 2.26277 0.500814 2.32059 0.558754L2.98059 1.21875Z" fill="#FFDC70"/>
<path id="Vector_3" d="M6.55797 8.17504C6.18946 7.99789 5.78893 7.89712 5.38047 7.87879V7.87129C5.27547 7.62379 5.16297 7.38379 5.04297 7.14754L6.72672 6.72754L7.14672 5.04004C7.42047 5.18254 7.70547 5.31379 7.99422 5.43004C8.13672 5.49004 8.28672 5.55004 8.43297 5.61754L7.82922 7.83004L6.55797 8.17504Z" fill="#ADA84F"/>
<path id="Vector_4" d="M2.30185 3.21711L3.21685 2.30211L3.41935 2.09961L4.29685 2.97711C5.13301 3.80958 6.09473 4.50555 7.14685 5.03961L6.72685 6.72711L5.0431 7.14711C4.50805 6.09464 3.81078 5.13288 2.97685 4.29711L2.1001 3.41961L2.30185 3.21711ZM11.2501 7.28961V10.3271C11.0218 10.458 10.8322 10.647 10.7004 10.8749C10.5687 11.1028 10.4996 11.3614 10.5001 11.6246H8.1556C8.21768 11.3794 8.24941 11.1275 8.2501 10.8746C8.25068 10.3111 8.0923 9.75875 7.79313 9.28116C7.49397 8.80356 7.06616 8.42002 6.55885 8.17461L7.8301 7.82961L8.43385 5.61711C9.45553 6.02136 10.4062 6.58595 11.2501 7.28961Z" fill="#F7F5FF"/>
<path id="Vector_5" d="M17.625 6.75C16.5 6 16.125 4.5 16.125 4.5C16.125 4.5 17.8463 4.5 18.645 5.82L18.2963 6.16125L17.6625 6.7875L17.625 6.75Z" fill="#6994D4"/>
<path id="Vector_6" d="M17.625 6.74972L17.6625 6.78722L18.2562 6.20109C17.7565 5.58489 17.0639 5.1549 16.29 4.98047C16.5538 5.68736 17.0177 6.30214 17.625 6.74972Z" fill="#4676BD"/>
<path id="Vector_7" d="M13.5 10.8825L13.365 11.0138C13.2936 10.8456 13.1904 10.6929 13.0613 10.5638C12.9676 10.4725 12.8631 10.3931 12.75 10.3275V7.875L16.125 4.5C16.125 4.5 16.5 6 17.625 6.75L17.6625 6.7875L16.2338 8.19L13.5 10.8825Z" fill="#A8CFF6"/>
<path id="Vector_8" d="M19.2599 8.76004C19.6687 9.99004 19.1249 11.625 19.1249 11.625C19.1249 11.25 18.9862 10.665 18.5808 9.44254C18.3241 8.63467 18.2099 7.7883 18.2433 6.94129C18.69 7.48066 19.0345 8.09701 19.2599 8.76004ZM21.1687 6.85129C21.3997 7.59308 21.3612 8.39263 21.0599 9.10879C20.9474 8.74879 20.7337 8.26129 20.4899 7.53379C20.2224 6.73109 20.1104 5.88471 20.1599 5.04004C20.6032 5.57765 20.945 6.19139 21.1687 6.85129ZM16.5333 11.49C16.2784 10.6805 16.1642 9.83319 16.1958 8.98504C16.6445 9.52499 16.9902 10.1427 17.2158 10.8075C17.3032 11.0718 17.3537 11.3469 17.3658 11.625H16.5783L16.5333 11.49Z" fill="#B37740"/>
<path id="Vector_9" d="M18.2434 6.94129C18.2389 7.09429 18.2381 7.26566 18.2434 7.45016C18.5119 7.85781 18.7274 8.29797 18.8847 8.76004C19.0588 9.39062 19.0857 10.0528 18.9634 10.6954C19.0554 10.9974 19.1097 11.3097 19.125 11.625C19.125 11.625 19.6688 9.99004 19.26 8.76004C19.0346 8.09701 18.6901 7.48066 18.2434 6.94129ZM21.1688 6.85129C20.9451 6.19139 20.6033 5.57765 20.16 5.04004C20.15 5.20484 20.1465 5.36997 20.1495 5.53504C20.4199 5.94432 20.6364 6.38671 20.7938 6.85129C20.9704 7.4028 20.9936 7.99197 20.8609 8.55566C20.9423 8.76979 21.0109 8.95241 21.06 9.10879C21.3612 8.39263 21.3998 7.59308 21.1688 6.85129ZM16.1959 8.98504C16.1914 9.13766 16.191 9.30904 16.1959 9.49316C16.466 9.90126 16.6825 10.3424 16.8402 10.8057C16.9275 11.07 16.978 11.3451 16.9901 11.6232H17.3651C17.353 11.3451 17.3025 11.07 17.2152 10.8057C16.9896 10.1416 16.6441 9.52448 16.1959 8.98504Z" fill="#8F5826"/>
<path id="Vector_10" d="M23.0777 4.67204C22.294 3.88829 21.139 4.04579 20.2127 4.52579C19.8625 4.70681 19.5414 4.9394 19.2602 5.21579L18.6449 5.81954L18.2961 6.16079L17.6627 6.78704L16.234 8.18954L13.5002 10.882L13.3652 11.0133C13.4557 11.2043 13.5019 11.4132 13.5002 11.6245H16.579L16.534 11.4895C16.2791 10.68 16.1649 9.8327 16.1965 8.98454C16.6452 9.52449 16.9909 10.1422 17.2165 10.807C17.3039 11.0713 17.3544 11.3464 17.3665 11.6245H19.1252C19.1252 11.2495 18.9865 10.6645 18.5811 9.44204C18.3244 8.63418 18.2102 7.78781 18.2436 6.94079C18.6903 7.48017 19.0348 8.09651 19.2602 8.75954C19.669 9.98954 19.1252 11.6245 19.1252 11.6245H19.399L19.774 11.2495L20.899 10.1245L22.534 8.48954C23.1877 7.83759 23.5765 6.96647 23.6252 6.04454C23.6312 5.79067 23.5858 5.53821 23.4918 5.30234C23.3977 5.06647 23.2568 4.85207 23.0777 4.67204ZM21.0602 9.10829C20.9477 8.74829 20.734 8.26079 20.4902 7.53329C20.2227 6.73059 20.1107 5.88421 20.1602 5.03954C20.6035 5.57715 20.9453 6.19089 21.169 6.85079C21.4 7.59258 21.3615 8.39214 21.0602 9.10829Z" fill="#EDAB6F"/>
<path id="Vector_11" d="M13.3646 11.0139C13.4553 11.2048 13.5015 11.4138 13.5 11.6251H10.5C10.4996 11.3617 10.5687 11.1028 10.7003 10.8746C10.8319 10.6463 11.0213 10.4569 11.2495 10.3253C11.4778 10.1937 11.7366 10.1246 12.0001 10.125C12.2635 10.1254 12.5222 10.1953 12.75 10.3276C12.8631 10.3932 12.9676 10.4726 13.0613 10.5639C13.1903 10.693 13.2933 10.8458 13.3646 11.0139Z" fill="#ADA84F"/>
<path id="Vector_12" d="M12.75 7.87501V10.3275C12.5223 10.1949 12.2635 10.125 12 10.125C11.7365 10.125 11.4777 10.1949 11.25 10.3275V1.12501C11.2506 0.926281 11.3298 0.73586 11.4703 0.595336C11.6108 0.454812 11.8013 0.375604 12 0.37501C12.0985 0.374486 12.196 0.393808 12.2869 0.431821C12.3777 0.469834 12.46 0.52576 12.5287 0.59626C12.5993 0.665017 12.6552 0.747272 12.6932 0.838117C12.7312 0.928962 12.7505 1.02653 12.75 1.12501V7.87501ZM21.75 11.625C21.9487 11.6256 22.1392 11.7048 22.2797 11.8453C22.4202 11.9859 22.4994 12.1763 22.5 12.375C22.4985 12.5735 22.419 12.7634 22.2787 12.9037C22.1384 13.044 21.9485 13.1235 21.75 13.125H19.9275L21 11.625H21.75ZM19.875 22.125C20.0737 22.1256 20.2642 22.2048 20.4047 22.3453C20.5452 22.4859 20.6244 22.6763 20.625 22.875C20.6235 23.0735 20.544 23.2634 20.4037 23.4037C20.2634 23.544 20.0735 23.6235 19.875 23.625H4.125C3.92627 23.6244 3.73585 23.5452 3.59533 23.4047C3.4548 23.2642 3.37559 23.0737 3.375 22.875C3.37647 22.6766 3.45596 22.4866 3.5963 22.3463C3.73663 22.206 3.92654 22.1265 4.125 22.125H19.875Z" fill="#B06C2F"/>
<path id="Vector_13" d="M20.4037 22.6537C20.335 22.7243 20.2527 22.7802 20.1619 22.8182C20.071 22.8562 19.9735 22.8755 19.875 22.875H4.125C3.99405 22.8743 3.86557 22.8393 3.75235 22.7735C3.63912 22.7077 3.5451 22.6134 3.47963 22.5C3.41173 22.6133 3.37559 22.7429 3.375 22.875C3.37559 23.0737 3.4548 23.2642 3.59533 23.4047C3.73585 23.5452 3.92627 23.6244 4.125 23.625H19.875C20.0735 23.6235 20.2634 23.544 20.4037 23.4037C20.544 23.2634 20.6235 23.0735 20.625 22.875C20.6241 22.7429 20.588 22.6135 20.5204 22.5C20.4884 22.5561 20.4492 22.6078 20.4037 22.6537Z" fill="#8F5826"/>
<path id="Vector_14" d="M14.5721 13.125H2.25C2.05127 13.1244 1.86085 13.0452 1.72033 12.9047C1.5798 12.7642 1.50059 12.5737 1.5 12.375C1.50147 12.1765 1.58096 11.9866 1.7213 11.8463C1.86163 11.706 2.05154 11.6265 2.25 11.625H13.5L14.5721 13.125Z" fill="#B06C2F"/>
<path id="Vector_15" d="M4.12402 22.125L2.24902 13.125H14.5719L17.2494 16.875L19.9273 13.125H21.7498L19.8748 22.125H4.12402Z" fill="#EDAB6F"/>
<path id="Vector_16" d="M13.4995 11.625L14.572 13.125L17.2495 16.875L19.9274 13.125L20.9999 11.625H13.4995Z" fill="#FF8EA2"/>
<path id="Vector_17" d="M14.572 13.125L13.4995 11.625H11.9995L13.072 13.125H14.572Z" fill="#8F5826"/>
<path id="Vector_18" d="M13.072 13.125L15.7495 16.875L16.4995 15.8246L14.572 13.125H13.072Z" fill="#DB9251"/>
<path id="Vector_19" d="M19.9275 13.125H21.75C21.9485 13.1235 22.1384 13.044 22.2787 12.9037C22.419 12.7634 22.4985 12.5735 22.5 12.375H20.4637L19.9275 13.125ZM2.25 13.125H14.5721L14.0359 12.375H1.5C1.50059 12.5737 1.5798 12.7642 1.72033 12.9047C1.86085 13.0452 2.05127 13.1244 2.25 13.125Z" fill="#8F5826"/>
<path id="Vector_20" d="M5.53537 18.3664C5.45449 17.908 5.47498 17.4375 5.59541 16.9879C5.71583 16.5382 5.93326 16.1205 6.23241 15.7639C6.53157 15.4073 6.90519 15.1205 7.32703 14.9238C7.74886 14.727 8.20866 14.625 8.67413 14.625H15.6431L14.5721 13.125H2.25L4.125 22.125H19.875L20.1094 21H8.67413C7.92484 20.9999 7.19953 20.7359 6.62554 20.2543C6.05155 19.7727 5.66557 19.1043 5.53537 18.3664ZM21.75 13.125H19.9275L18.8565 14.625H21.4373L21.75 13.125Z" fill="#DB9251"/>
<path id="Vector_21" d="M13.3646 11.0137C13.2932 10.8456 13.1901 10.6928 13.0609 10.5637C12.9673 10.4724 12.8627 10.3931 12.7496 10.3275C12.5217 10.196 12.2632 10.1267 12.0001 10.1267C11.737 10.1267 11.4785 10.1959 11.2506 10.3273C11.0226 10.4588 10.8333 10.6479 10.7016 10.8757C10.5698 11.1034 10.5003 11.3618 10.5 11.625H10.875C10.875 11.3266 10.9935 11.0404 11.2045 10.8295C11.4155 10.6185 11.7016 10.5 12 10.5C12.2984 10.5 12.5845 10.6185 12.7955 10.8295C13.0065 11.0404 13.125 11.3266 13.125 11.625H13.5C13.5015 11.4136 13.4553 11.2046 13.3646 11.0137Z" fill="#8F5826"/>
<path id="Vector_22" d="M12 8.625V0.75C12.0004 0.678689 12.0212 0.608988 12.0601 0.549166C12.0989 0.489345 12.154 0.441913 12.219 0.4125C12.1483 0.388935 12.0745 0.376289 12 0.375C11.8013 0.375594 11.6108 0.454802 11.4703 0.595326C11.3298 0.735849 11.2506 0.92627 11.25 1.125V10.3275C11.4777 10.1949 11.7365 10.125 12 10.125C12.2635 10.125 12.5223 10.1949 12.75 10.3275V9.375C12.5511 9.375 12.3603 9.29598 12.2197 9.15533C12.079 9.01468 12 8.82391 12 8.625Z" fill="#8F5826"/>
<path id="Vector_23" d="M15.375 11.625H13.5L14.5725 13.125L17.25 16.875L18.4215 15.2344C17.6594 14.9244 16.9839 14.434 16.4533 13.8053C15.9226 13.1766 15.5526 12.4283 15.375 11.625Z" fill="#F26681"/>
<path id="Vector_24" d="M8.24998 10.8747C8.2516 10.4478 8.16211 10.0255 7.98749 9.63603C7.81287 9.24652 7.55713 8.89876 7.23737 8.61598C6.91761 8.33321 6.54119 8.12193 6.13325 7.99625C5.72531 7.87058 5.29525 7.8334 4.8718 7.88722C4.44835 7.94103 4.04125 8.08459 3.67771 8.3083C3.31417 8.53202 3.00256 8.83074 2.7637 9.1845C2.52483 9.53827 2.36421 9.93894 2.29256 10.3597C2.22091 10.7805 2.23989 11.2118 2.34823 11.6247H8.15173C8.21602 11.3798 8.24904 11.1278 8.24998 10.8747Z" fill="#FF9F00"/>
<path id="Vector_25" d="M3.37504 9.37452C3.37492 9.13 3.43466 8.88917 3.54906 8.67306C3.66345 8.45696 3.82901 8.27215 4.03129 8.13477C3.38127 8.42089 2.85466 8.92954 2.54616 9.56924C2.23765 10.2089 2.16749 10.9377 2.34829 11.6245H8.15179C8.21608 11.3797 8.2491 11.1277 8.25004 10.8745H4.87504C4.47721 10.8745 4.09568 10.7165 3.81438 10.4352C3.53307 10.1539 3.37504 9.77234 3.37504 9.37452Z" fill="#F28A00"/>
<path id="Vector_26" d="M3.75 8.99988C3.43359 9.40275 2.97443 9.66858 2.4675 9.74238C1.5 9.84363 0.75 8.99988 0.75 8.99988C1.73625 7.88988 2.72625 8.24238 3.285 8.60988C3.45375 8.72255 3.60968 8.85332 3.75 8.99988Z" fill="#928F48"/>
<path id="Vector_27" d="M0.75 9C0.75975 9.01087 1.50563 9.84187 2.46675 9.74137C2.97378 9.66804 3.43321 9.40261 3.75 9H0.75Z" fill="#606627"/>
<path id="Vector_28" d="M4.79235 8.27727C4.64723 8.30202 4.51635 8.36615 4.50098 8.54915C4.50575 8.63836 4.53084 8.72531 4.57431 8.80335C4.61779 8.8814 4.67851 8.9485 4.75185 8.99952C5.08359 9.29292 5.47087 9.51672 5.89073 9.65764C6.04012 9.7128 6.19733 9.74381 6.35648 9.74952C6.41845 9.75254 6.48016 9.73963 6.53573 9.71202C6.58711 9.68056 6.62938 9.63622 6.65835 9.58339C6.7241 9.4586 6.75529 9.3185 6.74869 9.1776C6.7421 9.0367 6.69796 8.90013 6.62085 8.78202C6.2601 8.21052 5.4801 8.2259 4.90298 8.26377C4.8651 8.2679 4.82835 8.27127 4.79235 8.27727ZM6.75285 9.8759C6.76882 9.96232 6.81332 10.0409 6.87923 10.099C6.969 10.1918 7.07108 10.2718 7.1826 10.3368C7.21826 10.3614 7.26006 10.3757 7.30335 10.378C7.33334 10.3759 7.36228 10.3661 7.38735 10.3495C7.4424 10.3087 7.48431 10.2526 7.50796 10.1883C7.53161 10.1239 7.53596 10.0541 7.52048 9.98727C7.49869 9.87748 7.45232 9.77405 7.38484 9.68474C7.31736 9.59544 7.23052 9.52258 7.13085 9.47165C6.92798 9.41502 6.73523 9.6944 6.75285 9.8759Z" fill="#FFCB75"/>
<path id="Vector_29" d="M13.5 10.8826L13.365 11.0139C13.4555 11.2048 13.5016 11.4138 13.5 11.6251H16.5787L16.5337 11.4901C16.4676 11.2881 16.4118 11.0828 16.3665 10.8751H13.5071L13.5 10.8826ZM17.4465 10.8751H17.2331C17.3087 11.1185 17.3533 11.3705 17.3659 11.6251H19.125C19.1024 11.2403 19.0296 10.8601 18.9086 10.4941C18.4617 10.7438 17.9584 10.8749 17.4465 10.8751ZM23.0775 4.67262C22.9175 4.51227 22.7291 4.38319 22.5217 4.29199C22.768 4.7724 22.8602 5.31706 22.7857 5.85176C22.7113 6.38646 22.4737 6.88519 22.1055 7.27999L21.3 8.14249C21.2675 8.47434 21.1866 8.79966 21.06 9.10812C21.0037 8.93575 20.9424 8.76506 20.8762 8.59624L19.6387 9.92149C19.5631 10.0019 19.4831 10.0781 19.3991 10.1499C19.3637 10.6504 19.2717 11.1453 19.125 11.6251H19.3987L19.7737 11.2501L20.8987 10.1251L22.5337 8.49012C23.1874 7.83817 23.5762 6.96705 23.625 6.04512C23.631 5.79125 23.5856 5.53878 23.4915 5.30291C23.3974 5.06705 23.2566 4.85265 23.0775 4.67262Z" fill="#D6904F"/>
<path id="Vector_30" d="M17.625 6.74955C17.3941 6.59281 17.1862 6.40462 17.0074 6.19043L14.3824 8.59755C14.2751 8.69612 14.1414 8.7613 13.9977 8.78512C13.8539 8.80895 13.7064 8.7904 13.573 8.73173C13.4396 8.67307 13.3262 8.57683 13.2467 8.45477C13.1671 8.33271 13.1248 8.19013 13.125 8.04443V7.49955L12.75 7.87455V10.3271C12.8631 10.3927 12.9676 10.472 13.0613 10.5633C13.1904 10.6924 13.2936 10.8452 13.365 11.0133L13.5 10.8821L16.2338 8.18955L17.6625 6.78705L17.625 6.74955Z" fill="#7AAEEF"/>
<path id="Vector_31" d="M7.82971 7.83004L6.72721 6.72754L5.04346 7.14754C5.16346 7.38379 5.27596 7.62379 5.38096 7.87129V7.87879C5.78942 7.89712 6.18995 7.99789 6.55846 8.17504L7.82971 7.83004Z" fill="#928F48"/>
<path id="Vector_32" d="M6.72748 6.72673L3.90561 3.90486C3.76501 3.76421 3.68602 3.57348 3.68602 3.37461C3.68602 3.17574 3.76501 2.98501 3.90561 2.84436L4.03498 2.71498L3.41961 2.09961L3.21711 2.30211L2.30211 3.21711L2.09961 3.41961L2.97711 4.29711C3.81104 5.13288 4.50832 6.09464 5.04336 7.14711L6.72711 6.72711L6.72748 6.72673ZM10.5004 6.70836V9.22086C10.5004 9.32575 10.4693 9.42829 10.411 9.51551C10.3528 9.60273 10.2699 9.67071 10.173 9.71085C10.0761 9.751 9.9695 9.7615 9.86663 9.74103C9.76376 9.72056 9.66927 9.67004 9.59511 9.59586L7.87536 7.87461L7.82998 7.82923L6.55873 8.17423C7.06618 8.41962 7.4941 8.80319 7.79334 9.28087C8.09257 9.75854 8.25098 10.3109 8.25036 10.8746C8.24992 11.1275 8.21844 11.3794 8.15661 11.6246H10.5004C10.4999 11.3614 10.569 11.1028 10.7007 10.8749C10.8324 10.647 11.022 10.458 11.2504 10.3271V7.28961C11.0163 7.07608 10.7655 6.88171 10.5004 6.70836Z" fill="#D9D8DD"/>
<path id="Vector_33" d="M1.21777 2.98086L1.43902 3.20211C1.55279 3.31595 1.70632 3.38116 1.86724 3.38395C2.02816 3.38675 2.18387 3.32693 2.30152 3.21711L2.5719 2.94673L1.91227 2.28711L1.21777 2.98086Z" fill="#959499"/>
<path id="Vector_34" d="M0.81159 1.18652L0.55809 1.44002C0.500061 1.49779 0.454014 1.56646 0.422594 1.64207C0.391174 1.71769 0.375 1.79877 0.375 1.88065C0.375 1.96253 0.391174 2.04361 0.422594 2.11922C0.454014 2.19484 0.500061 2.2635 0.55809 2.32127L1.21809 2.98127L1.91259 2.28752L0.81159 1.18652Z" fill="#F3B83A"/>
<g id="Group_2">
<path id="Vector_35" d="M4.12482 14.2501H5.62482V15.0001H4.12482V14.2501ZM4.12482 15.7501H5.62482V16.5001H4.12482V15.7501ZM4.12482 17.2501H5.62482V18.0001H4.12482V17.2501ZM4.12482 18.7501H5.62482V19.5001H4.12482V18.7501ZM4.12482 20.2501H5.62482V21.0001H4.12482V20.2501ZM9.74982 14.2501H11.2498V15.0001H9.74982V14.2501ZM9.74982 15.7501H11.2498V16.5001H9.74982V15.7501ZM9.74982 17.2501H11.2498V18.0001H9.74982V17.2501ZM9.74982 18.7501H11.2498V19.5001H9.74982V18.7501ZM9.74982 20.2501H11.2498V21.0001H9.74982V20.2501ZM12.7498 14.2501H14.2498V15.0001H12.7498V14.2501ZM12.7498 15.7501H14.2498V16.5001H12.7498V15.7501ZM12.7498 17.2501H14.2498V18.0001H12.7498V17.2501ZM12.7498 18.7501H14.2498V19.5001H12.7498V18.7501ZM12.7498 20.2501H14.2498V21.0001H12.7498V20.2501ZM15.7498 17.2501H17.2498V18.0001H15.7498V17.2501ZM15.7498 18.7501H17.2498V19.5001H15.7498V18.7501ZM15.7498 20.2501H17.2498V21.0001H15.7498V20.2501ZM18.7498 15.7501H19.8748V16.5001H18.7498V15.7501ZM18.3748 17.2501H19.8748V18.0001H18.3748V17.2501ZM18.3748 18.7501H19.8748V19.5001H18.3748V18.7501ZM18.3748 20.2501H19.8748V21.0001H18.3748V20.2501ZM6.74982 14.2501H8.24982V15.0001H6.74982V14.2501ZM6.74982 15.7501H8.24982V16.5001H6.74982V15.7501ZM6.74982 17.2501H8.24982V18.0001H6.74982V17.2501ZM6.74982 18.7501H8.24982V19.5001H6.74982V18.7501ZM6.74982 20.2501H8.24982V21.0001H6.74982V20.2501ZM3.74982 9.18757C3.70811 9.1875 3.66761 9.17352 3.63474 9.14785C3.60187 9.12217 3.57849 9.08627 3.56832 9.04582C3.45162 8.63134 3.23044 8.25378 2.92597 7.9493C2.62149 7.64482 2.24392 7.42364 1.82944 7.30695C1.80506 7.30146 1.78203 7.29116 1.76169 7.27664C1.74135 7.26213 1.72411 7.24369 1.711 7.22242C1.69789 7.20115 1.68916 7.17748 1.68532 7.15278C1.68149 7.12809 1.68263 7.10288 1.68868 7.07864C1.69473 7.05439 1.70556 7.0316 1.72055 7.0116C1.73553 6.9916 1.75436 6.9748 1.77593 6.96218C1.7975 6.94957 1.82137 6.94139 1.84614 6.93813C1.87092 6.93487 1.89609 6.93659 1.92019 6.9432C2.40036 7.07679 2.83786 7.33218 3.19028 7.68461C3.54271 8.03703 3.7981 8.47453 3.93169 8.9547C3.94361 9.00283 3.93598 9.05372 3.91047 9.09624C3.88496 9.13876 3.84365 9.16944 3.79557 9.18157C3.78065 9.18557 3.76526 9.18759 3.74982 9.18757Z" fill="#8F5826"/>
</g>
</g>
</g>
</g>
<defs>
<clipPath id="clip0_8966_11971">
<rect width="24" height="24" fill="white"/>
</clipPath>
</defs>
</svg>
