<svg width="24" height="24" viewBox="0 0 24 24" fill="none" xmlns="http://www.w3.org/2000/svg">
<g id="Frame" clip-path="url(#clip0_8966_11809)">
<g id="Group">
<g id="Group_2">
<path id="Vector" fill-rule="evenodd" clip-rule="evenodd" d="M12.7695 5.99304C12.7695 8.16645 14.0928 10.0305 15.9775 10.8242C17.1776 11.3295 16.7446 12.1773 16.762 13.0383C16.799 14.8647 18.2217 16.2822 20.0059 16.2822C21.7901 16.2822 23.2498 14.8225 23.2498 13.0384V5.99309C23.2498 3.09902 20.9037 0.75293 18.0097 0.75293C15.1157 0.75293 12.7695 3.09902 12.7695 5.99304Z" fill="#F76C82"/>
<path id="Vector_2" fill-rule="evenodd" clip-rule="evenodd" d="M14.3662 5.99306C14.3662 3.98034 15.9969 2.34961 18.0097 2.34961C20.0224 2.34961 21.6531 3.98034 21.6531 5.99306V13.0383C21.6531 13.9411 20.9087 14.6855 20.0059 14.6855C19.0621 14.6855 18.3771 13.9329 18.3584 13.006C18.3487 12.5282 18.4596 12.139 18.3995 11.6158C18.2743 10.525 17.5928 9.77184 16.5972 9.35259C15.2471 8.78414 14.3662 7.46217 14.3662 5.99306Z" fill="#EB5463"/>
<path id="Vector_3" fill-rule="evenodd" clip-rule="evenodd" d="M16.7557 5.89464C16.7557 6.52684 17.2682 7.03928 17.9004 7.03928C18.5325 7.03928 19.045 6.5268 19.045 5.89464C19.045 5.26248 18.5325 4.75 17.9004 4.75C17.2682 4.75 16.7557 5.26244 16.7557 5.89464ZM8.30078 18.3284L16.0411 16.4459C15.9931 15.2977 14.9386 14.2169 14.2277 14.3236C11.3696 14.5782 8.44464 16.5678 8.30078 18.3284Z" fill="#E4E8EB"/>
<path id="Vector_4" fill-rule="evenodd" clip-rule="evenodd" d="M8.296 18.332C9.92973 17.359 11.5431 16.3511 13.9744 16.2125C15.6473 16.1172 17.6959 16.8397 19.4815 18.0172C19.5436 18.0581 19.58 18.119 19.5868 18.1929C19.5937 18.2669 19.5689 18.3334 19.5154 18.385L18.2193 19.6341C18.1743 19.6777 18.1483 19.7373 18.1472 19.8C18.146 19.8627 18.1697 19.9233 18.2132 19.9685L19.4547 21.2568C19.5064 21.3104 19.5287 21.3781 19.5189 21.452C19.5091 21.5259 19.47 21.5854 19.406 21.6237C17.572 22.7235 15.4917 23.3579 13.8445 23.2305C11.4495 23.0452 9.9475 21.9956 8.24256 20.8743L6.44626 21.8214C5.50975 22.3152 4.39379 21.6279 4.41334 20.5694L4.45173 18.4916C4.47128 17.4331 5.61189 16.7875 6.52951 17.3155L8.296 18.332Z" fill="#CAD0D7"/>
<g id="Group_3">
<path id="Vector_5" fill-rule="evenodd" clip-rule="evenodd" d="M4.46899 20.9949C4.42849 20.8566 4.40941 20.713 4.41242 20.569L4.41678 20.3327H5.64621C5.73402 20.3327 5.81823 20.3676 5.88032 20.4297C5.94241 20.4918 5.97729 20.576 5.97729 20.6638C5.97729 20.7516 5.94241 20.8358 5.88032 20.8979C5.81823 20.96 5.73402 20.9949 5.64621 20.9949H4.46899ZM4.42549 19.8612L4.43773 19.199H6.88146C6.96927 19.199 7.05348 19.2339 7.11557 19.296C7.17766 19.358 7.21254 19.4423 7.21254 19.5301C7.21254 19.6179 7.17766 19.7021 7.11557 19.7642C7.05348 19.8263 6.96927 19.8611 6.88146 19.8611H4.42549V19.8612ZM4.44645 18.7276L4.45081 18.4913C4.45362 18.3401 4.47931 18.1975 4.52388 18.0654H5.64621C5.73402 18.0654 5.81823 18.1003 5.88032 18.1624C5.94241 18.2245 5.97729 18.3087 5.97729 18.3965C5.97729 18.4843 5.94241 18.5685 5.88032 18.6306C5.81823 18.6927 5.73402 18.7276 5.64621 18.7276H4.44645ZM16.477 17.8983C16.1586 17.9153 15.9143 18.1872 15.9313 18.5055C15.9483 18.8239 16.2202 19.0682 16.5385 19.0512C16.8569 19.0342 17.1012 18.7623 17.0842 18.4439C17.0672 18.1256 16.7953 17.8813 16.477 17.8983ZM11.4303 19.7493C11.1812 19.9114 11.0476 20.1742 11.0635 20.471L11.1064 21.2754C11.1223 21.5722 11.2831 21.8192 11.5481 21.9539C11.813 22.0886 12.083 22.0273 12.3565 21.9108L14.0014 21.2489C13.8572 20.9179 13.7667 20.5452 13.7461 20.1401L12.2388 19.7062C11.9533 19.6231 11.6794 19.5871 11.4303 19.7493Z" fill="#E4E8EB"/>
</g>
<path id="Vector_6" fill-rule="evenodd" clip-rule="evenodd" d="M13.7825 20.3543C13.9639 20.3343 14.048 20.4864 14.068 20.6678C14.0879 20.8492 14.0363 20.9913 13.8549 21.0113L12.8716 21.1229C12.7845 21.1325 12.6971 21.1071 12.6287 21.0523C12.5603 20.9975 12.5165 20.9177 12.5069 20.8306C12.4973 20.7435 12.5227 20.6561 12.5775 20.5877C12.6323 20.5193 12.712 20.4754 12.7992 20.4658L13.7825 20.3543Z" fill="#CAD0D7"/>
<path id="Vector_7" fill-rule="evenodd" clip-rule="evenodd" d="M16.6904 22.8464C16.2699 22.9758 15.8532 23.0758 15.4474 23.1436C14.9738 22.9128 14.545 22.5866 14.2043 22.177C13.7168 21.5909 13.4104 20.8385 13.4104 19.9559C13.4104 19.5732 13.4688 19.1649 13.5962 18.7341C13.608 18.692 13.628 18.6527 13.6552 18.6184C13.6823 18.5842 13.716 18.5556 13.7542 18.5345C13.7924 18.5133 13.8345 18.4999 13.8779 18.4952C13.9214 18.4904 13.9653 18.4942 14.0073 18.5066C14.0492 18.5189 14.0883 18.5394 14.1222 18.567C14.1562 18.5945 14.1843 18.6285 14.205 18.667C14.2257 18.7055 14.2386 18.7477 14.2428 18.7912C14.2471 18.8347 14.2427 18.8786 14.2299 18.9204C14.1221 19.2852 14.0726 19.6312 14.0726 19.9559C14.0726 20.6748 14.3191 21.284 14.7113 21.7554C15.1079 22.2323 15.6543 22.5729 16.2476 22.7483C16.3928 22.7912 16.5407 22.824 16.6904 22.8464Z" fill="#A9B0BB"/>
<path id="Vector_8" fill-rule="evenodd" clip-rule="evenodd" d="M5.36828 4.42107L9.8028 12.1019C9.82743 12.1451 9.86659 12.1782 9.91332 12.1952C9.96004 12.2122 10.0113 12.2121 10.0579 12.1949C10.5015 12.034 11.01 12.2091 11.2541 12.6319C11.528 13.1063 11.3655 13.713 10.8911 13.9868C10.6688 14.1156 10.4052 14.1527 10.1561 14.0904C10.1102 14.079 10.0616 14.0858 10.0207 14.1095C9.9797 14.1331 9.94951 14.1717 9.93644 14.2172C9.86581 14.4641 9.70182 14.6738 9.47922 14.802C9.0048 15.0758 8.39819 14.9133 8.1243 14.4389C7.88018 14.016 7.98279 13.4881 8.34391 13.1844C8.38215 13.1527 8.40787 13.1083 8.41648 13.0594C8.42509 13.0104 8.41603 12.9599 8.39093 12.917L3.95641 5.23622C3.93179 5.19302 3.89263 5.15997 3.84592 5.14294C3.79921 5.12591 3.74796 5.12601 3.70132 5.14322C3.25774 5.30414 2.74924 5.12907 2.50511 4.70621C2.23122 4.23178 2.39378 3.62518 2.86816 3.35128C3.09041 3.22257 3.35404 3.18542 3.60321 3.24769C3.64911 3.2591 3.69764 3.25226 3.7386 3.22861C3.77956 3.20496 3.80975 3.16635 3.82282 3.12089C3.89347 2.87398 4.05745 2.66425 4.28003 2.53613C4.75441 2.26224 5.36107 2.42475 5.63496 2.89918C5.87908 3.32203 5.77647 3.84994 5.41535 4.15364C5.37709 4.18542 5.35136 4.22974 5.34274 4.27872C5.33412 4.3277 5.34317 4.37814 5.36828 4.42107Z" fill="#E4E8EB"/>
<path id="Vector_9" fill-rule="evenodd" clip-rule="evenodd" d="M2.59567 1.24791C0.830689 2.26693 0.226002 4.52377 1.24502 6.28876C1.69136 7.06182 2.37522 7.61204 3.1511 7.90093L3.15091 7.90107C4.45661 8.54701 5.99889 8.77271 7.22519 10.8967L8.63706 10.0815C7.41081 7.95755 7.98649 6.50907 8.07991 5.05534L8.07972 5.05543C8.21749 4.23901 8.08291 3.37163 7.63656 2.59862C6.6175 0.833633 4.36066 0.228946 2.59567 1.24791Z" fill="#D5A889"/>
</g>
</g>
</g>
<defs>
<clipPath id="clip0_8966_11809">
<rect width="24" height="24" fill="white"/>
</clipPath>
</defs>
</svg>
