<svg width="24" height="24" viewBox="0 0 24 24" fill="none" xmlns="http://www.w3.org/2000/svg">
<g id="Frame" clip-path="url(#clip0_8966_11909)">
<g id="Group">
<path id="Vector" d="M17.6 3.3999L15.6688 20.9999H7.9312L6 3.3999H17.6Z" fill="#4482C3"/>
<path id="Vector_2" d="M7.20036 0.199951H16.4004C16.8422 0.199951 17.2004 0.558123 17.2004 0.999967V2.59995H6.40039V0.99992C6.40034 0.558123 6.75852 0.199951 7.20036 0.199951Z" fill="#E6E7E8"/>
<path id="Vector_3" d="M6.00016 1.79956H17.6002C18.042 1.79956 18.4002 2.15773 18.4002 2.59958V3.39959C18.4002 3.50567 18.3581 3.60741 18.283 3.68242C18.208 3.75744 18.1063 3.79958 18.0002 3.79958H5.60018C5.4941 3.79958 5.39236 3.75744 5.31735 3.68242C5.24234 3.60741 5.2002 3.50567 5.2002 3.39959V2.59958C5.20015 2.15773 5.55832 1.79956 6.00016 1.79956Z" fill="#D1D4D1"/>
<path id="Vector_4" d="M15.2004 16.6003V20.2003H13.3644C13.2596 20.2012 13.1591 20.2428 13.0844 20.3164L11.2004 22.2004L9.31637 20.3164C9.24166 20.2428 9.14125 20.2012 9.03639 20.2003H2.40039V16.6003H15.2004Z" fill="#14A085"/>
<path id="Vector_5" d="M15.2004 15.0039C15.1779 15.0006 15.1552 14.9993 15.1324 14.9999H2.40041C2.23548 15 2.07234 15.0342 1.92118 15.1001C1.77002 15.1661 1.63408 15.2625 1.52186 15.3834C1.40963 15.5043 1.32351 15.647 1.26889 15.8026C1.21427 15.9582 1.19232 16.1234 1.20439 16.2879C1.27302 16.9306 1.82221 17.4138 2.46838 17.3999H15.2004C15.3653 17.3998 15.5284 17.3657 15.6796 17.2997C15.8308 17.2337 15.9667 17.1373 16.0789 17.0164C16.1912 16.8956 16.2773 16.7529 16.3319 16.5973C16.3865 16.4416 16.4085 16.2764 16.3964 16.1119C16.3319 15.495 15.8205 15.0212 15.2004 15.0039Z" fill="#804537"/>
<path id="Vector_6" d="M15.2004 12.2V15.004C15.1779 15.0006 15.1551 14.9993 15.1324 15H9.36438C9.25952 15.0008 9.1591 15.0424 9.08439 15.116L6.80041 17.3999L4.51642 15.116C4.44171 15.0424 4.34129 15.0008 4.23644 14.9999H2.40039V12.2H15.2004Z" fill="#F0C419"/>
<path id="Vector_7" d="M15.9999 13H1.59994C1.54741 13 1.4954 12.9896 1.44687 12.9695C1.39834 12.9494 1.35425 12.9199 1.3171 12.8828C1.27996 12.8457 1.2505 12.8016 1.2304 12.753C1.2103 12.7045 1.19995 12.6525 1.19995 12.6V12.2C1.19998 11.1391 1.62141 10.1217 2.37156 9.37156C3.12171 8.62141 4.13912 8.19998 5.19998 8.19995H12.4C14.6091 8.19995 16.4 9.99081 16.4 12.1999V12.5999C16.4 12.706 16.3578 12.8078 16.2828 12.8828C16.2078 12.9578 16.106 13 15.9999 13ZM16.4 19.8V21C16.4 22.3255 15.3255 23.4 14 23.4H3.59995C2.27447 23.4 1.19995 22.3255 1.19995 21V19.8C1.19995 19.6939 1.24209 19.5921 1.3171 19.5171C1.39212 19.4421 1.49385 19.4 1.59994 19.4H9.03595C9.14081 19.4008 9.24122 19.4424 9.31594 19.516L11.1999 21.4L13.0839 19.516C13.1586 19.4424 13.2591 19.4008 13.3639 19.4H15.9999C16.0525 19.4 16.1045 19.4103 16.153 19.4304C16.2016 19.4505 16.2457 19.48 16.2828 19.5171C16.3199 19.5543 16.3494 19.5984 16.3695 19.6469C16.3896 19.6954 16.4 19.7474 16.4 19.8Z" fill="#F29C1F"/>
<path id="Vector_8" d="M5.59977 9.79956H5.19979C5.09371 9.79956 4.99197 9.8417 4.91696 9.91671C4.84195 9.99172 4.7998 10.0935 4.7998 10.1995C4.7998 10.3056 4.84195 10.4074 4.91696 10.4824C4.99197 10.5574 5.09371 10.5995 5.19979 10.5995H5.59977C5.70586 10.5995 5.80759 10.5574 5.88261 10.4824C5.95762 10.4074 5.99976 10.3056 5.99976 10.1995C5.99976 10.0935 5.95762 9.99172 5.88261 9.91671C5.80759 9.8417 5.70586 9.79956 5.59977 9.79956ZM7.99977 10.5995H7.59979C7.49371 10.5995 7.39197 10.6417 7.31696 10.7167C7.24195 10.7917 7.1998 10.8934 7.1998 10.9995C7.1998 11.1056 7.24195 11.2073 7.31696 11.2823C7.39197 11.3574 7.49371 11.3995 7.59979 11.3995H7.99977C8.10586 11.3995 8.20759 11.3574 8.28261 11.2823C8.35762 11.2073 8.39976 11.1056 8.39976 10.9995C8.39976 10.8934 8.35762 10.7917 8.28261 10.7167C8.20759 10.6417 8.10586 10.5995 7.99977 10.5995ZM12.7998 10.5995H12.3998C12.2937 10.5995 12.192 10.6417 12.117 10.7167C12.0419 10.7917 11.9998 10.8934 11.9998 10.9995C11.9998 11.1056 12.0419 11.2073 12.117 11.2823C12.192 11.3574 12.2937 11.3995 12.3998 11.3995H12.7998C12.9059 11.3995 13.0076 11.3574 13.0826 11.2823C13.1576 11.2073 13.1998 11.1056 13.1998 10.9995C13.1998 10.8934 13.1576 10.7917 13.0826 10.7167C13.0076 10.6417 12.9059 10.5995 12.7998 10.5995ZM10.3998 9.79956H9.99979C9.89371 9.79956 9.79197 9.8417 9.71696 9.91671C9.64195 9.99172 9.5998 10.0935 9.5998 10.1995C9.5998 10.3056 9.64195 10.4074 9.71696 10.4824C9.79197 10.5574 9.89371 10.5995 9.99979 10.5995H10.3998C10.5059 10.5995 10.6076 10.5574 10.6826 10.4824C10.7576 10.4074 10.7998 10.3056 10.7998 10.1995C10.7998 10.0935 10.7576 9.99172 10.6826 9.91671C10.6076 9.8417 10.5059 9.79956 10.3998 9.79956Z" fill="#E57E25"/>
<path id="Vector_9" d="M11.5997 13.0081C11.5517 13.0041 11.5076 13 11.4596 13H11.1156C11.07 12.9999 11.025 13.0097 10.9836 13.0287C10.9421 13.0477 10.9053 13.0755 10.8757 13.1101C10.846 13.1447 10.8242 13.1853 10.8118 13.2291C10.7993 13.273 10.7965 13.319 10.8036 13.364L12.3392 23.4001H21.2552L22.7952 13.36C22.8018 13.315 22.7986 13.269 22.7857 13.2253C22.7728 13.1816 22.7505 13.1412 22.7205 13.107C22.6904 13.0728 22.6533 13.0455 22.6116 13.027C22.57 13.0085 22.5248 12.9993 22.4792 13H22.1393C21.9554 13 21.7728 13.0311 21.5993 13.0921L11.5997 13.0081Z" fill="#E64C3C"/>
<path id="Vector_10" d="M17.6032 16.404C16.9283 16.5126 16.2382 16.4827 15.5752 16.316L15.5996 16.2V9.312C15.5998 9.22929 15.6327 9.14999 15.6911 9.09151C15.7496 9.03302 15.8289 9.00011 15.9116 9H17.2877C17.3704 9.00011 17.4497 9.03302 17.5081 9.09151C17.5666 9.14999 17.5995 9.22929 17.5997 9.312V16.376L17.6032 16.404ZM13.5996 11.4V15.1C13.3175 14.7655 13.0918 14.3872 12.9316 13.98C12.8213 13.7105 12.6384 13.477 12.4032 13.3054C12.1681 13.1338 11.8899 13.0308 11.5996 13.008V11.712C11.5997 11.6293 11.6326 11.55 11.6911 11.4915C11.7496 11.433 11.8289 11.4001 11.9116 11.4H13.5996Z" fill="#F0C419"/>
<path id="Vector_11" d="M15.5996 9.79956V16.1995L15.5756 16.3156H15.5716C14.8008 16.1324 14.1094 15.706 13.5996 15.0996V10.1116C13.5997 10.0288 13.6326 9.94955 13.6911 9.89107C13.7496 9.83258 13.8289 9.79967 13.9116 9.79956H15.5996ZM19.6396 15.4636C19.069 15.9716 18.3604 16.2988 17.6036 16.4035L17.5996 16.3756V9.79956H19.1996C19.3057 9.79956 19.4074 9.8417 19.4824 9.91671C19.5574 9.99172 19.5996 10.0935 19.5996 10.1995V15.4156L19.6396 15.4636Z" fill="#F3D55B"/>
<path id="Vector_12" d="M21.5996 11.312V13.092C21.39 13.1652 21.1984 13.2822 21.0377 13.4354C20.877 13.5885 20.7508 13.7742 20.6676 13.98C20.4464 14.5476 20.0958 15.0558 19.6436 15.464H19.6396L19.5996 15.416V11H21.2876C21.3703 11.0001 21.4496 11.033 21.5081 11.0915C21.5666 11.15 21.5995 11.2293 21.5996 11.312Z" fill="#F0C419"/>
<path id="Vector_13" d="M16.5996 21.8C17.5937 21.8 18.3996 20.9941 18.3996 20C18.3996 19.0058 17.5937 18.2 16.5996 18.2C15.6054 18.2 14.7996 19.0058 14.7996 20C14.7996 20.9941 15.6054 21.8 16.5996 21.8Z" fill="#E6E7E8"/>
<path id="Vector_14" d="M23.6 23.8H0.399984C0.293902 23.8 0.192164 23.7578 0.117153 23.6828C0.0421411 23.6078 0 23.5061 0 23.4C0 23.2939 0.0421411 23.1922 0.117153 23.1172C0.192164 23.0421 0.293902 23 0.399984 23H23.6C23.7061 23 23.8078 23.0421 23.8828 23.1172C23.9578 23.1922 24 23.2939 24 23.4C24 23.4525 23.9896 23.5045 23.9695 23.5531C23.9494 23.6016 23.92 23.6457 23.8828 23.6828C23.8457 23.72 23.8016 23.7494 23.7531 23.7695C23.7046 23.7896 23.6525 23.8 23.6 23.8Z" fill="#804537"/>
</g>
</g>
<defs>
<clipPath id="clip0_8966_11909">
<rect width="24" height="24" fill="white"/>
</clipPath>
</defs>
</svg>
