<svg width="24" height="24" viewBox="0 0 24 24" fill="none" xmlns="http://www.w3.org/2000/svg">
<g id="Frame" clip-path="url(#clip0_8966_11851)">
<g id="Group">
<path id="Vector" d="M22.9278 19.2931L22.5539 19.2557L22.1323 18.5989L22.1127 18.0843L22.018 13.2615C22.0121 11.6344 22.2299 10.8688 21.6815 8.21445L20.6971 4.11448L20.0295 3.16113H10.2284L9.41309 3.71374L8.94977 6.46226L9.32013 7.03671L8.72173 7.81526C8.44599 9.44944 8.3074 11.1038 8.3074 12.7611L8.27796 18.2367L8.75895 18.5989L8.27412 18.961V18.9612H8.16645C7.6932 18.9612 7.30957 19.3448 7.30957 19.818V20.3386L8.26188 21.1954H22.6294L23.3016 20.4146L23.339 19.9784C23.339 19.5052 23.401 19.2931 22.9278 19.2931Z" fill="#DE955E"/>
<path id="Vector_2" d="M11.2057 6.53041C11.2847 6.5328 11.3637 6.53852 11.4418 6.55061C12.1839 6.66536 12.8819 6.96138 13.4902 7.42328C13.9416 7.76613 14.3258 8.19353 14.6214 8.67466C14.633 8.69348 14.6488 8.70942 14.6675 8.72128C14.6861 8.73313 14.7073 8.74059 14.7293 8.7431C15.8713 8.8796 16.7595 9.85417 16.7595 11.0324C16.7595 11.7447 16.4349 12.3826 15.9256 12.8058C15.8777 12.8457 15.8621 12.9122 15.8854 12.97C16.5246 14.5529 16.8846 16.2441 16.9412 17.9561C16.942 17.9764 16.947 17.9963 16.9559 18.0146C16.9649 18.0329 16.9775 18.0491 16.9931 18.0621C17.4293 18.4335 17.7259 18.9643 17.7921 19.5634C17.7954 19.594 17.8083 19.6226 17.8291 19.6455C18.2027 20.0572 18.424 20.6027 18.424 21.1954H8.30762V10.2708L8.94981 6.46216L11.2057 6.53041Z" fill="#CB7D50"/>
<path id="Vector_3" d="M16.5627 17.0376L16.8895 17.1341H19.4676C19.5188 17.1341 19.568 17.1138 19.6042 17.0775C19.6404 17.0413 19.6608 16.9922 19.6608 16.941V15.1287C19.6608 15.0775 19.6404 15.0284 19.6042 14.9921C19.568 14.9559 19.5188 14.9355 19.4676 14.9355H16.5206L16.1016 15.0321L16.5627 17.0376Z" fill="#FFE177"/>
<path id="Vector_4" d="M11.4481 17.1341C11.3968 17.1341 11.3477 17.1138 11.3115 17.0775C11.2752 17.0413 11.2549 16.9922 11.2549 16.941V15.1287C11.2549 15.0775 11.2752 15.0284 11.3115 14.9921C11.3477 14.9559 11.3968 14.9355 11.4481 14.9355H16.52C16.6988 15.6579 16.8221 16.3929 16.8889 17.1341H11.4481Z" fill="#FFD15B"/>
<path id="Vector_5" d="M16.12 11.311L16.5928 11.8891H18.2354C18.2866 11.8891 18.3358 11.8688 18.372 11.8326C18.4082 11.7963 18.4286 11.7472 18.4286 11.696V5.98907C18.4286 5.93784 18.4082 5.8887 18.372 5.85248C18.3358 5.81625 18.2866 5.7959 18.2354 5.7959H12.6548C12.6036 5.7959 12.5545 5.81625 12.5182 5.85248C12.482 5.8887 12.4617 5.93784 12.4617 5.98907V6.83446L12.9422 7.80074L16.12 11.311Z" fill="#F5F8F9"/>
<path id="Vector_6" d="M12.6551 11.3489C12.6039 11.3489 12.5547 11.3286 12.5185 11.2924C12.4823 11.2561 12.4619 11.207 12.4619 11.1558V6.83496C12.8287 6.98568 13.1742 7.1836 13.4898 7.42371C13.9418 7.76698 14.3263 8.19504 14.6221 8.67687C14.6334 8.69513 14.6487 8.71059 14.6668 8.72208C14.6849 8.73357 14.7054 8.74079 14.7268 8.7432C15.8698 8.87876 16.7591 9.8538 16.7591 11.0327C16.7592 11.3263 16.7028 11.6172 16.5931 11.8895H14.4536L12.6551 11.3489Z" fill="#E8EDF2"/>
<path id="Vector_7" d="M10.5462 7.96387C10.5436 7.96387 10.5342 7.96523 10.5317 7.96523C9.97403 7.43681 8.54087 7.17773 8.54087 7.17773L7.86306 7.17802C7.35674 7.29903 6.88899 7.54546 6.50289 7.89464C6.46677 7.9273 6.41982 7.94541 6.37112 7.94545C4.72796 7.94892 3.44078 9.22636 3.33568 10.8426C3.22201 12.5909 4.59517 14.1152 6.34637 14.1667C7.21211 14.1921 8.0011 13.8637 8.57964 13.3154L8.58746 13.3155L8.59529 13.3154C9.18461 13.8738 9.99217 14.2042 10.8768 14.1649C12.4724 14.094 13.3858 12.807 13.4602 11.2116C13.5434 9.42553 12.3138 7.96387 10.5462 7.96387Z" fill="#FFE177"/>
<g id="Group_2">
<path id="Vector_8" d="M7.14578 13.3152L7.13795 13.3153L7.13012 13.3152C6.73421 13.6908 6.24631 13.9554 5.71558 14.0824C5.95261 14.1391 6.19547 14.1678 6.43919 14.1679C6.95209 14.1679 7.43579 14.0435 7.86231 13.8236C7.60068 13.6888 7.35944 13.5177 7.14578 13.3152ZM10.8042 7.94534C10.755 7.94554 10.7076 7.92736 10.6711 7.89438C10.1194 7.3962 9.38847 7.09277 8.58662 7.09277C8.33715 7.09277 8.09467 7.1224 7.86222 7.17785C8.36946 7.29911 8.83799 7.5462 9.22455 7.8963C9.2614 7.92972 9.30952 7.94795 9.35926 7.94735C11.095 7.92841 12.3967 9.3267 12.3967 11.0566C12.3967 12.5256 11.3782 13.7561 10.009 14.0824C10.2465 14.1392 10.4899 14.1679 10.7341 14.1679C12.4524 14.1679 13.8453 12.7749 13.8453 11.0566C13.8454 9.3349 12.5275 7.9398 10.8042 7.94534Z" fill="#FFD15B"/>
</g>
<path id="Vector_9" d="M17.9961 21.8168L18.424 22.0526H23.3429C23.8161 22.0526 24.1998 21.669 24.1998 21.1957C24.1998 20.7225 23.8161 20.3389 23.3429 20.3389H18.2609L18.0023 20.583L17.9961 21.8168Z" fill="#CB7D50"/>
<path id="Vector_10" d="M18.2592 20.3389C18.3673 20.6116 18.4226 20.9024 18.4222 21.1957V22.0526H15.9507L15.3711 20.3389H18.2592Z" fill="#C07149"/>
<path id="Vector_11" d="M16.0459 19.8541C16.0459 19.3809 15.8835 19.1625 15.4103 19.1624L15.0174 18.5311L14.999 18.1904C14.9652 15.9566 14.3479 14.0849 13.2335 12.1505L12.8494 11.5498H3.62435L3.42691 11.8812C2.31223 13.8164 1.70954 16.004 1.67585 18.237L2.1573 18.5991L1.6744 18.9614H1.67426C1.20101 18.9614 0.817383 19.3451 0.817383 19.8183C0.817376 19.9743 0.861392 20.127 0.944367 20.259C1.02734 20.3911 1.14591 20.497 1.28641 20.5646L1.67435 20.7513H15.5002C15.787 20.6133 16.0459 20.1723 16.0459 19.8541Z" fill="#F4B887"/>
<path id="Vector_12" d="M12.5959 17.1341H4.57696C4.52573 17.1341 4.47659 17.1138 4.44037 17.0775C4.40414 17.0413 4.38379 16.9922 4.38379 16.941V15.1287C4.38379 15.0775 4.40414 15.0284 4.44037 14.9921C4.47659 14.9559 4.52573 14.9355 4.57696 14.9355H12.5959C12.6471 14.9355 12.6962 14.9559 12.7325 14.9921C12.7687 15.0284 12.789 15.0775 12.789 15.1287V16.941C12.789 16.9922 12.7687 17.0413 12.7325 17.0775C12.6962 17.1138 12.6471 17.1341 12.5959 17.1341Z" fill="#F5F8F9"/>
<g id="Group_3">
<path id="Vector_13" d="M14.2636 20.3389H15.1387L15.5624 20.4211L15.8373 21.0457L15.9519 22.0526H1.05609C0.582844 22.0526 0.199219 21.669 0.199219 21.1957C0.199219 20.7225 0.582844 20.3388 1.05609 20.3388H14.2636V20.3389ZM12.5781 11.793L12.2795 11.8895H2.72062C2.24738 11.8895 1.86375 11.5059 1.86375 11.0327C1.86375 10.5594 2.24738 10.1758 2.72062 10.1758H12.2795L12.5033 10.2723L12.5781 11.793ZM3.96548 18.5992C3.96543 18.6952 3.92726 18.7873 3.85936 18.8552C3.79145 18.9231 3.69936 18.9613 3.60333 18.9613H1.67414V18.4345C1.67414 18.3688 1.67461 18.3027 1.67559 18.237H3.60333C3.70327 18.237 3.79359 18.2776 3.85927 18.3432C3.89301 18.3768 3.91977 18.4166 3.938 18.4606C3.95624 18.5045 3.96558 18.5516 3.96548 18.5992ZM13.5954 18.237C13.4994 18.2371 13.4073 18.2752 13.3394 18.3431C13.2715 18.411 13.2333 18.5031 13.2333 18.5992C13.2333 18.6991 13.2738 18.7899 13.3395 18.8551C13.373 18.8888 13.4129 18.9156 13.4569 18.9338C13.5008 18.952 13.5479 18.9614 13.5954 18.9613H15.1485V18.237H13.5954V18.237Z" fill="#EAA978"/>
</g>
<path id="Vector_14" d="M20.3506 18.5985C20.3506 18.6946 20.3888 18.7867 20.4567 18.8546C20.5246 18.9225 20.6167 18.9607 20.7127 18.9607H22.6168L22.613 18.2363H20.7127C20.6652 18.2363 20.6181 18.2456 20.5742 18.2639C20.5302 18.2821 20.4904 18.3088 20.4568 18.3425C20.4231 18.3761 20.3963 18.416 20.3781 18.4599C20.3598 18.5038 20.3505 18.551 20.3506 18.5985Z" fill="#CB7D50"/>
<path id="Vector_15" d="M22.7244 18.9612H22.6167V18.9611L22.6128 18.2367L22.5834 12.7611C22.5834 11.1039 22.4448 9.44948 22.1691 7.81531L21.4777 3.71374L20.6624 3.16113L20.0291 3.71374L20.7204 7.81531C20.9961 9.44948 21.1347 11.1039 21.1347 12.7611L21.1642 18.2367L21.168 18.9611V18.9612H21.2757C21.7489 18.9612 22.1326 19.3448 22.1326 19.8181V20.3386L21.1803 21.1955H22.6289L23.5812 20.3386V19.8181C23.5812 19.3448 23.1976 18.9612 22.7244 18.9612Z" fill="#CB7D50"/>
<path id="Vector_16" d="M22.6166 18.9616H21.168L21.1641 18.2373H22.6127L22.6166 18.9616Z" fill="#C07149"/>
<path id="Vector_17" d="M16.3566 19.8185C16.3566 20.1367 16.1745 20.4264 15.8877 20.5645L15.5 20.7514H15.3817C15.2397 20.5187 14.8886 20.7843 14.8886 20.7843V19.8185C14.8886 19.5818 14.793 19.3674 14.6375 19.2124C14.485 19.0594 14.2802 18.9698 14.0643 18.9618L14.0305 18.2369C13.9969 16.0039 13.3943 13.8163 12.2796 11.8811L12.082 11.5498H13.5501L13.7475 11.8811C14.8623 13.8163 15.4649 16.0039 15.4985 18.2369C15.1962 18.4083 15.0906 18.8276 15.5 18.9613C15.9732 18.9613 16.3566 19.3452 16.3566 19.8185Z" fill="#EAA978"/>
<path id="Vector_18" d="M15.5007 18.4339V18.9607H14.065L14.0312 18.2363H15.4993C15.5002 18.302 15.5007 18.3682 15.5007 18.4339Z" fill="#DE955E"/>
<path id="Vector_19" d="M7.19321 9.22236C7.39322 9.22236 7.55537 9.06022 7.55537 8.8602C7.55537 8.66019 7.39322 8.49805 7.19321 8.49805C6.9932 8.49805 6.83105 8.66019 6.83105 8.8602C6.83105 9.06022 6.9932 9.22236 7.19321 9.22236Z" fill="#FFD15B"/>
<path id="Vector_20" d="M16.1177 20.3389H14.8877C15.3609 20.3389 15.7424 20.7225 15.7424 21.1957V22.0526H16.1177C16.5909 22.0526 16.9746 21.669 16.9746 21.1957C16.9746 20.7225 16.591 20.3389 16.1177 20.3389Z" fill="#DE955E"/>
<path id="Vector_21" d="M23.3426 20.3389H22.1328C22.6061 20.3389 22.9673 20.7225 22.9673 21.1957V22.0526H23.3426C23.8158 22.0526 24.1994 21.669 24.1994 21.1957C24.1994 20.7225 23.8158 20.3389 23.3426 20.3389Z" fill="#C07149"/>
<path id="Vector_22" d="M8.58701 8.52509C8.78702 8.52509 8.94917 8.36295 8.94917 8.16294C8.94917 7.96292 8.78702 7.80078 8.58701 7.80078C8.387 7.80078 8.22485 7.96292 8.22485 8.16294C8.22485 8.36295 8.387 8.52509 8.58701 8.52509Z" fill="#FFD15B"/>
<path id="Vector_23" d="M9.98227 9.22236C10.1823 9.22236 10.3444 9.06022 10.3444 8.8602C10.3444 8.66019 10.1823 8.49805 9.98227 8.49805C9.78226 8.49805 9.62012 8.66019 9.62012 8.8602C9.62012 9.06022 9.78226 9.22236 9.98227 9.22236Z" fill="#FFD15B"/>
<path id="Vector_24" d="M14.4551 11.8895C14.9284 11.8895 15.312 11.5059 15.312 11.0327C15.312 10.5594 14.9284 10.1758 14.4551 10.1758H12.2812V11.8895H14.4551Z" fill="#DE955E"/>
<path id="Vector_25" d="M20.2144 2.09656L20.0297 2H9.30316C8.82991 2 8.44629 2.38363 8.44629 2.85688C8.44629 3.33013 8.82991 3.71375 9.30316 3.71375H20.0297L20.205 3.61719L20.2144 2.09656Z" fill="#CB7D50"/>
<path id="Vector_26" d="M22.4447 2.85688C22.4447 2.38363 22.0611 2 21.5878 2H20.0291V3.71375H21.5878C22.0611 3.71375 22.4447 3.33013 22.4447 2.85688Z" fill="#C07149"/>
</g>
</g>
<defs>
<clipPath id="clip0_8966_11851">
<rect width="24" height="24" fill="white"/>
</clipPath>
</defs>
</svg>
