<svg width="28" height="28" viewBox="0 0 28 28" fill="none" xmlns="http://www.w3.org/2000/svg">
<g id="ic:round-directions-run">
<path id="Vector" d="M15.9058 6.75572C17.1281 6.75572 18.1281 5.75572 18.1281 4.5335C18.1281 3.31128 17.1281 2.31128 15.9058 2.31128C14.6836 2.31128 13.6836 3.31128 13.6836 4.5335C13.6836 5.75572 14.6836 6.75572 15.9058 6.75572ZM12.3836 20.0891L13.0169 17.3113L15.3503 19.5335V25.0891C15.3503 25.7002 15.8503 26.2002 16.4614 26.2002C17.0725 26.2002 17.5725 25.7002 17.5725 25.0891V18.8224C17.5725 18.2113 17.3281 17.6335 16.8836 17.2113L15.2392 15.6446L15.9058 12.3113C17.158 13.7427 18.8721 14.6902 20.7503 14.9891C21.417 15.0891 22.0169 14.5557 22.0169 13.8779C22.0169 13.3335 21.6169 12.8779 21.0725 12.7891C19.3836 12.5113 17.9836 11.5113 17.2392 10.2002L16.1281 8.42239C15.6836 7.75572 15.0169 7.31128 14.2392 7.31128C13.9058 7.31128 13.6836 7.42239 13.3503 7.42239L8.92806 9.28906C8.52552 9.46112 8.18242 9.74769 7.94141 10.1131C7.70041 10.4786 7.57212 10.9068 7.5725 11.3446V13.9779C7.5725 14.5891 8.0725 15.0891 8.68362 15.0891C9.29473 15.0891 9.79473 14.5891 9.79473 13.9779V11.3113L11.7947 10.5335L10.0169 19.5335L5.66139 18.6446C5.06139 18.5224 4.4725 18.9113 4.35028 19.5113V19.5557C4.22806 20.1557 4.61695 20.7446 5.21695 20.8668L9.78362 21.7779C10.3516 21.8907 10.9412 21.7773 11.4268 21.4618C11.9124 21.1464 12.2557 20.6538 12.3836 20.0891Z" fill="#FF6A00"/>
</g>
</svg>
