<svg width="28" height="28" viewBox="0 0 28 28" fill="none" xmlns="http://www.w3.org/2000/svg">
<g id="ic:round-fastfood" clip-path="url(#clip0_8966_11636)">
<path id="Vector" d="M18.8097 23.4898H20.4697C21.3097 23.4898 21.9997 22.8498 22.0997 22.0298L23.7497 5.54976H18.7497V1.49976H16.7797V5.54976H11.8097L12.1097 7.88976C13.8197 8.35976 15.4197 9.20976 16.3797 10.1498C17.8197 11.5698 18.8097 13.0398 18.8097 15.4398V23.4898ZM1.74969 22.4898V21.4998H16.7797V22.4898C16.7797 23.0398 16.3297 23.4898 15.7697 23.4898H2.75969C2.19969 23.4898 1.74969 23.0398 1.74969 22.4898ZM16.7797 15.4898C16.7797 7.48976 1.74969 7.48976 1.74969 15.4898H16.7797ZM1.76969 17.4998H16.7697V19.4998H1.76969V17.4998Z" fill="#FF6A00"/>
</g>
<defs>
<clipPath id="clip0_8966_11636">
<rect width="26.6667" height="26.6667" fill="white" transform="translate(0.416687 0.666748)"/>
</clipPath>
</defs>
</svg>
