<svg width="21" height="20" viewBox="0 0 21 20" fill="none" xmlns="http://www.w3.org/2000/svg">
<path d="M4.64429 5.00008C4.64429 4.11603 4.99548 3.26818 5.6206 2.64306C6.24572 2.01794 7.09357 1.66675 7.97762 1.66675H12.9776C13.8617 1.66675 14.7095 2.01794 15.3346 2.64306C15.9598 3.26818 16.311 4.11603 16.311 5.00008V16.6667C16.311 17.1088 16.1354 17.5327 15.8228 17.8453C15.5102 18.1578 15.0863 18.3334 14.6443 18.3334H6.31095C5.86893 18.3334 5.445 18.1578 5.13244 17.8453C4.81988 17.5327 4.64429 17.1088 4.64429 16.6667V5.00008Z" stroke="#90909A" stroke-width="1.66667" stroke-linecap="round" stroke-linejoin="round"/>
<path d="M4.64429 8.33325H16.311" stroke="#90909A" stroke-width="1.66667" stroke-linecap="round" stroke-linejoin="round"/>
<path d="M12.9775 5.83325V10.8333" stroke="#90909A" stroke-width="1.66667" stroke-linecap="round" stroke-linejoin="round"/>
</svg>
