<svg width="21" height="20" viewBox="0 0 21 20" fill="none" xmlns="http://www.w3.org/2000/svg">
<path d="M2.18896 10H18.8556" stroke="#90909A" stroke-width="1.5" stroke-linecap="round" stroke-linejoin="round"/>
<path d="M17.189 10V16.6667C17.189 17.1087 17.0135 17.5326 16.7009 17.8452C16.3883 18.1577 15.9644 18.3333 15.5224 18.3333H5.52238C5.08035 18.3333 4.65643 18.1577 4.34387 17.8452C4.03131 17.5326 3.85571 17.1087 3.85571 16.6667V10" stroke="#90909A" stroke-width="1.5" stroke-linecap="round" stroke-linejoin="round"/>
<path d="M3.85571 6.66659L17.189 3.33325" stroke="#90909A" stroke-width="1.5" stroke-linecap="round" stroke-linejoin="round"/>
<path d="M7.90567 5.65004L7.53067 4.1417C7.47694 3.9294 7.46558 3.70858 7.49724 3.49188C7.5289 3.27518 7.60295 3.06685 7.71517 2.87878C7.82739 2.69072 7.97558 2.52662 8.15125 2.39586C8.32693 2.26509 8.52665 2.17023 8.73901 2.1167L10.3557 1.7167C10.5685 1.66311 10.7899 1.65209 11.007 1.68428C11.2242 1.71647 11.4328 1.79124 11.621 1.90429C11.8091 2.01734 11.9731 2.16645 12.1035 2.34305C12.2338 2.51965 12.328 2.72026 12.3807 2.93337L12.7557 4.43337" stroke="#90909A" stroke-width="1.5" stroke-linecap="round" stroke-linejoin="round"/>
</svg>
