<svg width="25" height="24" viewBox="0 0 25 24" fill="none" xmlns="http://www.w3.org/2000/svg">
<g id="ic:local_grocery_store" clip-path="url(#clip0_8966_11658)">
<path id="Vector" d="M7.25 18C6.15 18 5.26 18.9 5.26 20C5.26 21.1 6.15 22 7.25 22C8.35 22 9.25 21.1 9.25 20C9.25 18.9 8.35 18 7.25 18ZM1.25 2V4H3.25L6.85 11.59L5.5 14.04C5.34 14.32 5.25 14.65 5.25 15C5.25 16.1 6.15 17 7.25 17H19.25V15H7.67C7.53 15 7.42 14.89 7.42 14.75L7.45 14.63L8.35 13H15.8C16.55 13 17.21 12.59 17.55 11.97L21.13 5.48C21.21 5.34 21.25 5.17 21.25 5C21.25 4.45 20.8 4 20.25 4H5.46L4.52 2H1.25ZM17.25 18C16.15 18 15.26 18.9 15.26 20C15.26 21.1 16.15 22 17.25 22C18.35 22 19.25 21.1 19.25 20C19.25 18.9 18.35 18 17.25 18Z" fill="#FF6A00"/>
</g>
<defs>
<clipPath id="clip0_8966_11658">
<rect width="24" height="24" fill="white" transform="translate(0.25)"/>
</clipPath>
</defs>
</svg>
