<svg width="28" height="28" viewBox="0 0 28 28" fill="none" xmlns="http://www.w3.org/2000/svg">
<g id="vuesax/linear/trash">
<g id="trash">
<path id="Vector" d="M24.5 6.97664C20.615 6.59164 16.7067 6.39331 12.81 6.39331C10.5 6.39331 8.19 6.50998 5.88 6.74331L3.5 6.97664" stroke="white" stroke-width="1.86667" stroke-linecap="round" stroke-linejoin="round"/>
<path id="Vector_2" d="M9.9165 5.79837L10.1732 4.27004C10.3598 3.16171 10.4998 2.33337 12.4715 2.33337H15.5282C17.4998 2.33337 17.6515 3.20837 17.8265 4.28171L18.0832 5.79837" stroke="white" stroke-width="1.86667" stroke-linecap="round" stroke-linejoin="round"/>
<path id="Vector_3" d="M21.9911 10.6633L21.2328 22.4117C21.1045 24.2433 20.9995 25.6667 17.7445 25.6667H10.2545C6.99948 25.6667 6.89448 24.2433 6.76615 22.4117L6.00781 10.6633" stroke="white" stroke-width="1.86667" stroke-linecap="round" stroke-linejoin="round"/>
<path id="Vector_4" d="M12.0508 19.25H15.9358" stroke="white" stroke-width="1.86667" stroke-linecap="round" stroke-linejoin="round"/>
<path id="Vector_5" d="M11.0835 14.5834H16.9168" stroke="white" stroke-width="1.86667" stroke-linecap="round" stroke-linejoin="round"/>
</g>
</g>
</svg>
